<?xml version="1.0" encoding="utf-8"?>
<svg viewBox="82.318 8.324 466.353 413.344" xmlns="http://www.w3.org/2000/svg" xmlns:xlink="http://www.w3.org/1999/xlink">
  <defs>
    <symbol id="y" overflow="visible">
      <path d="m18.766-1.125c-0.96875 0.5-1.9805 0.875-3.0312 1.125-1.043 0.25781-2.1367 0.39062-3.2812 0.39062-3.3984 0-6.0898-0.94531-8.0781-2.8438-1.9922-1.9062-2.9844-4.4844-2.9844-7.7344 0-3.2578 0.99219-5.8359 2.9844-7.7344 1.9883-1.9062 4.6797-2.8594 8.0781-2.8594 1.1445 0 2.2383 0.13281 3.2812 0.39062 1.0508 0.25 2.0625 0.625 3.0312 1.125v4.2188c-0.98047-0.65625-1.9453-1.1406-2.8906-1.4531-0.94922-0.3125-1.9492-0.46875-3-0.46875-1.875 0-3.3516 0.60547-4.4219 1.8125-1.0742 1.1992-1.6094 2.8555-1.6094 4.9688 0 2.1055 0.53516 3.7617 1.6094 4.9688 1.0703 1.1992 2.5469 1.7969 4.4219 1.7969 1.0508 0 2.0508-0.14844 3-0.45312 0.94531-0.3125 1.9102-0.80078 2.8906-1.4688z"/>
    </symbol>
    <symbol id="symbol-51" overflow="visible">
      <path d="m13.734-11.141c-0.4375-0.19531-0.87109-0.34375-1.2969-0.4375-0.41797-0.10156-0.83984-0.15625-1.2656-0.15625-1.2617 0-2.2305 0.40625-2.9062 1.2188-0.67969 0.80469-1.0156 1.9531-1.0156 3.4531v7.0625h-4.8906v-15.312h4.8906v2.5156c0.625-1 1.3438-1.7266 2.1562-2.1875 0.82031-0.46875 1.8008-0.70312 2.9375-0.70312 0.16406 0 0.34375 0.011719 0.53125 0.03125 0.19531 0.011719 0.47656 0.039062 0.84375 0.078125z"/>
    </symbol>
    <symbol id="symbol-52" overflow="visible">
      <path d="m17.641-7.7031v1.4062h-11.453c0.125 1.1484 0.53906 2.0078 1.25 2.5781 0.70703 0.57422 1.7031 0.85938 2.9844 0.85938 1.0312 0 2.082-0.14844 3.1562-0.45312 1.082-0.3125 2.1914-0.77344 3.3281-1.3906v3.7656c-1.1562 0.4375-2.3125 0.76562-3.4688 0.98438-1.1562 0.22656-2.3125 0.34375-3.4688 0.34375-2.7734 0-4.9297-0.70312-6.4688-2.1094-1.5312-1.4062-2.2969-3.3789-2.2969-5.9219 0-2.5 0.75391-4.4609 2.2656-5.8906 1.5078-1.4375 3.582-2.1562 6.2188-2.1562 2.4062 0 4.332 0.73047 5.7812 2.1875 1.4453 1.4492 2.1719 3.3828 2.1719 5.7969zm-5.0312-1.625c0-0.92578-0.27344-1.6719-0.8125-2.2344-0.54297-0.57031-1.25-0.85938-2.125-0.85938-0.94922 0-1.7188 0.26562-2.3125 0.79688s-0.96484 1.2969-1.1094 2.2969z"/>
    </symbol>
    <symbol id="symbol-53" overflow="visible">
      <path d="m9.2188-6.8906c-1.0234 0-1.793 0.17188-2.3125 0.51562-0.51172 0.34375-0.76562 0.85547-0.76562 1.5312 0 0.625 0.20703 1.1172 0.625 1.4688 0.41406 0.34375 0.98828 0.51562 1.7188 0.51562 0.92578 0 1.7031-0.32812 2.3281-0.98438 0.63281-0.66406 0.95312-1.4922 0.95312-2.4844v-0.5625zm7.4688-1.8438v8.7344h-4.9219v-2.2656c-0.65625 0.92969-1.3984 1.6055-2.2188 2.0312-0.82422 0.41406-1.8242 0.625-3 0.625-1.5859 0-2.8711-0.45703-3.8594-1.375-0.99219-0.92578-1.4844-2.1289-1.4844-3.6094 0-1.7891 0.61328-3.1016 1.8438-3.9375 1.2383-0.84375 3.1797-1.2656 5.8281-1.2656h2.8906v-0.39062c0-0.76953-0.30859-1.332-0.92188-1.6875-0.61719-0.36328-1.5703-0.54688-2.8594-0.54688-1.0547 0-2.0312 0.10547-2.9375 0.3125-0.89844 0.21094-1.7305 0.52344-2.5 0.9375v-3.7344c1.0391-0.25 2.0859-0.44141 3.1406-0.57812 1.0625-0.13281 2.125-0.20312 3.1875-0.20312 2.7578 0 4.75 0.54688 5.9688 1.6406 1.2266 1.0859 1.8438 2.8555 1.8438 5.3125z"/>
    </symbol>
    <symbol id="symbol-54" overflow="visible">
      <path d="m7.7031-19.656v4.3438h5.0469v3.5h-5.0469v6.5c0 0.71094 0.14062 1.1875 0.42188 1.4375s0.83594 0.375 1.6719 0.375h2.5156v3.5h-4.1875c-1.9375 0-3.3125-0.39844-4.125-1.2031-0.80469-0.8125-1.2031-2.1797-1.2031-4.1094v-6.5h-2.4219v-3.5h2.4219v-4.3438z"/>
    </symbol>
    <symbol id="symbol-55" overflow="visible">
      <path d="m12.766-13.078v-8.2031h4.9219v21.281h-4.9219v-2.2188c-0.66797 0.90625-1.4062 1.5703-2.2188 1.9844s-1.7578 0.625-2.8281 0.625c-1.8867 0-3.4336-0.75-4.6406-2.25-1.2109-1.5-1.8125-3.4258-1.8125-5.7812 0-2.3633 0.60156-4.2969 1.8125-5.7969 1.207-1.5 2.7539-2.25 4.6406-2.25 1.0625 0 2 0.21484 2.8125 0.64062 0.82031 0.42969 1.5664 1.0859 2.2344 1.9688zm-3.2188 9.9219c1.0391 0 1.8359-0.37891 2.3906-1.1406 0.55078-0.76953 0.82812-1.8828 0.82812-3.3438 0-1.457-0.27734-2.5664-0.82812-3.3281-0.55469-0.76953-1.3516-1.1562-2.3906-1.1562-1.043 0-1.8398 0.38672-2.3906 1.1562-0.55469 0.76172-0.82812 1.8711-0.82812 3.3281 0 1.4609 0.27344 2.5742 0.82812 3.3438 0.55078 0.76172 1.3477 1.1406 2.3906 1.1406z"/>
    </symbol>
    <symbol id="symbol-56" overflow="visible">
      <path d="m10.5-3.1562c1.0508 0 1.8516-0.37891 2.4062-1.1406 0.55078-0.76953 0.82812-1.8828 0.82812-3.3438 0-1.457-0.27734-2.5664-0.82812-3.3281-0.55469-0.76953-1.3555-1.1562-2.4062-1.1562-1.0547 0-1.8594 0.38672-2.4219 1.1562-0.55469 0.77344-0.82812 1.8828-0.82812 3.3281 0 1.4492 0.27344 2.5586 0.82812 3.3281 0.5625 0.77344 1.3672 1.1562 2.4219 1.1562zm-3.25-9.9219c0.67578-0.88281 1.4219-1.5391 2.2344-1.9688 0.82031-0.42578 1.7656-0.64062 2.8281-0.64062 1.8945 0 3.4453 0.75 4.6562 2.25 1.207 1.5 1.8125 3.4336 1.8125 5.7969 0 2.3555-0.60547 4.2812-1.8125 5.7812-1.2109 1.5-2.7617 2.25-4.6562 2.25-1.0625 0-2.0078-0.21094-2.8281-0.625-0.8125-0.42578-1.5586-1.0859-2.2344-1.9844v2.2188h-4.8906v-21.281h4.8906z"/>
    </symbol>
    <symbol id="symbol-57" overflow="visible">
      <path d="m0.34375-15.312h4.8906l4.125 10.391 3.5-10.391h4.8906l-6.4375 16.766c-0.64844 1.6953-1.4023 2.8828-2.2656 3.5625-0.86719 0.6875-2 1.0312-3.4062 1.0312h-2.8438v-3.2188h1.5312c0.83203 0 1.4375-0.13672 1.8125-0.40625 0.38281-0.26172 0.67969-0.73047 0.89062-1.4062l0.14062-0.42188z"/>
    </symbol>
    <symbol id="symbol-58" overflow="visible">
      <path d="m14.953-3.7188h-8.2188l-1.3125 3.7188h-5.2812l7.5625-20.406h6.2656l7.5625 20.406h-5.2812zm-6.9062-3.7812h5.5781l-2.7812-8.125z"/>
    </symbol>
    <symbol id="symbol-59" overflow="visible">
      <path d="m2.3594-21.281h4.8906v21.281h-4.8906z"/>
    </symbol>
    <symbol id="x" overflow="visible">
      <path d="m6.2188-7.8281-5.5156-7.4844h5.1719l3.1406 4.5312 3.1719-4.5312h5.1719l-5.5156 7.4531 5.7969 7.8594h-5.1875l-3.4375-4.8438-3.4062 4.8438h-5.1875z"/>
    </symbol>
    <symbol id="symbol-60" overflow="visible">
      <path d="m17.75-9.3281v9.3281h-4.9219v-7.1406c0-1.3203-0.03125-2.2344-0.09375-2.7344s-0.16797-0.86719-0.3125-1.1094c-0.1875-0.3125-0.44922-0.55469-0.78125-0.73438-0.32422-0.17578-0.69531-0.26562-1.1094-0.26562-1.0234 0-1.8242 0.39844-2.4062 1.1875-0.58594 0.78125-0.875 1.8711-0.875 3.2656v7.5312h-4.8906v-15.312h4.8906v2.2344c0.73828-0.88281 1.5195-1.5391 2.3438-1.9688 0.83203-0.42578 1.75-0.64062 2.75-0.64062 1.7695 0 3.1133 0.54688 4.0312 1.6406 0.91406 1.0859 1.375 2.6562 1.375 4.7188z"/>
    </symbol>
    <symbol id="w" overflow="visible">
      <path d="m16.781-19.766v4.3125c-1.125-0.5-2.2266-0.875-3.2969-1.125-1.0625-0.25781-2.0703-0.39062-3.0156-0.39062-1.25 0-2.1797 0.17969-2.7812 0.53125-0.60547 0.34375-0.90625 0.88281-0.90625 1.6094 0 0.54297 0.20312 0.96875 0.60938 1.2812 0.40625 0.30469 1.1406 0.5625 2.2031 0.78125l2.25 0.45312c2.2695 0.44922 3.8789 1.1406 4.8281 2.0781 0.95703 0.92969 1.4375 2.2461 1.4375 3.9531 0 2.25-0.66797 3.9297-2 5.0312-1.3359 1.0938-3.3711 1.6406-6.1094 1.6406-1.3047 0-2.6055-0.125-3.9062-0.375-1.3047-0.23828-2.6055-0.59766-3.9062-1.0781v-4.4531c1.3008 0.69922 2.5625 1.2266 3.7812 1.5781 1.2188 0.34375 2.3906 0.51562 3.5156 0.51562 1.1562 0 2.0352-0.1875 2.6406-0.5625 0.61328-0.38281 0.92188-0.9375 0.92188-1.6562 0-0.63281-0.21094-1.125-0.625-1.4688-0.41797-0.34375-1.2461-0.65625-2.4844-0.9375l-2.0312-0.4375c-2.043-0.4375-3.5391-1.1328-4.4844-2.0938-0.9375-0.95703-1.4062-2.25-1.4062-3.875 0-2.0312 0.65625-3.5938 1.9688-4.6875s3.1953-1.6406 5.6562-1.6406c1.125 0 2.2734 0.085938 3.4531 0.25 1.1875 0.16797 2.4141 0.42188 3.6875 0.76562z"/>
    </symbol>
    <symbol id="symbol-61" overflow="visible">
      <path d="m2.3594-21.281h4.8906v11.594l5.625-5.625h5.6875l-7.4688 7.0312 8.0625 8.2812h-5.9375l-5.9688-6.3906v6.3906h-4.8906z"/>
    </symbol>
    <symbol id="symbol-62" overflow="visible">
      <path d="m9.6406-12.188c-1.0859 0-1.9141 0.39062-2.4844 1.1719-0.57422 0.78125-0.85938 1.9062-0.85938 3.375s0.28516 2.5938 0.85938 3.375c0.57031 0.77344 1.3984 1.1562 2.4844 1.1562 1.0625 0 1.875-0.38281 2.4375-1.1562 0.57031-0.78125 0.85938-1.9062 0.85938-3.375s-0.28906-2.5938-0.85938-3.375c-0.5625-0.78125-1.375-1.1719-2.4375-1.1719zm0-3.5c2.6328 0 4.6914 0.71484 6.1719 2.1406 1.4766 1.418 2.2188 3.3867 2.2188 5.9062 0 2.5117-0.74219 4.4805-2.2188 5.9062-1.4805 1.418-3.5391 2.125-6.1719 2.125-2.6484 0-4.7148-0.70703-6.2031-2.125-1.4922-1.4258-2.2344-3.3945-2.2344-5.9062 0-2.5195 0.74219-4.4883 2.2344-5.9062 1.4883-1.4258 3.5547-2.1406 6.2031-2.1406z"/>
    </symbol>
    <symbol id="symbol-63" overflow="visible">
      <path d="m0.98438-15.312h4.7656l2.5625 10.547 2.5781-10.547h4.0938l2.5781 10.438 2.5781-10.438h4.75l-4.0312 15.312h-5.3438l-2.5781-10.531-2.5781 10.531h-5.3438z"/>
    </symbol>
    <symbol id="symbol-64" overflow="visible">
      <path d="m14.312-14.828v3.7188c-1.043-0.4375-2.0547-0.76562-3.0312-0.98438-0.98047-0.21875-1.9023-0.32812-2.7656-0.32812-0.92969 0-1.6211 0.11719-2.0781 0.34375-0.44922 0.23047-0.67188 0.58984-0.67188 1.0781 0 0.38672 0.17188 0.68359 0.51562 0.89062 0.34375 0.21094 0.95703 0.36719 1.8438 0.46875l0.85938 0.125c2.5078 0.32422 4.1953 0.85156 5.0625 1.5781 0.86328 0.73047 1.2969 1.8711 1.2969 3.4219 0 1.6367-0.60547 2.8672-1.8125 3.6875-1.1992 0.8125-2.9922 1.2188-5.375 1.2188-1.0234 0-2.0742-0.078125-3.1562-0.23438-1.0742-0.15625-2.1797-0.39453-3.3125-0.71875v-3.7188c0.96875 0.48047 1.9609 0.83984 2.9844 1.0781 1.0312 0.23047 2.0781 0.34375 3.1406 0.34375 0.95703 0 1.6758-0.12891 2.1562-0.39062 0.47656-0.26953 0.71875-0.66406 0.71875-1.1875 0-0.4375-0.16797-0.75781-0.5-0.96875-0.33594-0.21875-0.99609-0.38281-1.9844-0.5l-0.85938-0.10938c-2.1797-0.26953-3.7031-0.77344-4.5781-1.5156-0.875-0.73828-1.3125-1.8594-1.3125-3.3594 0-1.625 0.55078-2.8281 1.6562-3.6094 1.1133-0.78906 2.8203-1.1875 5.125-1.1875 0.89453 0 1.8359 0.074219 2.8281 0.21875 1 0.13672 2.082 0.35156 3.25 0.64062z"/>
    </symbol>
    <symbol id="symbol-65" overflow="visible">
      <path d="m12.422-21.281v3.2188h-2.7031c-0.6875 0-1.1719 0.125-1.4531 0.375-0.27344 0.25-0.40625 0.6875-0.40625 1.3125v1.0625h4.1875v3.5h-4.1875v11.812h-4.8906v-11.812h-2.4375v-3.5h2.4375v-1.0625c0-1.6641 0.46094-2.8984 1.3906-3.7031 0.92578-0.80078 2.3672-1.2031 4.3281-1.2031z"/>
    </symbol>
    <symbol id="symbol-66" overflow="visible">
      <path d="m16.547-12.766c0.61328-0.94531 1.3477-1.6719 2.2031-2.1719 0.85156-0.5 1.7891-0.75 2.8125-0.75 1.7578 0 3.0977 0.54688 4.0156 1.6406 0.92578 1.0859 1.3906 2.6562 1.3906 4.7188v9.3281h-4.9219v-7.9844-0.35938c0.007813-0.13281 0.015625-0.32031 0.015625-0.5625 0-1.082-0.16406-1.8633-0.48438-2.3438-0.3125-0.48828-0.82422-0.73438-1.5312-0.73438-0.92969 0-1.6484 0.38672-2.1562 1.1562-0.51172 0.76172-0.77344 1.8672-0.78125 3.3125v7.5156h-4.9219v-7.9844c0-1.6953-0.14844-2.7852-0.4375-3.2656-0.29297-0.48828-0.8125-0.73438-1.5625-0.73438-0.9375 0-1.6641 0.38672-2.1719 1.1562-0.51172 0.76172-0.76562 1.8594-0.76562 3.2969v7.5312h-4.9219v-15.312h4.9219v2.2344c0.60156-0.86328 1.2891-1.5156 2.0625-1.9531 0.78125-0.4375 1.6406-0.65625 2.5781-0.65625 1.0625 0 2 0.25781 2.8125 0.76562 0.8125 0.51172 1.4258 1.2305 1.8438 2.1562z"/>
    </symbol>
    <symbol id="symbol-67" overflow="visible">
      <path d="m17.75-9.3281v9.3281h-4.9219v-7.1094c0-1.3438-0.03125-2.2656-0.09375-2.7656s-0.16797-0.86719-0.3125-1.1094c-0.1875-0.3125-0.44922-0.55469-0.78125-0.73438-0.32422-0.17578-0.69531-0.26562-1.1094-0.26562-1.0234 0-1.8242 0.39844-2.4062 1.1875-0.58594 0.78125-0.875 1.8711-0.875 3.2656v7.5312h-4.8906v-21.281h4.8906v8.2031c0.73828-0.88281 1.5195-1.5391 2.3438-1.9688 0.83203-0.42578 1.75-0.64062 2.75-0.64062 1.7695 0 3.1133 0.54688 4.0312 1.6406 0.91406 1.0859 1.375 2.6562 1.375 4.7188z"/>
    </symbol>
    <symbol id="symbol-68" overflow="visible">
      <path d="m2.5781-20.406h5.875l7.4219 14v-14h4.9844v20.406h-5.875l-7.4219-14v14h-4.9844z"/>
    </symbol>
    <symbol id="symbol-69" overflow="visible">
      <path d="m2.1875-5.9688v-9.3438h4.9219v1.5312c0 0.83594-0.007813 1.875-0.015625 3.125-0.011719 1.25-0.015625 2.0859-0.015625 2.5 0 1.2422 0.03125 2.1328 0.09375 2.6719 0.070313 0.54297 0.17969 0.93359 0.32812 1.1719 0.20703 0.32422 0.47266 0.57422 0.79688 0.75 0.32031 0.16797 0.69141 0.25 1.1094 0.25 1.0195 0 1.8203-0.39062 2.4062-1.1719 0.58203-0.78125 0.875-1.8672 0.875-3.2656v-7.5625h4.8906v15.312h-4.8906v-2.2188c-0.74219 0.89844-1.5234 1.5586-2.3438 1.9844-0.82422 0.41406-1.7344 0.625-2.7344 0.625-1.7617 0-3.1055-0.53906-4.0312-1.625-0.92969-1.082-1.3906-2.6602-1.3906-4.7344z"/>
    </symbol>
    <symbol id="symbol-70" overflow="visible">
      <path d="m2.5781-20.406h8.7344c2.5938 0 4.582 0.57812 5.9688 1.7344 1.3945 1.1484 2.0938 2.7891 2.0938 4.9219 0 2.1367-0.69922 3.7812-2.0938 4.9375-1.3867 1.1562-3.375 1.7344-5.9688 1.7344h-3.4844v7.0781h-5.25zm5.25 3.8125v5.7031h2.9219c1.0195 0 1.8047-0.25 2.3594-0.75 0.5625-0.5 0.84375-1.2031 0.84375-2.1094 0-0.91406-0.28125-1.6172-0.84375-2.1094-0.55469-0.48828-1.3398-0.73438-2.3594-0.73438z"/>
    </symbol>
    <symbol id="symbol-71" overflow="visible">
      <path d="m2.3594-15.312h4.8906v15.031c0 2.0508-0.49609 3.6172-1.4844 4.7031-0.98047 1.082-2.4062 1.625-4.2812 1.625h-2.4219v-3.2188h0.85938c0.92578 0 1.5625-0.21094 1.9062-0.625 0.35156-0.41797 0.53125-1.2461 0.53125-2.4844zm0-5.9688h4.8906v4h-4.8906z"/>
    </symbol>
    <symbol id="symbol-72" overflow="visible">
      <path d="m14.719-14.828v3.9844c-0.65625-0.45703-1.3242-0.79688-2-1.0156-0.66797-0.21875-1.3594-0.32812-2.0781-0.32812-1.3672 0-2.4336 0.40234-3.2031 1.2031-0.76172 0.79297-1.1406 1.9062-1.1406 3.3438 0 1.4297 0.37891 2.543 1.1406 3.3438 0.76953 0.79297 1.8359 1.1875 3.2031 1.1875 0.75781 0 1.4844-0.10938 2.1719-0.32812 0.6875-0.22656 1.3203-0.56641 1.9062-1.0156v4c-0.76172 0.28125-1.5391 0.48828-2.3281 0.625-0.78125 0.14453-1.5742 0.21875-2.375 0.21875-2.7617 0-4.9219-0.70703-6.4844-2.125-1.5547-1.4141-2.3281-3.3828-2.3281-5.9062 0-2.5312 0.77344-4.5039 2.3281-5.9219 1.5625-1.4141 3.7227-2.125 6.4844-2.125 0.80078 0 1.5938 0.074219 2.375 0.21875 0.78125 0.13672 1.5547 0.35156 2.3281 0.64062z"/>
    </symbol>
    <symbol id="symbol-140" overflow="visible">
      <path d="m20.844-1.25c-1.0742 0.5625-2.1953 0.98438-3.3594 1.2656-1.168 0.28125-2.3828 0.42188-3.6406 0.42188-3.7812 0-6.7773-1.0508-8.9844-3.1562-2.2109-2.1133-3.3125-4.9766-3.3125-8.5938 0-3.625 1.1016-6.4922 3.3125-8.6094 2.207-2.1133 5.2031-3.1719 8.9844-3.1719 1.2578 0 2.4727 0.14844 3.6406 0.4375 1.1641 0.28125 2.2852 0.69922 3.3594 1.25v4.7031c-1.0859-0.73828-2.1523-1.2812-3.2031-1.625-1.0547-0.34375-2.1641-0.51562-3.3281-0.51562-2.0859 0-3.7266 0.66797-4.9219 2-1.1992 1.3359-1.7969 3.1797-1.7969 5.5312 0 2.3359 0.59766 4.1719 1.7969 5.5156 1.1953 1.3359 2.8359 2 4.9219 2 1.1641 0 2.2734-0.17188 3.3281-0.51562 1.0508-0.34375 2.1172-0.88281 3.2031-1.625z"/>
    </symbol>
    <symbol id="symbol-141" overflow="visible">
      <path d="m15.25-12.375c-0.48047-0.22656-0.95312-0.39453-1.4219-0.5-0.46875-0.10156-0.94531-0.15625-1.4219-0.15625-1.3984 0-2.4766 0.44922-3.2344 1.3438-0.75 0.89844-1.125 2.1797-1.125 3.8438v7.8438h-5.4375v-17.016h5.4375v2.7969c0.69531-1.1133 1.5-1.9258 2.4062-2.4375 0.90625-0.50781 1.9922-0.76562 3.2656-0.76562 0.17578 0 0.36719 0.011719 0.57812 0.03125 0.21875 0.011719 0.53125 0.042969 0.9375 0.09375z"/>
    </symbol>
    <symbol id="symbol-142" overflow="visible">
      <path d="m19.594-8.5469v1.5469h-12.719c0.13281 1.2734 0.59766 2.2305 1.3906 2.875 0.78906 0.63672 1.8945 0.95312 3.3125 0.95312 1.1445 0 2.3164-0.16406 3.5156-0.5 1.1953-0.34375 2.4297-0.85938 3.7031-1.5469v4.1875c-1.293 0.49219-2.5859 0.85547-3.875 1.0938-1.2812 0.25-2.5625 0.375-3.8438 0.375-3.0859 0-5.4805-0.78125-7.1875-2.3438-1.6992-1.5625-2.5469-3.7539-2.5469-6.5781 0-2.7812 0.83203-4.9609 2.5-6.5469 1.6758-1.5938 3.9844-2.3906 6.9219-2.3906 2.6758 0 4.8164 0.80859 6.4219 2.4219 1.6016 1.6055 2.4062 3.7578 2.4062 6.4531zm-5.5938-1.8125c0-1.0312-0.30469-1.8633-0.90625-2.5-0.59375-0.63281-1.3828-0.95312-2.3594-0.95312-1.0547 0-1.9062 0.29688-2.5625 0.89062s-1.0703 1.4492-1.2344 2.5625z"/>
    </symbol>
    <symbol id="symbol-143" overflow="visible">
      <path d="m10.234-7.6562c-1.1367 0-1.9922 0.19531-2.5625 0.57812-0.5625 0.38672-0.84375 0.95312-0.84375 1.7031 0 0.6875 0.22656 1.2305 0.6875 1.625 0.45703 0.38672 1.0977 0.57812 1.9219 0.57812 1.0195 0 1.8789-0.36328 2.5781-1.0938 0.69531-0.73828 1.0469-1.6602 1.0469-2.7656v-0.625zm8.3125-2.0469v9.7031h-5.4844v-2.5156c-0.73047 1.0312-1.5547 1.7812-2.4688 2.25-0.90625 0.46875-2.0117 0.70312-3.3125 0.70312-1.7617 0-3.1953-0.50781-4.2969-1.5312-1.0938-1.0312-1.6406-2.3672-1.6406-4.0156 0-1.9883 0.67969-3.4453 2.0469-4.375 1.375-0.9375 3.5312-1.4062 6.4688-1.4062h3.2031v-0.42188c0-0.86328-0.33984-1.4922-1.0156-1.8906-0.67969-0.40625-1.7344-0.60938-3.1719-0.60938-1.168 0-2.2578 0.12109-3.2656 0.35938-1 0.23047-1.9297 0.57812-2.7812 1.0469v-4.1562c1.1641-0.28125 2.332-0.49219 3.5-0.64062 1.1758-0.14453 2.3516-0.21875 3.5312-0.21875 3.0703 0 5.2852 0.60547 6.6406 1.8125 1.3633 1.2109 2.0469 3.1797 2.0469 5.9062z"/>
    </symbol>
    <symbol id="symbol-144" overflow="visible">
      <path d="m8.5469-21.844v4.8281h5.6094v3.8906h-5.6094v7.2188c0 0.79297 0.15625 1.3281 0.46875 1.6094 0.32031 0.27344 0.94531 0.40625 1.875 0.40625h2.7969v3.8906h-4.6719c-2.1484 0-3.668-0.44531-4.5625-1.3438-0.89844-0.89453-1.3438-2.4141-1.3438-4.5625v-7.2188h-2.7031v-3.8906h2.7031v-4.8281z"/>
    </symbol>
    <symbol id="symbol-145" overflow="visible">
      <path d="m14.188-14.516v-9.125h5.4688v23.641h-5.4688v-2.4531c-0.75 1-1.5781 1.7344-2.4844 2.2031-0.89844 0.45703-1.9375 0.6875-3.125 0.6875-2.0938 0-3.8203-0.83203-5.1719-2.5-1.3438-1.6641-2.0156-3.8047-2.0156-6.4219 0-2.625 0.67188-4.7695 2.0156-6.4375 1.3516-1.6641 3.0781-2.5 5.1719-2.5 1.1758 0 2.2188 0.23438 3.125 0.70312s1.7344 1.2031 2.4844 2.2031zm-3.5781 11c1.1562 0 2.0391-0.42188 2.6562-1.2656 0.61328-0.85156 0.92188-2.0859 0.92188-3.7031 0-1.625-0.30859-2.8594-0.92188-3.7031-0.61719-0.85156-1.5-1.2812-2.6562-1.2812s-2.043 0.42969-2.6562 1.2812c-0.61719 0.84375-0.92188 2.0781-0.92188 3.7031 0 1.6172 0.30469 2.8516 0.92188 3.7031 0.61328 0.84375 1.5 1.2656 2.6562 1.2656z"/>
    </symbol>
    <symbol id="symbol-146" overflow="visible">
      <path d="m11.672-3.5156c1.1562 0 2.0391-0.42188 2.6562-1.2656 0.61328-0.85156 0.92188-2.0859 0.92188-3.7031 0-1.625-0.30859-2.8594-0.92188-3.7031-0.61719-0.85156-1.5-1.2812-2.6562-1.2812-1.168 0-2.0625 0.42969-2.6875 1.2812-0.625 0.85547-0.9375 2.0898-0.9375 3.7031 0 1.6055 0.3125 2.8359 0.9375 3.6875 0.625 0.85547 1.5195 1.2812 2.6875 1.2812zm-3.625-11c0.75-1 1.5781-1.7344 2.4844-2.2031 0.91406-0.46875 1.9688-0.70312 3.1562-0.70312 2.0938 0 3.8125 0.83594 5.1562 2.5 1.3516 1.668 2.0312 3.8125 2.0312 6.4375 0 2.6172-0.67969 4.7578-2.0312 6.4219-1.3438 1.668-3.0625 2.5-5.1562 2.5-1.1875 0-2.2422-0.23438-3.1562-0.70312-0.90625-0.46875-1.7344-1.1953-2.4844-2.1875v2.4531h-5.4375v-23.641h5.4375z"/>
    </symbol>
    <symbol id="symbol-147" overflow="visible">
      <path d="m0.375-17.016h5.4375l4.5781 11.547 3.8906-11.547h5.4375l-7.1562 18.625c-0.71875 1.8945-1.5586 3.2188-2.5156 3.9688-0.96094 0.75781-2.2188 1.1406-3.7812 1.1406h-3.1562v-3.5781h1.7031c0.92578 0 1.5977-0.14844 2.0156-0.4375 0.41406-0.29297 0.74219-0.82031 0.98438-1.5781l0.14062-0.46875z"/>
    </symbol>
    <symbol id="symbol-148" overflow="visible">
      <path d="m8.7031-18.266v13.844h2.0938c2.3945 0 4.2227-0.58594 5.4844-1.7656 1.2578-1.1875 1.8906-2.9102 1.8906-5.1719 0-2.25-0.63281-3.9609-1.8906-5.1406-1.25-1.1758-3.0781-1.7656-5.4844-1.7656zm-5.8438-4.4062h6.1562c3.4453 0 6.0156 0.24609 7.7031 0.73438 1.6875 0.49219 3.1289 1.3242 4.3281 2.5 1.0703 1.0234 1.8633 2.1992 2.375 3.5312 0.51953 1.3359 0.78125 2.8516 0.78125 4.5469 0 1.7109-0.26172 3.2344-0.78125 4.5781-0.51172 1.3438-1.3047 2.5273-2.375 3.5469-1.2109 1.1797-2.668 2.0117-4.375 2.5-1.6992 0.49219-4.25 0.73438-7.6562 0.73438h-6.1562z"/>
    </symbol>
    <symbol id="symbol-149" overflow="visible">
      <path d="m19.719-10.359v10.359h-5.4688v-7.9219c0-1.4688-0.039062-2.4766-0.10938-3.0312-0.0625-0.5625-0.17188-0.97656-0.32812-1.25-0.21875-0.35156-0.51172-0.62891-0.875-0.82812-0.36719-0.19531-0.77734-0.29688-1.2344-0.29688-1.1367 0-2.0312 0.44531-2.6875 1.3281-0.64844 0.875-0.96875 2.0859-0.96875 3.625v8.375h-5.4375v-17.016h5.4375v2.5c0.82031-1 1.6914-1.7344 2.6094-2.2031 0.92578-0.46875 1.9453-0.70312 3.0625-0.70312 1.957 0 3.4453 0.60547 4.4688 1.8125 1.0195 1.1992 1.5312 2.9492 1.5312 5.25z"/>
    </symbol>
    <symbol id="symbol-150" overflow="visible">
      <path d="m2.6094-17.016h5.4375v17.016h-5.4375zm0-6.625h5.4375v4.4375h-5.4375z"/>
    </symbol>
    <symbol id="symbol-151" overflow="visible">
      <path d="m2.6094-23.641h5.4375v23.641h-5.4375z"/>
    </symbol>
    <symbol id="symbol-152" overflow="visible">
      <path d="m2.8594-22.672h5.8438v18.25h10.266v4.4219h-16.109z"/>
    </symbol>
    <symbol id="symbol-153" overflow="visible">
      <path d="m18.375-14.188c0.6875-1.0508 1.5039-1.8516 2.4531-2.4062 0.94531-0.55078 1.9883-0.82812 3.125-0.82812 1.957 0 3.4453 0.60547 4.4688 1.8125 1.0195 1.1992 1.5312 2.9492 1.5312 5.25v10.359h-5.4688v-8.875c0.007813-0.125 0.015625-0.25781 0.015625-0.40625 0.007812-0.14453 0.015625-0.34766 0.015625-0.60938 0-1.207-0.17969-2.082-0.53125-2.625-0.35547-0.53906-0.92969-0.8125-1.7188-0.8125-1.0312 0-1.8281 0.42969-2.3906 1.2812-0.5625 0.85547-0.85547 2.0859-0.875 3.6875v8.3594h-5.4688v-8.875c0-1.8828-0.16406-3.0977-0.48438-3.6406-0.32422-0.53906-0.90234-0.8125-1.7344-0.8125-1.043 0-1.8516 0.43359-2.4219 1.2969-0.5625 0.85547-0.84375 2.0742-0.84375 3.6562v8.375h-5.4688v-17.016h5.4688v2.5c0.66406-0.96875 1.4297-1.6914 2.2969-2.1719 0.875-0.48828 1.832-0.73438 2.875-0.73438 1.1758 0 2.2109 0.28906 3.1094 0.85938 0.90625 0.5625 1.5859 1.3555 2.0469 2.375z"/>
    </symbol>
    <symbol id="symbol-154" overflow="visible">
      <path d="m15.906-16.484v4.1406c-1.168-0.48828-2.293-0.85156-3.375-1.0938-1.0859-0.25-2.1055-0.375-3.0625-0.375-1.043 0-1.8125 0.13281-2.3125 0.39062-0.5 0.26172-0.75 0.65625-0.75 1.1875 0 0.4375 0.1875 0.77734 0.5625 1.0156 0.38281 0.23047 1.0664 0.40234 2.0469 0.51562l0.96875 0.125c2.7812 0.35547 4.6484 0.9375 5.6094 1.75 0.96875 0.8125 1.4531 2.0859 1.4531 3.8125 0 1.8125-0.67188 3.1797-2.0156 4.0938-1.3359 0.90625-3.3281 1.3594-5.9844 1.3594-1.1172 0-2.2773-0.089844-3.4844-0.26562-1.1992-0.17578-2.4297-0.44141-3.6875-0.79688v-4.125c1.082 0.52344 2.1914 0.91797 3.3281 1.1875 1.1328 0.26172 2.2891 0.39062 3.4688 0.39062 1.0625 0 1.8594-0.14453 2.3906-0.4375 0.53906-0.30078 0.8125-0.73828 0.8125-1.3125 0-0.48828-0.1875-0.84766-0.5625-1.0781-0.36719-0.23828-1.1016-0.42578-2.2031-0.5625l-0.95312-0.125c-2.418-0.30078-4.1172-0.85938-5.0938-1.6719-0.96875-0.82031-1.4531-2.0703-1.4531-3.75 0-1.8008 0.61328-3.1328 1.8438-4 1.2383-0.875 3.1328-1.3125 5.6875-1.3125 1 0 2.0508 0.078125 3.1562 0.23438 1.1016 0.14844 2.3047 0.38281 3.6094 0.70312z"/>
    </symbol>
    <symbol id="symbol-155" overflow="visible">
      <path d="m18.641-21.969v4.7969c-1.25-0.55078-2.4688-0.96875-3.6562-1.25-1.1797-0.28125-2.293-0.42188-3.3438-0.42188-1.3984 0-2.4336 0.19531-3.1094 0.57812-0.66797 0.375-1 0.96875-1 1.7812 0 0.61719 0.22266 1.0938 0.67188 1.4375 0.45703 0.33594 1.2734 0.62109 2.4531 0.85938l2.5 0.5c2.5195 0.51172 4.3125 1.2812 5.375 2.3125s1.5938 2.5 1.5938 4.4062c0 2.5-0.74609 4.3594-2.2344 5.5781-1.4805 1.2188-3.7422 1.8281-6.7812 1.8281-1.4375 0-2.8828-0.13672-4.3281-0.40625-1.4492-0.26953-2.8984-0.67578-4.3438-1.2188v-4.9375c1.4453 0.77344 2.8438 1.3555 4.1875 1.75 1.3516 0.38672 2.6602 0.57812 3.9219 0.57812 1.2695 0 2.2422-0.21094 2.9219-0.64062 0.67578-0.42578 1.0156-1.0352 1.0156-1.8281 0-0.70703-0.23047-1.25-0.6875-1.625-0.46094-0.38281-1.375-0.73438-2.75-1.0469l-2.2656-0.5c-2.2734-0.47656-3.9336-1.25-4.9844-2.3125-1.043-1.0703-1.5625-2.5078-1.5625-4.3125 0-2.25 0.72656-3.9844 2.1875-5.2031 1.457-1.2188 3.5508-1.8281 6.2812-1.8281 1.25 0 2.5312 0.09375 3.8438 0.28125 1.3203 0.1875 2.6875 0.46875 4.0938 0.84375z"/>
    </symbol>
    <symbol id="symbol-156" overflow="visible">
      <path d="m10.703-13.531c-1.1992 0-2.1172 0.43359-2.75 1.2969-0.63672 0.86719-0.95312 2.1172-0.95312 3.75 0 1.625 0.31641 2.8711 0.95312 3.7344 0.63281 0.86719 1.5508 1.2969 2.75 1.2969 1.1875 0 2.0938-0.42969 2.7188-1.2969 0.63281-0.86328 0.95312-2.1094 0.95312-3.7344 0-1.6328-0.32031-2.8828-0.95312-3.75-0.625-0.86328-1.5312-1.2969-2.7188-1.2969zm0-3.8906c2.9258 0 5.2109 0.79297 6.8594 2.375 1.6445 1.5742 2.4688 3.7617 2.4688 6.5625 0 2.793-0.82422 4.9805-2.4688 6.5625-1.6484 1.5742-3.9336 2.3594-6.8594 2.3594-2.9375 0-5.2344-0.78516-6.8906-2.3594-1.6484-1.582-2.4688-3.7695-2.4688-6.5625 0-2.8008 0.82031-4.9883 2.4688-6.5625 1.6562-1.582 3.9531-2.375 6.8906-2.375z"/>
    </symbol>
    <symbol id="symbol-157" overflow="visible">
      <path d="m13.812-23.641v3.5781h-3.0156c-0.77344 0-1.3086 0.14062-1.6094 0.42188-0.30469 0.27344-0.45312 0.75-0.45312 1.4375v1.1875h4.6406v3.8906h-4.6406v13.125h-5.4375v-13.125h-2.7031v-3.8906h2.7031v-1.1875c0-1.8516 0.51562-3.2227 1.5469-4.1094 1.0312-0.88281 2.6289-1.3281 4.7969-1.3281z"/>
    </symbol>
    <symbol id="symbol-158" overflow="visible">
      <path d="m19.719-10.359v10.359h-5.4688v-7.9062c0-1.4766-0.039062-2.4922-0.10938-3.0469-0.0625-0.5625-0.17188-0.97656-0.32812-1.25-0.21875-0.35156-0.51172-0.62891-0.875-0.82812-0.36719-0.19531-0.77734-0.29688-1.2344-0.29688-1.1367 0-2.0312 0.44531-2.6875 1.3281-0.64844 0.875-0.96875 2.0859-0.96875 3.625v8.375h-5.4375v-23.641h5.4375v9.125c0.82031-1 1.6914-1.7344 2.6094-2.2031 0.92578-0.46875 1.9453-0.70312 3.0625-0.70312 1.957 0 3.4453 0.60547 4.4688 1.8125 1.0195 1.1992 1.5312 2.9492 1.5312 5.25z"/>
    </symbol>
    <symbol id="symbol-159" overflow="visible">
      <path d="m2.8594-22.672h6.5312l8.25 15.547v-15.547h5.5469v22.672h-6.5469l-8.2344-15.562v15.562h-5.5469z"/>
    </symbol>
    <symbol id="symbol-160" overflow="visible">
      <path d="m2.4375-6.625v-10.391h5.4688v1.7031c0 0.92969-0.007812 2.0898-0.015625 3.4844-0.011719 1.3867-0.015625 2.3125-0.015625 2.7812 0 1.3672 0.03125 2.3516 0.09375 2.9531 0.070312 0.60547 0.19531 1.043 0.375 1.3125 0.21875 0.35547 0.50391 0.63281 0.85938 0.82812 0.36328 0.1875 0.78125 0.28125 1.25 0.28125 1.1328 0 2.0234-0.42969 2.6719-1.2969 0.64453-0.875 0.96875-2.0859 0.96875-3.6406v-8.4062h5.4375v17.016h-5.4375v-2.4531c-0.82422 0.99219-1.6953 1.7188-2.6094 2.1875-0.91797 0.46875-1.9297 0.70312-3.0312 0.70312-1.9609 0-3.4531-0.59766-4.4844-1.7969-1.0234-1.207-1.5312-2.9609-1.5312-5.2656z"/>
    </symbol>
    <symbol id="symbol-161" overflow="visible">
      <path d="m2.8594-22.672h9.7031c2.8828 0 5.0977 0.64062 6.6406 1.9219 1.5508 1.2812 2.3281 3.1055 2.3281 5.4688 0 2.375-0.77734 4.2031-2.3281 5.4844-1.543 1.2812-3.7578 1.9219-6.6406 1.9219h-3.8594v7.875h-5.8438zm5.8438 4.2344v6.3281h3.2344c1.1328 0 2.0078-0.27344 2.625-0.82812 0.625-0.55078 0.9375-1.332 0.9375-2.3438 0-1.0078-0.3125-1.7852-0.9375-2.3281-0.61719-0.55078-1.4922-0.82812-2.625-0.82812z"/>
    </symbol>
    <symbol id="symbol-162" overflow="visible">
      <path d="m2.6094-17.016h5.4375v16.719c0 2.2695-0.54688 4.0039-1.6406 5.2031-1.0938 1.207-2.6797 1.8125-4.75 1.8125h-2.6875v-3.5781h0.9375c1.0312 0 1.7383-0.23438 2.125-0.70312 0.38281-0.46094 0.57812-1.3711 0.57812-2.7344zm0-6.625h5.4375v4.4375h-5.4375z"/>
    </symbol>
    <symbol id="symbol-163" overflow="visible">
      <path d="m16.359-16.484v4.4375c-0.74219-0.50781-1.4844-0.88281-2.2344-1.125-0.74219-0.23828-1.5117-0.35938-2.3125-0.35938-1.5117 0-2.6953 0.44531-3.5469 1.3281-0.84375 0.88672-1.2656 2.125-1.2656 3.7188 0 1.5859 0.42188 2.8203 1.2656 3.7031 0.85156 0.88672 2.0352 1.3281 3.5469 1.3281 0.85156 0 1.6602-0.125 2.4219-0.375 0.76953-0.25 1.4766-0.625 2.125-1.125v4.4531c-0.85547 0.3125-1.7188 0.54688-2.5938 0.70312s-1.75 0.23438-2.625 0.23438c-3.0742 0-5.4766-0.78516-7.2031-2.3594-1.7305-1.5703-2.5938-3.7578-2.5938-6.5625 0-2.8125 0.86328-5.0039 2.5938-6.5781 1.7266-1.5703 4.1289-2.3594 7.2031-2.3594 0.88281 0 1.7578 0.078125 2.625 0.23438 0.86328 0.15625 1.7266 0.39062 2.5938 0.70312z"/>
    </symbol>
  </defs>
  <g transform="matrix(1, 0, 0, 1.513477, -23.671616, -213.069473)" style="">
    <use transform="matrix(1, 0, 0, 1, 70, 644)" xlink:href="#y"/>
    <use transform="matrix(1, 0, 0, 1, 90.55078125, 644)" xlink:href="#symbol-51"/>
    <use transform="matrix(1, 0, 0, 1, 104.359375, 644)" xlink:href="#symbol-52"/>
    <use transform="matrix(1, 0, 0, 1, 123.34765625, 644)" xlink:href="#symbol-53"/>
    <use transform="matrix(1, 0, 0, 1, 142.2421875, 644)" xlink:href="#symbol-54"/>
    <use transform="matrix(1, 0, 0, 1, 155.62890625, 644)" xlink:href="#symbol-52"/>
    <use transform="matrix(1, 0, 0, 1, 174.6171875, 644)" xlink:href="#symbol-55"/>
    <use transform="matrix(1, 0, 0, 1, 204.41015625, 644)" xlink:href="#symbol-56"/>
    <use transform="matrix(1, 0, 0, 1, 224.453125, 644)" xlink:href="#symbol-57"/>
    <use transform="matrix(1, 0, 0, 1, 252.453125, 644)" xlink:href="#symbol-58"/>
    <use transform="matrix(1, 0, 0, 1, 274.12109375, 644)" xlink:href="#symbol-59"/>
    <use transform="matrix(1, 0, 0, 1, 283.71875, 644)" xlink:href="#symbol-52"/>
    <use transform="matrix(1, 0, 0, 1, 302.7109375, 644)" xlink:href="#x"/>
    <use transform="matrix(1, 0, 0, 1, 320.76953125, 644)" xlink:href="#symbol-53"/>
    <use transform="matrix(1, 0, 0, 1, 339.6640625, 644)" xlink:href="#symbol-60"/>
    <use transform="matrix(1, 0, 0, 1, 359.59765625, 644)" xlink:href="#symbol-55"/>
    <use transform="matrix(1, 0, 0, 1, 379.640625, 644)" xlink:href="#symbol-52"/>
    <use transform="matrix(1, 0, 0, 1, 398.6328125, 644)" xlink:href="#symbol-51"/>
    <use transform="matrix(1, 0, 0, 1, 422.1875, 644)" xlink:href="#w"/>
    <use transform="matrix(1, 0, 0, 1, 442.3515625, 644)" xlink:href="#symbol-61"/>
    <use transform="matrix(1, 0, 0, 1, 460.9765625, 644)" xlink:href="#symbol-62"/>
    <use transform="matrix(1, 0, 0, 1, 480.2109375, 644)" xlink:href="#symbol-63"/>
    <use transform="matrix(1, 0, 0, 1, 506.078125, 644)" xlink:href="#symbol-53"/>
    <use transform="matrix(1, 0, 0, 1, 524.97265625, 644)" xlink:href="#symbol-59"/>
    <use transform="matrix(1, 0, 0, 1, 534.5703125, 644)" xlink:href="#symbol-64"/>
    <use transform="matrix(1, 0, 0, 1, 551.234375, 644)" xlink:href="#symbol-61"/>
    <use transform="matrix(1, 0, 0, 1, 569.859375, 644)" xlink:href="#symbol-57"/>
    <use transform="matrix(1, 0, 0, 1, 70, 672)" xlink:href="#symbol-65"/>
    <use transform="matrix(1, 0, 0, 1, 82.18359375, 672)" xlink:href="#symbol-51"/>
    <use transform="matrix(1, 0, 0, 1, 95.9921875, 672)" xlink:href="#symbol-62"/>
    <use transform="matrix(1, 0, 0, 1, 115.2265625, 672)" xlink:href="#symbol-66"/>
    <use transform="matrix(1, 0, 0, 1, 154.15234375, 672)" xlink:href="#symbol-54"/>
    <use transform="matrix(1, 0, 0, 1, 167.53515625, 672)" xlink:href="#symbol-67"/>
    <use transform="matrix(1, 0, 0, 1, 187.46875, 672)" xlink:href="#symbol-52"/>
    <use transform="matrix(1, 0, 0, 1, 216.20703125, 672)" xlink:href="#symbol-68"/>
    <use transform="matrix(1, 0, 0, 1, 239.640625, 672)" xlink:href="#symbol-62"/>
    <use transform="matrix(1, 0, 0, 1, 258.87890625, 672)" xlink:href="#symbol-69"/>
    <use transform="matrix(1, 0, 0, 1, 278.8125, 672)" xlink:href="#symbol-60"/>
    <use transform="matrix(1, 0, 0, 1, 308.4921875, 672)" xlink:href="#symbol-70"/>
    <use transform="matrix(1, 0, 0, 1, 329.015625, 672)" xlink:href="#symbol-51"/>
    <use transform="matrix(1, 0, 0, 1, 342.8203125, 672)" xlink:href="#symbol-62"/>
    <use transform="matrix(1, 0, 0, 1, 362.05859375, 672)" xlink:href="#symbol-71"/>
    <use transform="matrix(1, 0, 0, 1, 371.65625, 672)" xlink:href="#symbol-52"/>
    <use transform="matrix(1, 0, 0, 1, 390.6484375, 672)" xlink:href="#symbol-72"/>
    <use transform="matrix(1, 0, 0, 1, 407.2421875, 672)" xlink:href="#symbol-54"/>
    <g transform="matrix(1.079577, 0, 0, 0.714551, -42.536667, 78.690567)" style="">
      <path d="m310.92 119.97c-81.379 0-147.59 71.004-147.59 158.28 0 87.273 66.203 158.28 147.59 158.28 97.809 0 97.809-102.96 97.809-158.28 0-55.32 0-158.28-97.809-158.28zm-122.7 158.28c0-72.047 52.844-130.79 118.59-133.17v266.33c-65.746-2.3828-118.59-61.121-118.59-133.16zm143.48 131.18v-262.37c38.051 8.9727 52.129 46.637 52.129 131.18 0.007813 84.555-14.078 122.21-52.129 131.19z"/>
      <path d="m524.22 182.9h-90.746c-6.8711 0-12.445-5.5742-12.445-12.445 0-6.8711 5.5742-12.445 12.445-12.445h90.746c6.8711 0 12.445 5.5742 12.445 12.445 0 6.8711-5.5781 12.445-12.445 12.445z"/>
      <path d="m524.22 401.99h-93.465c-6.8711 0-12.445-5.5742-12.445-12.445 0-6.8711 5.5742-12.445 12.445-12.445h93.465c6.8711 0 12.445 5.5742 12.445 12.445 0 6.8672-5.5781 12.445-12.445 12.445z"/>
      <path d="m524.22 347.22h-78.688c-6.8711 0-12.445-5.5742-12.445-12.445 0-6.8711 5.5742-12.445 12.445-12.445h78.688c6.8711 0 12.445 5.5742 12.445 12.445 0 6.8711-5.5781 12.445-12.445 12.445z"/>
      <path d="m524.22 292.45h-76.297c-6.8711 0-12.445-5.5742-12.445-12.445s5.5742-12.445 12.445-12.445h76.297c6.8711 0 12.445 5.5742 12.445 12.445s-5.5781 12.445-12.445 12.445z"/>
      <path d="m524.22 237.67h-78.301c-6.8711 0-12.445-5.5742-12.445-12.445 0-6.8711 5.5742-12.445 12.445-12.445h78.301c6.8711 0 12.445 5.5742 12.445 12.445 0 6.8672-5.5781 12.445-12.445 12.445z"/>
      <use transform="matrix(1, 0, 0, 1, 70, 653.33203125)" xlink:href="#symbol-140"/>
      <use transform="matrix(1, 0, 0, 1, 92.83203125, 653.33203125)" xlink:href="#symbol-141"/>
      <use transform="matrix(1, 0, 0, 1, 108.17578125, 653.33203125)" xlink:href="#symbol-142"/>
      <use transform="matrix(1, 0, 0, 1, 129.2734375, 653.33203125)" xlink:href="#symbol-143"/>
      <use transform="matrix(1, 0, 0, 1, 150.26953125, 653.33203125)" xlink:href="#symbol-144"/>
      <use transform="matrix(1, 0, 0, 1, 165.140625, 653.33203125)" xlink:href="#symbol-142"/>
      <use transform="matrix(1, 0, 0, 1, 186.2421875, 653.33203125)" xlink:href="#symbol-145"/>
      <use transform="matrix(1, 0, 0, 1, 219.34375, 653.33203125)" xlink:href="#symbol-146"/>
      <use transform="matrix(1, 0, 0, 1, 241.61328125, 653.33203125)" xlink:href="#symbol-147"/>
      <use transform="matrix(1, 0, 0, 1, 272.72265625, 653.33203125)" xlink:href="#symbol-148"/>
      <use transform="matrix(1, 0, 0, 1, 298.546875, 653.33203125)" xlink:href="#symbol-143"/>
      <use transform="matrix(1, 0, 0, 1, 319.54296875, 653.33203125)" xlink:href="#symbol-149"/>
      <use transform="matrix(1, 0, 0, 1, 341.69140625, 653.33203125)" xlink:href="#symbol-150"/>
      <use transform="matrix(1, 0, 0, 1, 352.35546875, 653.33203125)" xlink:href="#symbol-142"/>
      <use transform="matrix(1, 0, 0, 1, 373.453125, 653.33203125)" xlink:href="#symbol-151"/>
      <use transform="matrix(1, 0, 0, 1, 394.94921875, 653.33203125)" xlink:href="#symbol-152"/>
      <use transform="matrix(1, 0, 0, 1, 414.7734375, 653.33203125)" xlink:href="#symbol-151"/>
      <use transform="matrix(1, 0, 0, 1, 425.4375, 653.33203125)" xlink:href="#symbol-143"/>
      <use transform="matrix(1, 0, 0, 1, 446.43359375, 653.33203125)" xlink:href="#symbol-153"/>
      <use transform="matrix(1, 0, 0, 1, 478.8515625, 653.33203125)" xlink:href="#symbol-143"/>
      <use transform="matrix(1, 0, 0, 1, 499.84375, 653.33203125)" xlink:href="#symbol-154"/>
      <use transform="matrix(1, 0, 0, 1, 529.19140625, 653.33203125)" xlink:href="#symbol-155"/>
      <use transform="matrix(1, 0, 0, 1, 551.59765625, 653.33203125)" xlink:href="#symbol-156"/>
      <use transform="matrix(1, 0, 0, 1, 572.97265625, 653.33203125)" xlink:href="#symbol-144"/>
      <use transform="matrix(1, 0, 0, 1, 587.84375, 653.33203125)" xlink:href="#symbol-156"/>
      <use transform="matrix(1, 0, 0, 1, 70, 684.4453125)" xlink:href="#symbol-157"/>
      <use transform="matrix(1, 0, 0, 1, 83.53515625, 684.4453125)" xlink:href="#symbol-141"/>
      <use transform="matrix(1, 0, 0, 1, 98.87890625, 684.4453125)" xlink:href="#symbol-156"/>
      <use transform="matrix(1, 0, 0, 1, 120.25, 684.4453125)" xlink:href="#symbol-153"/>
      <use transform="matrix(1, 0, 0, 1, 163.5, 684.4453125)" xlink:href="#symbol-144"/>
      <use transform="matrix(1, 0, 0, 1, 178.37109375, 684.4453125)" xlink:href="#symbol-158"/>
      <use transform="matrix(1, 0, 0, 1, 200.51953125, 684.4453125)" xlink:href="#symbol-142"/>
      <use transform="matrix(1, 0, 0, 1, 232.453125, 684.4453125)" xlink:href="#symbol-159"/>
      <use transform="matrix(1, 0, 0, 1, 258.48828125, 684.4453125)" xlink:href="#symbol-156"/>
      <use transform="matrix(1, 0, 0, 1, 279.86328125, 684.4453125)" xlink:href="#symbol-160"/>
      <use transform="matrix(1, 0, 0, 1, 302.01171875, 684.4453125)" xlink:href="#symbol-149"/>
      <use transform="matrix(1, 0, 0, 1, 334.9921875, 684.4453125)" xlink:href="#symbol-161"/>
      <use transform="matrix(1, 0, 0, 1, 357.79296875, 684.4453125)" xlink:href="#symbol-141"/>
      <use transform="matrix(1, 0, 0, 1, 373.13671875, 684.4453125)" xlink:href="#symbol-156"/>
      <use transform="matrix(1, 0, 0, 1, 394.5078125, 684.4453125)" xlink:href="#symbol-162"/>
      <use transform="matrix(1, 0, 0, 1, 405.171875, 684.4453125)" xlink:href="#symbol-142"/>
      <use transform="matrix(1, 0, 0, 1, 426.2734375, 684.4453125)" xlink:href="#symbol-163"/>
      <use transform="matrix(1, 0, 0, 1, 444.71484375, 684.4453125)" xlink:href="#symbol-144"/>
    </g>
  </g>
</svg>