<?xml version="1.0" encoding="utf-8"?>
<svg viewBox="0 0 700 700" xmlns="http://www.w3.org/2000/svg" xmlns:xlink="http://www.w3.org/1999/xlink">
  <defs>
    <symbol id="w" overflow="visible">
      <path d="m20.438-1.2188c-1.0547 0.54297-2.1523 0.95312-3.2969 1.2344-1.1367 0.28125-2.3242 0.42188-3.5625 0.42188-3.7109 0-6.6484-1.0352-8.8125-3.1094-2.168-2.0703-3.25-4.8789-3.25-8.4219 0-3.5625 1.082-6.375 3.25-8.4375 2.1641-2.0703 5.1016-3.1094 8.8125-3.1094 1.2383 0 2.4258 0.14062 3.5625 0.42188 1.1445 0.27344 2.2422 0.67969 3.2969 1.2188v4.6094c-1.0625-0.72656-2.1094-1.2578-3.1406-1.5938-1.0312-0.33203-2.1211-0.5-3.2656-0.5-2.043 0-3.6523 0.65625-4.8281 1.9688-1.168 1.3047-1.75 3.1094-1.75 5.4219 0 2.293 0.58203 4.0938 1.75 5.4062 1.1758 1.3125 2.7852 1.9688 4.8281 1.9688 1.1445 0 2.2344-0.16406 3.2656-0.5 1.0312-0.34375 2.0781-0.87891 3.1406-1.6094z"/>
    </symbol>
    <symbol id="b" overflow="visible">
      <path d="m14.953-12.141c-0.46094-0.21875-0.92188-0.37891-1.3906-0.48438-0.46094-0.10156-0.92188-0.15625-1.3906-0.15625-1.3672 0-2.4219 0.44531-3.1719 1.3281-0.74219 0.875-1.1094 2.1328-1.1094 3.7656v7.6875h-5.3281v-16.688h5.3281v2.7344c0.6875-1.082 1.4727-1.875 2.3594-2.375 0.89453-0.50781 1.9609-0.76562 3.2031-0.76562 0.17578 0 0.36719 0.011719 0.57812 0.03125 0.20703 0.011719 0.50781 0.042969 0.90625 0.09375z"/>
    </symbol>
    <symbol id="a" overflow="visible">
      <path d="m19.219-8.3906v1.5156h-12.469c0.125 1.2617 0.57031 2.2031 1.3438 2.8281 0.78125 0.625 1.8672 0.9375 3.2656 0.9375 1.1133 0 2.2578-0.16406 3.4375-0.5 1.1758-0.33203 2.3906-0.83594 3.6406-1.5156v4.1094c-1.2617 0.48047-2.5273 0.83984-3.7969 1.0781-1.2617 0.25-2.5234 0.375-3.7812 0.375-3.0234 0-5.3711-0.76562-7.0469-2.2969-1.668-1.5391-2.5-3.6953-2.5-6.4688 0-2.7188 0.82031-4.8594 2.4688-6.4219 1.6445-1.5625 3.9062-2.3438 6.7812-2.3438 2.625 0 4.7227 0.79297 6.2969 2.375 1.5703 1.5742 2.3594 3.6836 2.3594 6.3281zm-5.4844-1.7656c0-1.0195-0.29688-1.8359-0.89062-2.4531-0.58594-0.625-1.3555-0.9375-2.3125-0.9375-1.0312 0-1.8711 0.29297-2.5156 0.875-0.64844 0.58594-1.0469 1.4219-1.2031 2.5156z"/>
    </symbol>
    <symbol id="j" overflow="visible">
      <path d="m10.047-7.5156c-1.1172 0-1.9531 0.19531-2.5156 0.57812-0.5625 0.375-0.84375 0.92969-0.84375 1.6562 0 0.67969 0.22266 1.2109 0.67188 1.5938 0.45703 0.38672 1.0859 0.57812 1.8906 0.57812 1.0078 0 1.8516-0.35938 2.5312-1.0781 0.6875-0.72656 1.0312-1.6328 1.0312-2.7188v-0.60938zm8.1406-2v9.5156h-5.375v-2.4688c-0.71875 1.0117-1.5273 1.75-2.4219 2.2188-0.88672 0.45703-1.9688 0.6875-3.25 0.6875-1.7305 0-3.1367-0.50391-4.2188-1.5156-1.0742-1.0078-1.6094-2.3164-1.6094-3.9219 0-1.957 0.67188-3.3945 2.0156-4.3125 1.3438-0.91406 3.457-1.375 6.3438-1.375h3.1406v-0.40625c0-0.84375-0.33594-1.4609-1-1.8594-0.66797-0.39453-1.7031-0.59375-3.1094-0.59375-1.1484 0-2.2148 0.11719-3.2031 0.34375-0.98047 0.23047-1.8906 0.57422-2.7344 1.0312v-4.0625c1.1445-0.28125 2.2891-0.49219 3.4375-0.64062 1.1562-0.14453 2.3125-0.21875 3.4688-0.21875 3.0078 0 5.1797 0.59375 6.5156 1.7812 1.332 1.1875 2 3.1211 2 5.7969z"/>
    </symbol>
    <symbol id="c" overflow="visible">
      <path d="m8.3906-21.422v4.7344h5.5v3.8125h-5.5v7.0781c0 0.77344 0.14844 1.2969 0.45312 1.5781 0.3125 0.27344 0.92578 0.40625 1.8438 0.40625h2.7344v3.8125h-4.5781c-2.1055 0-3.6016-0.4375-4.4844-1.3125-0.875-0.88281-1.3125-2.3789-1.3125-4.4844v-7.0781h-2.6406v-3.8125h2.6406v-4.7344z"/>
    </symbol>
    <symbol id="i" overflow="visible">
      <path d="m13.922-14.25v-8.9375h5.3594v23.188h-5.3594v-2.4062c-0.74219 0.98047-1.5547 1.6992-2.4375 2.1562-0.88672 0.45703-1.9062 0.6875-3.0625 0.6875-2.0625 0-3.7578-0.81641-5.0781-2.4531-1.3125-1.6328-1.9688-3.7383-1.9688-6.3125 0-2.5703 0.65625-4.6758 1.9688-6.3125 1.3203-1.6328 3.0156-2.4531 5.0781-2.4531 1.1445 0 2.1602 0.23438 3.0469 0.70312 0.89453 0.46094 1.7109 1.1719 2.4531 2.1406zm-3.5156 10.812c1.1328 0 2.0039-0.41406 2.6094-1.25 0.60156-0.83203 0.90625-2.0469 0.90625-3.6406s-0.30469-2.8047-0.90625-3.6406c-0.60547-0.83203-1.4766-1.25-2.6094-1.25-1.1367 0-2.0078 0.41797-2.6094 1.25-0.59375 0.83594-0.89062 2.0469-0.89062 3.6406s0.29688 2.8086 0.89062 3.6406c0.60156 0.83594 1.4727 1.25 2.6094 1.25z"/>
    </symbol>
    <symbol id="h" overflow="visible">
      <path d="m11.438-3.4375c1.1445 0 2.0156-0.41406 2.6094-1.25 0.60156-0.83203 0.90625-2.0469 0.90625-3.6406s-0.30469-2.8047-0.90625-3.6406c-0.59375-0.83203-1.4648-1.25-2.6094-1.25-1.1367 0-2.0117 0.42188-2.625 1.2656-0.61719 0.83594-0.92188 2.043-0.92188 3.625 0 1.5859 0.30469 2.7969 0.92188 3.6406 0.61328 0.83594 1.4883 1.25 2.625 1.25zm-3.5469-10.812c0.73828-0.96875 1.5547-1.6797 2.4531-2.1406 0.89453-0.46875 1.9219-0.70312 3.0781-0.70312 2.0625 0 3.75 0.82031 5.0625 2.4531 1.3203 1.6367 1.9844 3.7422 1.9844 6.3125 0 2.5742-0.66406 4.6797-1.9844 6.3125-1.3125 1.6367-3 2.4531-5.0625 2.4531-1.1562 0-2.1836-0.23047-3.0781-0.6875-0.89844-0.46875-1.7148-1.1875-2.4531-2.1562v2.4062h-5.3281v-23.188h5.3281z"/>
    </symbol>
    <symbol id="f" overflow="visible">
      <path d="m0.375-16.688h5.3281l4.4844 11.328 3.8125-11.328h5.3438l-7.0156 18.266c-0.71094 1.8516-1.5312 3.1484-2.4688 3.8906-0.9375 0.73828-2.1797 1.1094-3.7188 1.1094h-3.0938v-3.5h1.6719c0.90625 0 1.5625-0.14844 1.9688-0.4375 0.41406-0.28125 0.73828-0.79297 0.96875-1.5312l0.15625-0.46875z"/>
    </symbol>
    <symbol id="e" overflow="visible">
      <path d="m2.7969-22.25h5.7344v20.094c0 2.7695-0.75781 4.8359-2.2656 6.2031-1.5 1.375-3.7734 2.0625-6.8125 2.0625h-1.1719v-4.3438h0.90625c1.1875 0 2.082-0.33594 2.6875-1 0.61328-0.65625 0.92188-1.6289 0.92188-2.9219z"/>
    </symbol>
    <symbol id="g" overflow="visible">
      <path d="m18.031-13.922c0.67578-1.0312 1.4766-1.8164 2.4062-2.3594 0.92578-0.53906 1.9453-0.8125 3.0625-0.8125 1.9141 0 3.375 0.59375 4.375 1.7812 1.0078 1.1797 1.5156 2.8984 1.5156 5.1562v10.156h-5.375v-8.7031c0.007813-0.125 0.015625-0.25391 0.015625-0.39062 0.007812-0.14453 0.015625-0.34766 0.015625-0.60938 0-1.1758-0.17969-2.0312-0.53125-2.5625-0.34375-0.53125-0.90234-0.79688-1.6719-0.79688-1.0117 0-1.793 0.41797-2.3438 1.25-0.55469 0.83594-0.83984 2.043-0.85938 3.625v8.1875h-5.3594v-8.7031c0-1.8438-0.16406-3.0312-0.48438-3.5625-0.3125-0.53125-0.88281-0.79688-1.7031-0.79688-1.0234 0-1.8125 0.42188-2.375 1.2656-0.55469 0.83594-0.82812 2.0312-0.82812 3.5938v8.2031h-5.3594v-16.688h5.3594v2.4375c0.65625-0.9375 1.4062-1.6445 2.25-2.125 0.85156-0.47656 1.7969-0.71875 2.8281-0.71875 1.1445 0 2.1602 0.28125 3.0469 0.84375 0.88281 0.55469 1.5547 1.3281 2.0156 2.3281z"/>
    </symbol>
    <symbol id="v" overflow="visible">
      <path d="m11.719-13.641c0.89453 0 1.5781-0.19531 2.0469-0.59375 0.46875-0.39453 0.70312-0.97656 0.70312-1.75 0-0.76953-0.23438-1.3516-0.70312-1.75-0.46875-0.40625-1.1523-0.60938-2.0469-0.60938h-3.1875v4.7031zm0.1875 9.7344c1.1562 0 2.0195-0.23828 2.5938-0.71875 0.58203-0.48828 0.875-1.2266 0.875-2.2188 0-0.95703-0.28906-1.6758-0.85938-2.1562-0.57422-0.48828-1.4453-0.73438-2.6094-0.73438h-3.375v5.8281zm5.3281-8c1.2383 0.35547 2.1914 1.0156 2.8594 1.9844 0.67578 0.96094 1.0156 2.1406 1.0156 3.5469 0 2.1484-0.72656 3.7461-2.1719 4.7969-1.4492 1.0547-3.6523 1.5781-6.6094 1.5781h-9.5312v-22.25h8.6094c3.0938 0 5.332 0.46875 6.7188 1.4062 1.3828 0.9375 2.0781 2.4336 2.0781 4.4844 0 1.0859-0.25781 2.0078-0.76562 2.7656-0.5 0.76172-1.2344 1.3242-2.2031 1.6875z"/>
    </symbol>
    <symbol id="u" overflow="visible">
      <path d="m2.5625-16.688h5.3281v16.688h-5.3281zm0-6.5h5.3281v4.3594h-5.3281z"/>
    </symbol>
    <symbol id="t" overflow="visible">
      <path d="m15.594-16.172v4.0625c-1.1367-0.47656-2.2344-0.83594-3.2969-1.0781-1.0625-0.23828-2.0703-0.35938-3.0156-0.35938-1.0117 0-1.7656 0.13281-2.2656 0.39062-0.49219 0.25-0.73438 0.63672-0.73438 1.1562 0 0.42969 0.1875 0.75781 0.5625 0.98438 0.375 0.23047 1.0391 0.40234 2 0.51562l0.95312 0.125c2.7266 0.35547 4.5625 0.92969 5.5 1.7188 0.94531 0.79297 1.4219 2.0391 1.4219 3.7344 0 1.7812-0.65625 3.1211-1.9688 4.0156-1.3125 0.89844-3.2734 1.3438-5.875 1.3438-1.0938 0-2.2344-0.089844-3.4219-0.26562-1.1797-0.17578-2.3867-0.4375-3.625-0.78125v-4.0469c1.0625 0.51172 2.1484 0.89844 3.2656 1.1562 1.125 0.26172 2.2656 0.39062 3.4219 0.39062 1.0391 0 1.8203-0.14453 2.3438-0.4375 0.53125-0.28906 0.79688-0.71875 0.79688-1.2812 0-0.47656-0.18359-0.83203-0.54688-1.0625-0.36719-0.23828-1.0898-0.42188-2.1719-0.54688l-0.9375-0.125c-2.375-0.28906-4.043-0.83594-5-1.6406-0.94922-0.8125-1.4219-2.0352-1.4219-3.6719 0-1.7695 0.60156-3.082 1.8125-3.9375 1.2188-0.85156 3.0781-1.2812 5.5781-1.2812 0.97656 0 2.0078 0.078125 3.0938 0.23438 1.082 0.14844 2.2578 0.375 3.5312 0.6875z"/>
    </symbol>
    <symbol id="d" overflow="visible">
      <path d="m10.5-13.281c-1.1797 0-2.0781 0.42969-2.7031 1.2812-0.61719 0.84375-0.92188 2.0703-0.92188 3.6719 0 1.5938 0.30469 2.8203 0.92188 3.6719 0.625 0.85547 1.5234 1.2812 2.7031 1.2812 1.1641 0 2.0547-0.42578 2.6719-1.2812 0.61328-0.85156 0.92188-2.0781 0.92188-3.6719 0-1.6016-0.30859-2.8281-0.92188-3.6719-0.61719-0.85156-1.5078-1.2812-2.6719-1.2812zm0-3.8125c2.875 0 5.1172 0.77734 6.7344 2.3281 1.6133 1.5547 2.4219 3.6992 2.4219 6.4375 0 2.7422-0.80859 4.8867-2.4219 6.4375-1.6172 1.5547-3.8594 2.3281-6.7344 2.3281s-5.125-0.77344-6.75-2.3281c-1.625-1.5508-2.4375-3.6953-2.4375-6.4375 0-2.7383 0.8125-4.8828 2.4375-6.4375 1.625-1.5508 3.875-2.3281 6.75-2.3281z"/>
    </symbol>
    <symbol id="s" overflow="visible">
      <path d="m2.5625-23.188h5.3281v23.188h-5.3281z"/>
    </symbol>
    <symbol id="r" overflow="visible">
      <path d="m13.547-23.188v3.5h-2.9531c-0.75 0-1.2773 0.14062-1.5781 0.42188-0.30469 0.27344-0.45312 0.74609-0.45312 1.4219v1.1562h4.5625v3.8125h-4.5625v12.875h-5.3281v-12.875h-2.6562v-3.8125h2.6562v-1.1562c0-1.8203 0.50391-3.1641 1.5156-4.0312 1.0078-0.875 2.582-1.3125 4.7188-1.3125z"/>
    </symbol>
    <symbol id="q" overflow="visible">
      <path d="m19.344-10.156v10.156h-5.375v-7.75c0-1.457-0.03125-2.457-0.09375-3-0.0625-0.55078-0.17188-0.95703-0.32812-1.2188-0.21094-0.34375-0.49609-0.60938-0.85938-0.79688-0.35547-0.19531-0.76172-0.29688-1.2188-0.29688-1.1172 0-1.9922 0.43359-2.625 1.2969-0.63672 0.85547-0.95312 2.043-0.95312 3.5625v8.2031h-5.3281v-23.188h5.3281v8.9375c0.8125-0.96875 1.6641-1.6797 2.5625-2.1406 0.90625-0.46875 1.9062-0.70312 3-0.70312 1.9258 0 3.3906 0.59375 4.3906 1.7812 1 1.1797 1.5 2.8984 1.5 5.1562z"/>
    </symbol>
    <symbol id="p" overflow="visible">
      <path d="m2.7969-22.25h6.4062l8.0938 15.266v-15.266h5.4375v22.25h-6.4062l-8.0938-15.266v15.266h-5.4375z"/>
    </symbol>
    <symbol id="o" overflow="visible">
      <path d="m2.3906-6.5v-10.188h5.3594v1.6719c0 0.90625-0.007812 2.043-0.015625 3.4062-0.011719 1.3672-0.015625 2.2773-0.015625 2.7344 0 1.3359 0.03125 2.2969 0.09375 2.8906 0.070312 0.59375 0.19531 1.0273 0.375 1.2969 0.21875 0.34375 0.5 0.60938 0.84375 0.79688 0.35156 0.1875 0.75781 0.28125 1.2188 0.28125 1.1133 0 1.9883-0.42578 2.625-1.2812 0.63281-0.85156 0.95312-2.0391 0.95312-3.5625v-8.2344h5.3281v16.688h-5.3281v-2.4062c-0.80469 0.96875-1.6562 1.6875-2.5625 2.1562-0.89844 0.45703-1.8867 0.6875-2.9688 0.6875-1.9297 0-3.3984-0.58594-4.4062-1.7656-1-1.1875-1.5-2.9102-1.5-5.1719z"/>
    </symbol>
    <symbol id="n" overflow="visible">
      <path d="m19.344-10.156v10.156h-5.375v-7.7812c0-1.4375-0.03125-2.4258-0.09375-2.9688-0.0625-0.55078-0.17188-0.95703-0.32812-1.2188-0.21094-0.34375-0.49609-0.60938-0.85938-0.79688-0.35547-0.19531-0.76172-0.29688-1.2188-0.29688-1.1172 0-1.9922 0.43359-2.625 1.2969-0.63672 0.85547-0.95312 2.043-0.95312 3.5625v8.2031h-5.3281v-16.688h5.3281v2.4375c0.8125-0.96875 1.6641-1.6797 2.5625-2.1406 0.90625-0.46875 1.9062-0.70312 3-0.70312 1.9258 0 3.3906 0.59375 4.3906 1.7812 1 1.1797 1.5 2.8984 1.5 5.1562z"/>
    </symbol>
    <symbol id="m" overflow="visible">
      <path d="m2.7969-22.25h9.5312c2.8203 0 4.9883 0.63281 6.5 1.8906 1.5195 1.2617 2.2812 3.0547 2.2812 5.375 0 2.3359-0.76172 4.1328-2.2812 5.3906-1.5117 1.25-3.6797 1.875-6.5 1.875h-3.7969v7.7188h-5.7344zm5.7344 4.1562v6.2188h3.1875c1.1016 0 1.957-0.26953 2.5625-0.8125 0.61328-0.53906 0.92188-1.3047 0.92188-2.2969 0-1-0.30859-1.7656-0.92188-2.2969-0.60547-0.53906-1.4609-0.8125-2.5625-0.8125z"/>
    </symbol>
    <symbol id="l" overflow="visible">
      <path d="m2.5625-16.688h5.3281v16.391c0 2.2266-0.53906 3.9297-1.6094 5.1094-1.0742 1.1758-2.625 1.7656-4.6562 1.7656h-2.6406v-3.5h0.92188c1.0195 0 1.7188-0.23047 2.0938-0.6875 0.375-0.44922 0.5625-1.3438 0.5625-2.6875zm0-6.5h5.3281v4.3594h-5.3281z"/>
    </symbol>
    <symbol id="k" overflow="visible">
      <path d="m16.047-16.172v4.3594c-0.73047-0.5-1.4609-0.86719-2.1875-1.1094-0.73047-0.23828-1.4844-0.35938-2.2656-0.35938-1.4922 0-2.6523 0.4375-3.4844 1.3125-0.82422 0.86719-1.2344 2.0781-1.2344 3.6406s0.41016 2.7812 1.2344 3.6562c0.83203 0.86719 1.9922 1.2969 3.4844 1.2969 0.83203 0 1.625-0.125 2.375-0.375s1.4414-0.61719 2.0781-1.1094v4.375c-0.83594 0.30469-1.6836 0.53125-2.5469 0.6875-0.85547 0.15625-1.7148 0.23438-2.5781 0.23438-3.0117 0-5.3672-0.76953-7.0625-2.3125-1.6992-1.5508-2.5469-3.7031-2.5469-6.4531s0.84766-4.8945 2.5469-6.4375c1.6953-1.5508 4.0508-2.3281 7.0625-2.3281 0.875 0 1.7344 0.078125 2.5781 0.23438 0.85156 0.15625 1.7031 0.38672 2.5469 0.6875z"/>
    </symbol>
  </defs>
  <g style="" transform="matrix(1.105022, 0, 0, 1.09513, -44.590229, 51.266121)">
    <path d="m651.22 209.78-296.05-207.24c-3.1289-2.1914-7.293-2.1914-10.422 0l-295.98 207.24c-1.9727 1.3906-3.3086 3.4961-3.7266 5.8633-0.41406 2.375 0.12891 4.8125 1.5078 6.7852l40.309 57.566c1.7773 2.5312 4.582 3.875 7.457 3.875 1.793 0 3.6133-0.52344 5.1992-1.6406l250.49-175.42 250.48 175.42c4.1367 2.8789 9.7891 1.875 12.656-2.2344l40.316-57.566c1.3711-1.9727 1.9219-4.418 1.5-6.7852-0.41406-2.3594-1.7578-4.4688-3.7344-5.8633z"/>
    <path d="m577.66 301.91-222.46-155.78c-3.125-2.1836-7.293-2.1836-10.414 0l-223.64 156.61c-2.4297 1.6914-3.875 4.4727-3.875 7.4453v240.74c0 5.0039 4.0703 9.0781 9.0938 9.0781h155.61c5.0156 0 9.0859-4.0742 9.0859-9.0781v-209.79h117.89v209.79c0 5.0039 4.0625 9.0781 9.0859 9.0781h154.43c5.0234 0 9.0664-4.0742 9.0664-9.0781v-241.58c-0.003906-2.9648-1.4375-5.7383-3.875-7.4375z"/>
    <path d="m496.86 70.652 69.629 48.754c1.5625 1.0859 3.3789 1.6406 5.2109 1.6406 1.4414 0 2.8906-0.33984 4.1992-1.0195 2.9883-1.5625 4.8867-4.6758 4.8867-8.0625l-0.003906-102.88c0-5.0156-4.0703-9.0781-9.0859-9.0781h-69.637c-5.0156 0-9.0781 4.0703-9.0781 9.0781v54.129c-0.007812 2.9531 1.4297 5.7383 3.8789 7.4375z"/>
    <use transform="matrix(1, 0, 0, 1, 44.90625, 651.52734375)" xlink:href="#w"/>
    <use transform="matrix(1, 0, 0, 1, 67.296875, 651.52734375)" xlink:href="#b"/>
    <use transform="matrix(1, 0, 0, 1, 82.34375, 651.52734375)" xlink:href="#a"/>
    <use transform="matrix(1, 0, 0, 1, 103.03515625, 651.52734375)" xlink:href="#j"/>
    <use transform="matrix(1, 0, 0, 1, 123.62109375, 651.52734375)" xlink:href="#c"/>
    <use transform="matrix(1, 0, 0, 1, 138.20703125, 651.52734375)" xlink:href="#a"/>
    <use transform="matrix(1, 0, 0, 1, 158.8984375, 651.52734375)" xlink:href="#i"/>
    <use transform="matrix(1, 0, 0, 1, 191.359375, 651.52734375)" xlink:href="#h"/>
    <use transform="matrix(1, 0, 0, 1, 213.19921875, 651.52734375)" xlink:href="#f"/>
    <use transform="matrix(1, 0, 0, 1, 243.70703125, 651.52734375)" xlink:href="#e"/>
    <use transform="matrix(1, 0, 0, 1, 255.05859375, 651.52734375)" xlink:href="#a"/>
    <use transform="matrix(1, 0, 0, 1, 275.75390625, 651.52734375)" xlink:href="#b"/>
    <use transform="matrix(1, 0, 0, 1, 290.796875, 651.52734375)" xlink:href="#a"/>
    <use transform="matrix(1, 0, 0, 1, 311.4921875, 651.52734375)" xlink:href="#g"/>
    <use transform="matrix(1, 0, 0, 1, 343.28125, 651.52734375)" xlink:href="#f"/>
    <use transform="matrix(1, 0, 0, 1, 373.7890625, 651.52734375)" xlink:href="#e"/>
    <use transform="matrix(1, 0, 0, 1, 395.765625, 651.52734375)" xlink:href="#v"/>
    <use transform="matrix(1, 0, 0, 1, 419.01953125, 651.52734375)" xlink:href="#b"/>
    <use transform="matrix(1, 0, 0, 1, 434.06640625, 651.52734375)" xlink:href="#u"/>
    <use transform="matrix(1, 0, 0, 1, 444.5234375, 651.52734375)" xlink:href="#t"/>
    <use transform="matrix(1, 0, 0, 1, 462.68359375, 651.52734375)" xlink:href="#c"/>
    <use transform="matrix(1, 0, 0, 1, 477.265625, 651.52734375)" xlink:href="#d"/>
    <use transform="matrix(1, 0, 0, 1, 498.2265625, 651.52734375)" xlink:href="#s"/>
    <use transform="matrix(1, 0, 0, 1, 44.90625, 682.0390625)" xlink:href="#r"/>
    <use transform="matrix(1, 0, 0, 1, 58.1796875, 682.0390625)" xlink:href="#b"/>
    <use transform="matrix(1, 0, 0, 1, 73.2265625, 682.0390625)" xlink:href="#d"/>
    <use transform="matrix(1, 0, 0, 1, 94.1875, 682.0390625)" xlink:href="#g"/>
    <use transform="matrix(1, 0, 0, 1, 136.59765625, 682.0390625)" xlink:href="#c"/>
    <use transform="matrix(1, 0, 0, 1, 151.18359375, 682.0390625)" xlink:href="#q"/>
    <use transform="matrix(1, 0, 0, 1, 172.90234375, 682.0390625)" xlink:href="#a"/>
    <use transform="matrix(1, 0, 0, 1, 204.21484375, 682.0390625)" xlink:href="#p"/>
    <use transform="matrix(1, 0, 0, 1, 229.75, 682.0390625)" xlink:href="#d"/>
    <use transform="matrix(1, 0, 0, 1, 250.7109375, 682.0390625)" xlink:href="#o"/>
    <use transform="matrix(1, 0, 0, 1, 272.4296875, 682.0390625)" xlink:href="#n"/>
    <use transform="matrix(1, 0, 0, 1, 304.7734375, 682.0390625)" xlink:href="#m"/>
    <use transform="matrix(1, 0, 0, 1, 327.1328125, 682.0390625)" xlink:href="#b"/>
    <use transform="matrix(1, 0, 0, 1, 342.1796875, 682.0390625)" xlink:href="#d"/>
    <use transform="matrix(1, 0, 0, 1, 363.140625, 682.0390625)" xlink:href="#l"/>
    <use transform="matrix(1, 0, 0, 1, 373.59765625, 682.0390625)" xlink:href="#a"/>
    <use transform="matrix(1, 0, 0, 1, 394.2890625, 682.0390625)" xlink:href="#k"/>
    <use transform="matrix(1, 0, 0, 1, 412.375, 682.0390625)" xlink:href="#c"/>
  </g>
</svg>