<?xml version="1.0" encoding="utf-8"?>
<svg viewBox="82.318 8.324 466.353 413.344" xmlns="http://www.w3.org/2000/svg" xmlns:xlink="http://www.w3.org/1999/xlink">
  <defs>
    <symbol id="v" overflow="visible">
      <path d="m3.6562-0.21875c-0.1875 0.09375-0.38672 0.16797-0.59375 0.21875-0.19922 0.050781-0.40625 0.078125-0.625 0.078125-0.66797 0-1.1992-0.17969-1.5938-0.54688-0.38672-0.375-0.57812-0.87891-0.57812-1.5156 0-0.64453 0.19141-1.1484 0.57812-1.5156 0.39453-0.375 0.92578-0.5625 1.5938-0.5625 0.21875 0 0.42578 0.027344 0.625 0.078125 0.20703 0.054687 0.40625 0.125 0.59375 0.21875v0.82812c-0.1875-0.125-0.375-0.21875-0.5625-0.28125-0.17969-0.0625-0.37109-0.09375-0.57812-0.09375-0.36719 0-0.65625 0.12109-0.875 0.35938-0.21094 0.23047-0.3125 0.55469-0.3125 0.96875 0 0.40625 0.10156 0.73047 0.3125 0.96875 0.21875 0.23047 0.50781 0.34375 0.875 0.34375 0.20703 0 0.39844-0.023437 0.57812-0.078125 0.1875-0.0625 0.375-0.16016 0.5625-0.29688z"/>
    </symbol>
    <symbol id="symbol-125" overflow="visible">
      <path d="m2.6875-2.1719c-0.085938-0.039063-0.16797-0.070313-0.25-0.09375-0.085938-0.019531-0.16797-0.03125-0.25-0.03125-0.25 0-0.44531 0.085937-0.57812 0.25-0.125 0.15625-0.1875 0.38281-0.1875 0.67188v1.375h-0.96875v-2.9844h0.96875v0.48438c0.11328-0.19531 0.25-0.33594 0.40625-0.42188 0.16406-0.09375 0.35938-0.14062 0.57812-0.14062h0.10938c0.039063 0 0.09375 0.007812 0.15625 0.015625z"/>
    </symbol>
    <symbol id="symbol-126" overflow="visible">
      <path d="m3.4375-1.5v0.26562h-2.2344c0.03125 0.23047 0.11328 0.40234 0.25 0.51562 0.13281 0.10547 0.32812 0.15625 0.57812 0.15625 0.20703 0 0.41406-0.023438 0.625-0.078125 0.20703-0.0625 0.42188-0.15625 0.64062-0.28125v0.73438c-0.21875 0.09375-0.44531 0.16406-0.67188 0.20312-0.23047 0.039062-0.45312 0.0625-0.67188 0.0625-0.54297 0-0.96484-0.13281-1.2656-0.40625-0.30469-0.28125-0.45312-0.67188-0.45312-1.1719 0-0.47656 0.14453-0.85938 0.4375-1.1406 0.30078-0.28125 0.70703-0.42188 1.2188-0.42188 0.46875 0 0.84375 0.14062 1.125 0.42188s0.42188 0.66406 0.42188 1.1406zm-0.96875-0.32812c0-0.17578-0.058594-0.31641-0.17188-0.42188-0.10547-0.11328-0.24219-0.17188-0.40625-0.17188-0.1875 0-0.33984 0.054687-0.45312 0.15625-0.11719 0.10547-0.1875 0.25-0.21875 0.4375z"/>
    </symbol>
    <symbol id="symbol-127" overflow="visible">
      <path d="m1.7969-1.3438c-0.19922 0-0.35156 0.039062-0.45312 0.10938-0.09375 0.0625-0.14062 0.16406-0.14062 0.29688 0 0.11719 0.035156 0.21094 0.10938 0.28125 0.082031 0.0625 0.19531 0.09375 0.34375 0.09375 0.17578 0 0.32812-0.0625 0.45312-0.1875s0.1875-0.28516 0.1875-0.48438v-0.10938zm1.4688-0.35938v1.7031h-0.96875v-0.4375c-0.125 0.17969-0.27344 0.30859-0.4375 0.39062-0.15625 0.082031-0.35156 0.125-0.57812 0.125-0.3125 0-0.57031-0.085938-0.76562-0.26562-0.1875-0.1875-0.28125-0.42188-0.28125-0.70312 0-0.35156 0.11719-0.61328 0.35938-0.78125 0.23828-0.16406 0.61719-0.25 1.1406-0.25h0.5625v-0.0625c0-0.15625-0.0625-0.26562-0.1875-0.32812-0.11719-0.070312-0.29688-0.10938-0.54688-0.10938-0.21094 0-0.40234 0.023437-0.57812 0.0625-0.17969 0.042969-0.33984 0.10156-0.48438 0.17188v-0.71875c0.19531-0.050781 0.39844-0.085938 0.60938-0.10938 0.20703-0.03125 0.41406-0.046875 0.625-0.046875 0.53906 0 0.92969 0.10938 1.1719 0.32812 0.23828 0.21094 0.35938 0.55469 0.35938 1.0312z"/>
    </symbol>
    <symbol id="symbol-128" overflow="visible">
      <path d="m1.5-3.8438v0.85938h0.98438v0.67188h-0.98438v1.2812c0 0.13672 0.023438 0.23047 0.078125 0.28125 0.0625 0.042969 0.17578 0.0625 0.34375 0.0625h0.48438v0.6875h-0.8125c-0.38672 0-0.65625-0.078125-0.8125-0.23438s-0.23438-0.42188-0.23438-0.79688v-1.2812h-0.46875v-0.67188h0.46875v-0.85938z"/>
    </symbol>
    <symbol id="symbol-129" overflow="visible">
      <path d="m2.5-2.5469v-1.6094h0.95312v4.1562h-0.95312v-0.4375c-0.13672 0.17969-0.28125 0.30859-0.4375 0.39062-0.15625 0.082031-0.33984 0.125-0.54688 0.125-0.375 0-0.68359-0.14453-0.92188-0.4375-0.23047-0.28906-0.34375-0.67188-0.34375-1.1406 0-0.45703 0.11328-0.83203 0.34375-1.125 0.23828-0.28906 0.54688-0.4375 0.92188-0.4375 0.19531 0 0.375 0.042969 0.53125 0.125 0.16406 0.085938 0.31641 0.21484 0.45312 0.39062zm-0.64062 1.9375c0.20703 0 0.36328-0.070313 0.46875-0.21875 0.11328-0.15625 0.17188-0.37891 0.17188-0.67188 0-0.28125-0.058594-0.49219-0.17188-0.64062-0.10547-0.15625-0.26172-0.23438-0.46875-0.23438-0.19922 0-0.35547 0.078125-0.46875 0.23438-0.10547 0.14844-0.15625 0.35938-0.15625 0.64062 0 0.29297 0.050781 0.51562 0.15625 0.67188 0.11328 0.14844 0.26953 0.21875 0.46875 0.21875z"/>
    </symbol>
    <symbol id="symbol-130" overflow="visible">
      <path d="m2.0469-0.60938c0.20703 0 0.36328-0.070313 0.46875-0.21875 0.11328-0.15625 0.17188-0.37891 0.17188-0.67188 0-0.28125-0.058594-0.49219-0.17188-0.64062-0.10547-0.15625-0.26172-0.23438-0.46875-0.23438-0.19922 0-0.35547 0.078125-0.46875 0.23438-0.10547 0.14844-0.15625 0.35938-0.15625 0.64062 0 0.29297 0.050781 0.51562 0.15625 0.67188 0.11328 0.14844 0.26953 0.21875 0.46875 0.21875zm-0.625-1.9375c0.125-0.17578 0.26562-0.30469 0.42188-0.39062 0.16406-0.082031 0.35156-0.125 0.5625-0.125 0.36328 0 0.66406 0.14844 0.90625 0.4375 0.23828 0.29297 0.35938 0.66797 0.35938 1.125 0 0.46875-0.12109 0.85156-0.35938 1.1406-0.24219 0.29297-0.54297 0.4375-0.90625 0.4375-0.21094 0-0.39844-0.042969-0.5625-0.125-0.15625-0.082031-0.29688-0.21094-0.42188-0.39062v0.4375h-0.96875v-4.1562h0.96875z"/>
    </symbol>
    <symbol id="symbol-131" overflow="visible">
      <path d="m0.0625-2.9844h0.95312l0.8125 2.0156 0.6875-2.0156h0.95312l-1.2656 3.2656c-0.125 0.33203-0.27344 0.56641-0.4375 0.70312-0.16797 0.13281-0.39062 0.20312-0.67188 0.20312h-0.54688v-0.64062h0.29688c0.16406 0 0.28516-0.027344 0.35938-0.078125 0.070313-0.054688 0.12891-0.14062 0.17188-0.26562l0.03125-0.09375z"/>
    </symbol>
    <symbol id="symbol-132" overflow="visible">
      <path d="m0.5-3.9844h1.0312v3.9844h-1.0312z"/>
    </symbol>
    <symbol id="symbol-133" overflow="visible">
      <path d="m2.875-2.8906v0.76562c-0.125-0.082031-0.25781-0.14453-0.39062-0.1875-0.13672-0.039062-0.27344-0.0625-0.40625-0.0625-0.27344 0-0.48047 0.078125-0.625 0.23438-0.14844 0.15625-0.21875 0.37109-0.21875 0.64062 0 0.28125 0.070313 0.5 0.21875 0.65625 0.14453 0.15625 0.35156 0.23438 0.625 0.23438 0.14453 0 0.28516-0.019531 0.42188-0.0625 0.13281-0.039063 0.25781-0.10938 0.375-0.20312v0.78125c-0.14844 0.0625-0.29688 0.10156-0.45312 0.125-0.15625 0.03125-0.3125 0.046875-0.46875 0.046875-0.54297 0-0.96484-0.13281-1.2656-0.40625-0.30469-0.28125-0.45312-0.67188-0.45312-1.1719 0-0.48828 0.14844-0.86719 0.45312-1.1406 0.30078-0.28125 0.72266-0.42188 1.2656-0.42188 0.15625 0 0.3125 0.015625 0.46875 0.046875 0.15625 0.023437 0.30469 0.0625 0.45312 0.125z"/>
    </symbol>
    <symbol id="symbol-134" overflow="visible">
      <path d="m1.875-2.375c-0.21094 0-0.37109 0.078125-0.48438 0.23438-0.10547 0.14844-0.15625 0.35938-0.15625 0.64062 0 0.29297 0.050781 0.51562 0.15625 0.67188 0.11328 0.14844 0.27344 0.21875 0.48438 0.21875 0.20703 0 0.36719-0.070313 0.48438-0.21875 0.11328-0.15625 0.17188-0.37891 0.17188-0.67188 0-0.28125-0.058594-0.49219-0.17188-0.64062-0.11719-0.15625-0.27734-0.23438-0.48438-0.23438zm0-0.6875c0.51953 0 0.92188 0.14062 1.2031 0.42188 0.28906 0.27344 0.4375 0.65234 0.4375 1.1406 0 0.5-0.14844 0.89062-0.4375 1.1719-0.28125 0.27344-0.68359 0.40625-1.2031 0.40625-0.51172 0-0.91406-0.13281-1.2031-0.40625-0.29297-0.28125-0.4375-0.67188-0.4375-1.1719 0-0.48828 0.14453-0.86719 0.4375-1.1406 0.28906-0.28125 0.69141-0.42188 1.2031-0.42188z"/>
    </symbol>
    <symbol id="symbol-135" overflow="visible">
      <path d="m3.4688-1.8281v1.8281h-0.96875v-1.3906c0-0.25781-0.007812-0.4375-0.015625-0.53125-0.011719-0.10156-0.03125-0.17578-0.0625-0.21875-0.03125-0.0625-0.085937-0.10938-0.15625-0.14062-0.0625-0.039062-0.13281-0.0625-0.20312-0.0625-0.21094 0-0.37109 0.078125-0.48438 0.23438-0.10547 0.15625-0.15625 0.37109-0.15625 0.64062v1.4688h-0.96875v-2.9844h0.96875v0.4375c0.13281-0.17578 0.28516-0.30469 0.45312-0.39062 0.16406-0.082031 0.34375-0.125 0.53125-0.125 0.34375 0 0.60156 0.10938 0.78125 0.32812 0.1875 0.21094 0.28125 0.51172 0.28125 0.90625z"/>
    </symbol>
    <symbol id="u" overflow="visible">
      <path d="m3.2812-3.8594v0.84375c-0.21875-0.10156-0.43359-0.17578-0.64062-0.21875-0.21094-0.050781-0.40625-0.078125-0.59375-0.078125-0.25 0-0.43359 0.039062-0.54688 0.10938-0.11719 0.0625-0.17188 0.16797-0.17188 0.3125 0 0.10547 0.035156 0.1875 0.10938 0.25 0.082031 0.054687 0.22656 0.10156 0.4375 0.14062l0.4375 0.09375c0.44531 0.09375 0.75781 0.23047 0.9375 0.40625 0.1875 0.17969 0.28125 0.4375 0.28125 0.78125 0 0.4375-0.13281 0.76562-0.39062 0.98438-0.26172 0.21094-0.65625 0.3125-1.1875 0.3125-0.25 0-0.50781-0.027344-0.76562-0.078125-0.25-0.039062-0.50781-0.10938-0.76562-0.20312v-0.875c0.25781 0.13672 0.50391 0.24219 0.73438 0.3125 0.23828 0.0625 0.47266 0.09375 0.70312 0.09375 0.21875 0 0.38281-0.035156 0.5-0.10938 0.125-0.070312 0.1875-0.17578 0.1875-0.3125 0-0.125-0.042969-0.21875-0.125-0.28125-0.085937-0.070312-0.24609-0.13281-0.48438-0.1875l-0.39062-0.09375c-0.40625-0.082031-0.70312-0.21875-0.89062-0.40625-0.17969-0.1875-0.26562-0.44141-0.26562-0.76562 0-0.39453 0.125-0.69531 0.375-0.90625 0.25781-0.21875 0.62891-0.32812 1.1094-0.32812 0.22656 0 0.45703 0.023438 0.6875 0.0625 0.22656 0.03125 0.46875 0.078125 0.71875 0.14062z"/>
    </symbol>
    <symbol id="t" overflow="visible">
      <path d="m0.45312-4.1562h0.96875v4.1562h-0.96875z"/>
    </symbol>
    <symbol id="s" overflow="visible">
      <path d="m0.45312-2.9844h0.96875v2.9844h-0.96875zm0-1.1719h0.96875v0.78125h-0.96875z"/>
    </symbol>
    <symbol id="r" overflow="visible">
      <path d="m2.4219-4.1562v0.625h-0.51562c-0.13672 0-0.23438 0.027344-0.29688 0.078125-0.054687 0.054687-0.078125 0.13672-0.078125 0.25v0.21875h0.82812v0.67188h-0.82812v2.3125h-0.95312v-2.3125h-0.46875v-0.67188h0.46875v-0.21875c0-0.32031 0.085937-0.5625 0.26562-0.71875 0.1875-0.15625 0.47266-0.23438 0.85938-0.23438z"/>
    </symbol>
    <symbol id="q" overflow="visible">
      <path d="m3.2344-2.5c0.11328-0.17578 0.25391-0.3125 0.42188-0.40625 0.16406-0.10156 0.35156-0.15625 0.5625-0.15625 0.33203 0 0.58594 0.10938 0.76562 0.32812 0.1875 0.21094 0.28125 0.51172 0.28125 0.90625v1.8281h-0.96875v-1.5625c0.007813-0.019531 0.015625-0.039062 0.015625-0.0625v-0.10938c0-0.21875-0.03125-0.375-0.09375-0.46875s-0.16406-0.14062-0.29688-0.14062c-0.1875 0-0.33594 0.078125-0.4375 0.23438-0.09375 0.14844-0.14062 0.35938-0.14062 0.64062v1.4688h-0.96875v-1.5625c0-0.33203-0.03125-0.54688-0.09375-0.64062-0.054688-0.09375-0.15234-0.14062-0.29688-0.14062-0.17969 0-0.32031 0.078125-0.42188 0.23438-0.09375 0.14844-0.14062 0.35938-0.14062 0.64062v1.4688h-0.96875v-2.9844h0.96875v0.4375c0.11328-0.17578 0.24219-0.30469 0.39062-0.39062 0.15625-0.082031 0.32812-0.125 0.51562-0.125 0.20703 0 0.39062 0.054688 0.54688 0.15625 0.15625 0.09375 0.27344 0.23047 0.35938 0.40625z"/>
    </symbol>
    <symbol id="p" overflow="visible">
      <path d="m3.4688-1.8281v1.8281h-0.96875v-1.3906c0-0.25781-0.007812-0.4375-0.015625-0.53125-0.011719-0.10156-0.03125-0.17578-0.0625-0.21875-0.03125-0.0625-0.085937-0.10938-0.15625-0.14062-0.0625-0.039062-0.13281-0.0625-0.20312-0.0625-0.21094 0-0.37109 0.078125-0.48438 0.23438-0.10547 0.15625-0.15625 0.37109-0.15625 0.64062v1.4688h-0.96875v-4.1562h0.96875v1.6094c0.13281-0.17578 0.28516-0.30469 0.45312-0.39062 0.16406-0.082031 0.34375-0.125 0.53125-0.125 0.34375 0 0.60156 0.10938 0.78125 0.32812 0.1875 0.21094 0.28125 0.51172 0.28125 0.90625z"/>
    </symbol>
    <symbol id="symbol-136" overflow="visible">
      <path d="m0.5-3.9844h1.1562l1.4375 2.7344v-2.7344h0.98438v3.9844h-1.1562l-1.4375-2.7344v2.7344h-0.98438z"/>
    </symbol>
    <symbol id="symbol-137" overflow="visible">
      <path d="m0.42188-1.1719v-1.8125h0.96875v0.29688 0.60938 0.48438c0 0.24219 0.003906 0.41797 0.015625 0.53125 0.007812 0.10547 0.03125 0.17969 0.0625 0.21875 0.039062 0.0625 0.09375 0.11719 0.15625 0.15625 0.0625 0.03125 0.13281 0.046875 0.21875 0.046875 0.19531 0 0.35156-0.078125 0.46875-0.23438 0.11328-0.15625 0.17188-0.36719 0.17188-0.64062v-1.4688h0.95312v2.9844h-0.95312v-0.4375c-0.14844 0.17969-0.30469 0.30859-0.46875 0.39062-0.15625 0.082031-0.33594 0.125-0.53125 0.125-0.34375 0-0.60938-0.10156-0.79688-0.3125-0.17969-0.21875-0.26562-0.53125-0.26562-0.9375z"/>
    </symbol>
    <symbol id="symbol-138" overflow="visible">
      <path d="m0.5-3.9844h1.7031c0.50781 0 0.89844 0.11719 1.1719 0.34375 0.26953 0.21875 0.40625 0.53906 0.40625 0.95312 0 0.41797-0.13672 0.74219-0.40625 0.96875-0.27344 0.21875-0.66406 0.32812-1.1719 0.32812h-0.67188v1.3906h-1.0312zm1.0312 0.75v1.1094h0.5625c0.19531 0 0.34766-0.046875 0.45312-0.14062 0.11328-0.10156 0.17188-0.24219 0.17188-0.42188 0-0.17578-0.058594-0.3125-0.17188-0.40625-0.10547-0.09375-0.25781-0.14062-0.45312-0.14062z"/>
    </symbol>
    <symbol id="symbol-139" overflow="visible">
      <path d="m0.45312-2.9844h0.96875v2.9375c0 0.39453-0.10156 0.69531-0.29688 0.90625-0.1875 0.21875-0.46484 0.32812-0.82812 0.32812h-0.48438v-0.64062h0.17188c0.17578 0 0.29688-0.042969 0.35938-0.125 0.070312-0.074219 0.10938-0.23047 0.10938-0.46875zm0-1.1719h0.96875v0.78125h-0.96875z"/>
    </symbol>
  </defs>
  <g transform="matrix(0.705833, 0, 0, 0.652775, 56.123569, 34.867405)" style="">
    <path d="m595 84.492v41.016l-154.49 154.49 154.49 154.49v41.016l-195.51-195.51 195.51-195.51m-280 0v41.016l-154.49 154.49 154.49 154.49v41.016l-195.51-195.51 195.51-195.51m315-84.492-280 280 280 280v-140l-140-140 140-140zm-280 0-280 280 280 280v-140l-140-140 140-140z"/>
    <use transform="matrix(1, 0, 0, 1, 70, 576.40625)" xlink:href="#v"/>
    <use transform="matrix(1, 0, 0, 1, 74.01171875, 576.40625)" xlink:href="#symbol-125"/>
    <use transform="matrix(1, 0, 0, 1, 76.7109375, 576.40625)" xlink:href="#symbol-126"/>
    <use transform="matrix(1, 0, 0, 1, 80.41796875, 576.40625)" xlink:href="#symbol-127"/>
    <use transform="matrix(1, 0, 0, 1, 84.109375, 576.40625)" xlink:href="#symbol-128"/>
    <use transform="matrix(1, 0, 0, 1, 86.72265625, 576.40625)" xlink:href="#symbol-126"/>
    <use transform="matrix(1, 0, 0, 1, 90.43359375, 576.40625)" xlink:href="#symbol-129"/>
    <use transform="matrix(1, 0, 0, 1, 96.25, 576.40625)" xlink:href="#symbol-130"/>
    <use transform="matrix(1, 0, 0, 1, 100.16796875, 576.40625)" xlink:href="#symbol-131"/>
    <use transform="matrix(1, 0, 0, 1, 105.63671875, 576.40625)" xlink:href="#symbol-132"/>
    <use transform="matrix(1, 0, 0, 1, 107.66796875, 576.40625)" xlink:href="#symbol-133"/>
    <use transform="matrix(1, 0, 0, 1, 110.91015625, 576.40625)" xlink:href="#symbol-134"/>
    <use transform="matrix(1, 0, 0, 1, 114.66796875, 576.40625)" xlink:href="#symbol-135"/>
    <use transform="matrix(1, 0, 0, 1, 120.46484375, 576.40625)" xlink:href="#u"/>
    <use transform="matrix(1, 0, 0, 1, 124.40625, 576.40625)" xlink:href="#symbol-134"/>
    <use transform="matrix(1, 0, 0, 1, 128.16015625, 576.40625)" xlink:href="#t"/>
    <use transform="matrix(1, 0, 0, 1, 130.03515625, 576.40625)" xlink:href="#s"/>
    <use transform="matrix(1, 0, 0, 1, 131.91015625, 576.40625)" xlink:href="#symbol-129"/>
    <use transform="matrix(1, 0, 0, 1, 70, 581.875)" xlink:href="#r"/>
    <use transform="matrix(1, 0, 0, 1, 72.37890625, 581.875)" xlink:href="#symbol-125"/>
    <use transform="matrix(1, 0, 0, 1, 75.078125, 581.875)" xlink:href="#symbol-134"/>
    <use transform="matrix(1, 0, 0, 1, 78.83203125, 581.875)" xlink:href="#q"/>
    <use transform="matrix(1, 0, 0, 1, 86.4375, 581.875)" xlink:href="#symbol-128"/>
    <use transform="matrix(1, 0, 0, 1, 89.05078125, 581.875)" xlink:href="#p"/>
    <use transform="matrix(1, 0, 0, 1, 92.94140625, 581.875)" xlink:href="#symbol-126"/>
    <use transform="matrix(1, 0, 0, 1, 98.5546875, 581.875)" xlink:href="#symbol-136"/>
    <use transform="matrix(1, 0, 0, 1, 103.1328125, 581.875)" xlink:href="#symbol-134"/>
    <use transform="matrix(1, 0, 0, 1, 106.890625, 581.875)" xlink:href="#symbol-137"/>
    <use transform="matrix(1, 0, 0, 1, 110.78515625, 581.875)" xlink:href="#symbol-135"/>
    <use transform="matrix(1, 0, 0, 1, 116.58203125, 581.875)" xlink:href="#symbol-138"/>
    <use transform="matrix(1, 0, 0, 1, 120.58984375, 581.875)" xlink:href="#symbol-125"/>
    <use transform="matrix(1, 0, 0, 1, 123.28515625, 581.875)" xlink:href="#symbol-134"/>
    <use transform="matrix(1, 0, 0, 1, 127.04296875, 581.875)" xlink:href="#symbol-139"/>
    <use transform="matrix(1, 0, 0, 1, 128.91796875, 581.875)" xlink:href="#symbol-126"/>
    <use transform="matrix(1, 0, 0, 1, 132.625, 581.875)" xlink:href="#symbol-133"/>
    <use transform="matrix(1, 0, 0, 1, 135.8671875, 581.875)" xlink:href="#symbol-128"/>
  </g>
</svg>