<svg viewBox="82.318 8.324 466.353 413.344" xmlns="http://www.w3.org/2000/svg" xmlns:xlink="http://www.w3.org/1999/xlink"><defs><symbol id="prefix__a" overflow="visible"><path d="M3.656-.219A2.844 2.844 0 013.062 0c-.199.05-.406.078-.625.078-.668 0-1.199-.18-1.593-.547C.457-.844.266-1.348.266-1.984c0-.645.19-1.149.578-1.516.394-.375.925-.562 1.593-.562.22 0 .426.027.625.078.207.054.407.125.594.218v.829a2.366 2.366 0 00-.562-.282 1.742 1.742 0 00-.578-.093c-.368 0-.657.12-.875.359-.211.23-.313.555-.313.969 0 .406.102.73.313.968.218.23.507.344.875.344.207 0 .398-.023.578-.078.187-.062.375-.16.562-.297z"/></symbol><symbol id="prefix__b" overflow="visible"><path d="M2.688-2.172a1.794 1.794 0 00-.25-.094 1.123 1.123 0 00-.25-.03c-.25 0-.446.085-.579.25-.125.155-.187.382-.187.671V0H.453v-2.984h.969v.484c.113-.195.25-.336.406-.422.164-.094.36-.14.578-.14h.11c.039 0 .093.007.156.015z"/></symbol><symbol id="prefix__c" overflow="visible"><path d="M3.438-1.5v.266H1.203c.031.23.113.402.25.515.133.106.328.156.578.156.207 0 .414-.023.625-.078.207-.062.422-.156.64-.28v.733a3.017 3.017 0 01-.671.204 4.02 4.02 0 01-.672.062C1.41.078.988-.055.687-.328.383-.61.234-1 .234-1.5c0-.477.145-.86.438-1.14.3-.282.707-.423 1.219-.423.468 0 .843.141 1.125.422s.422.664.422 1.141zm-.97-.328a.55.55 0 00-.171-.422.534.534 0 00-.406-.172.658.658 0 00-.453.156.722.722 0 00-.22.438z"/></symbol><symbol id="prefix__d" overflow="visible"><path d="M1.797-1.344c-.2 0-.352.04-.453.11-.094.062-.14.164-.14.296 0 .118.034.211.109.282a.554.554 0 00.343.093c.176 0 .328-.062.453-.187s.188-.285.188-.484v-.11zm1.469-.36V0h-.97v-.438c-.124.18-.272.309-.437.391a1.24 1.24 0 01-.578.125C.97.078.711-.008.516-.188A.954.954 0 01.234-.89c0-.351.118-.613.36-.781.238-.164.617-.25 1.14-.25h.563v-.062c0-.157-.063-.266-.188-.329-.117-.07-.296-.109-.546-.109A2.35 2.35 0 00.5-2.188v-.718c.195-.051.399-.086.61-.11.206-.03.414-.047.624-.047.54 0 .93.11 1.172.329.239.21.36.554.36 1.03z"/></symbol><symbol id="prefix__e" overflow="visible"><path d="M1.5-3.844v.86h.984v.671H1.5v1.282c0 .136.023.23.078.28.063.044.176.063.344.063h.484V0h-.812C1.207 0 .938-.078.78-.234S.547-.656.547-1.031v-1.282H.078v-.671h.469v-.86z"/></symbol><symbol id="prefix__f" overflow="visible"><path d="M2.5-2.547v-1.61h.953V0H2.5v-.438c-.137.18-.281.309-.438.391-.156.082-.34.125-.546.125-.375 0-.684-.145-.922-.437C.364-.65.25-1.031.25-1.5c0-.457.113-.832.344-1.125.238-.29.547-.438.922-.438.195 0 .375.043.53.125.165.086.317.215.454.391zM1.86-.609c.206 0 .363-.07.468-.22.113-.155.172-.378.172-.671 0-.281-.059-.492-.172-.64a.529.529 0 00-.469-.235c-.199 0-.355.078-.468.234-.106.149-.157.36-.157.641 0 .293.051.516.157.672.113.148.27.219.468.219z"/></symbol><symbol id="prefix__g" overflow="visible"><path d="M2.047-.61c.207 0 .363-.07.469-.218.113-.156.172-.379.172-.672 0-.281-.06-.492-.172-.64a.529.529 0 00-.47-.235c-.198 0-.355.078-.468.234-.105.149-.156.36-.156.641 0 .293.05.516.156.672.113.148.27.219.469.219zm-.625-1.937c.125-.176.266-.305.422-.39.164-.083.351-.126.562-.126.364 0 .664.149.907.438.238.293.359.668.359 1.125 0 .469-.121.852-.36 1.14a1.126 1.126 0 01-.906.438c-.21 0-.398-.043-.562-.125a1.2 1.2 0 01-.422-.39V0H.453v-4.156h.969z"/></symbol><symbol id="prefix__h" overflow="visible"><path d="M.063-2.984h.953L1.828-.97l.688-2.015h.953L2.203.28c-.125.332-.273.567-.437.703-.168.133-.391.203-.672.203H.547v-.64h.297c.164 0 .285-.028.36-.078a.551.551 0 00.171-.266L1.406.11z"/></symbol><symbol id="prefix__i" overflow="visible"><path d="M.5-3.984h1.031V0H.5z"/></symbol><symbol id="prefix__j" overflow="visible"><path d="M2.875-2.89v.765a1.628 1.628 0 00-.39-.187 1.488 1.488 0 00-.407-.063c-.273 0-.48.078-.625.234-.148.157-.219.371-.219.641 0 .281.07.5.22.656.144.157.35.235.624.235.145 0 .285-.02.422-.063.133-.039.258-.11.375-.203v.781a1.861 1.861 0 01-.453.125 2.385 2.385 0 01-.469.047C1.41.078.988-.055.688-.328.383-.61.234-1 .234-1.5c0-.488.149-.867.454-1.14.3-.282.722-.422 1.265-.422.156 0 .313.015.469.046.156.024.305.063.453.125z"/></symbol><symbol id="prefix__k" overflow="visible"><path d="M1.875-2.375a.56.56 0 00-.484.234c-.106.149-.157.36-.157.641 0 .293.051.516.157.672.113.148.273.219.484.219.207 0 .367-.07.484-.22.114-.155.172-.378.172-.671 0-.281-.058-.492-.172-.64a.57.57 0 00-.484-.235zm0-.688c.52 0 .922.141 1.203.422.29.274.438.653.438 1.141 0 .5-.149.89-.438 1.172-.281.273-.683.406-1.203.406-.512 0-.914-.133-1.203-.406C.379-.61.234-1 .234-1.5c0-.488.145-.867.438-1.14.289-.282.691-.423 1.203-.423z"/></symbol><symbol id="prefix__l" overflow="visible"><path d="M3.469-1.828V0H2.5v-1.39c0-.258-.008-.438-.016-.532a.488.488 0 00-.062-.219.307.307 0 00-.156-.14.387.387 0 00-.203-.063.56.56 0 00-.485.235c-.105.156-.156.37-.156.64v1.47H.453v-2.985h.969v.437c.133-.176.285-.305.453-.39.164-.082.344-.125.531-.125.344 0 .602.109.782.328.187.21.28.511.28.906z"/></symbol><symbol id="prefix__m" overflow="visible"><path d="M3.281-3.86v.844a2.963 2.963 0 00-.64-.218 2.533 2.533 0 00-.594-.079c-.25 0-.434.04-.547.11-.117.062-.172.168-.172.312 0 .106.035.188.11.25.081.055.226.102.437.141l.437.094c.446.093.758.23.938.406.187.18.281.437.281.781 0 .438-.133.766-.39.985-.262.21-.657.312-1.188.312-.25 0-.508-.027-.766-.078C.937-.04.68-.11.422-.203v-.875c.258.137.504.242.734.312.239.063.473.094.703.094.22 0 .383-.035.5-.11a.34.34 0 00.188-.312c0-.125-.043-.219-.125-.281-.086-.07-.246-.133-.485-.188l-.39-.093c-.406-.082-.703-.219-.89-.407-.18-.187-.266-.44-.266-.765 0-.395.125-.695.375-.906.257-.22.629-.329 1.109-.329.227 0 .457.024.688.063.226.031.468.078.718.14z"/></symbol><symbol id="prefix__n" overflow="visible"><path d="M.453-4.156h.969V0H.453z"/></symbol><symbol id="prefix__o" overflow="visible"><path d="M.453-2.984h.969V0H.453zm0-1.172h.969v.78H.453z"/></symbol><symbol id="prefix__p" overflow="visible"><path d="M2.422-4.156v.625h-.516c-.136 0-.234.027-.297.078-.054.055-.078.137-.078.25v.219h.828v.672h-.828V0H.578v-2.312H.11v-.672h.47v-.22c0-.32.085-.562.265-.718.187-.156.472-.234.86-.234z"/></symbol><symbol id="prefix__q" overflow="visible"><path d="M3.234-2.5c.114-.176.254-.313.422-.406a1.05 1.05 0 01.563-.156c.332 0 .586.109.765.328.188.21.282.511.282.906V0h-.97v-1.563a.164.164 0 00.017-.062v-.11c0-.218-.032-.374-.094-.468s-.164-.14-.297-.14a.494.494 0 00-.438.234c-.093.148-.14.359-.14.64V0h-.969v-1.562c0-.333-.031-.547-.094-.641-.054-.094-.152-.14-.297-.14-.18 0-.32.077-.421.234-.094.148-.141.359-.141.64v1.47H.453v-2.985h.969v.437c.113-.176.242-.305.39-.39.157-.082.329-.125.516-.125.207 0 .39.054.547.156.156.094.273.23.36.406z"/></symbol><symbol id="prefix__r" overflow="visible"><path d="M3.469-1.828V0H2.5v-1.39c0-.258-.008-.438-.016-.532a.488.488 0 00-.062-.219.307.307 0 00-.156-.14.387.387 0 00-.203-.063.56.56 0 00-.485.235c-.105.156-.156.37-.156.64v1.47H.453v-4.157h.969v1.61c.133-.177.285-.305.453-.391.164-.082.344-.125.531-.125.344 0 .602.109.782.328.187.21.28.511.28.906z"/></symbol><symbol id="prefix__s" overflow="visible"><path d="M.5-3.984h1.156L3.094-1.25v-2.734h.984V0H2.922L1.484-2.734V0H.5z"/></symbol><symbol id="prefix__t" overflow="visible"><path d="M.422-1.172v-1.812h.969v1.39c0 .242.004.418.015.531.008.106.032.18.063.22.039.062.094.116.156.155a.476.476 0 00.219.047.557.557 0 00.469-.234c.113-.156.171-.367.171-.64v-1.47h.954V0h-.954v-.438a1.47 1.47 0 01-.468.391 1.134 1.134 0 01-.532.125c-.343 0-.609-.101-.796-.312-.18-.22-.266-.532-.266-.938z"/></symbol><symbol id="prefix__u" overflow="visible"><path d="M.5-3.984h1.703c.508 0 .899.117 1.172.343.27.22.406.54.406.953 0 .418-.136.743-.406.97-.273.218-.664.327-1.172.327h-.672V0H.5zm1.031.75v1.109h.563c.195 0 .347-.047.453-.14a.539.539 0 00.172-.423.5.5 0 00-.172-.406c-.106-.094-.258-.14-.453-.14z"/></symbol><symbol id="prefix__v" overflow="visible"><path d="M.453-2.984h.969v2.937c0 .395-.102.695-.297.906-.188.22-.465.328-.828.328h-.485v-.64h.172C.16.547.281.504.344.422c.07-.074.11-.23.11-.469zm0-1.172h.969v.78H.453z"/></symbol></defs><g transform="matrix(.70583 0 0 .65277 56.124 34.867)"><path d="M595 84.492v41.016l-154.49 154.49L595 434.488v41.016l-195.51-195.51L595 84.484m-280 0V125.5L160.51 279.99 315 434.48v41.016l-195.51-195.51L315 84.476M630-.016l-280 280 280 280v-140l-140-140 140-140zm-280 0l-280 280 280 280v-140l-140-140 140-140z"/><use transform="translate(70 576.406)" xlink:href="#prefix__a"/><use transform="translate(74.012 576.406)" xlink:href="#prefix__b"/><use transform="translate(76.71 576.406)" xlink:href="#prefix__c"/><use transform="translate(80.418 576.406)" xlink:href="#prefix__d"/><use transform="translate(84.11 576.406)" xlink:href="#prefix__e"/><use transform="translate(86.723 576.406)" xlink:href="#prefix__c"/><use transform="translate(90.434 576.406)" xlink:href="#prefix__f"/><use transform="translate(96.25 576.406)" xlink:href="#prefix__g"/><use transform="translate(100.168 576.406)" xlink:href="#prefix__h"/><use transform="translate(105.637 576.406)" xlink:href="#prefix__i"/><use transform="translate(107.668 576.406)" xlink:href="#prefix__j"/><use transform="translate(110.91 576.406)" xlink:href="#prefix__k"/><use transform="translate(114.668 576.406)" xlink:href="#prefix__l"/><use transform="translate(120.465 576.406)" xlink:href="#prefix__m"/><use transform="translate(124.406 576.406)" xlink:href="#prefix__k"/><use transform="translate(128.16 576.406)" xlink:href="#prefix__n"/><use transform="translate(130.035 576.406)" xlink:href="#prefix__o"/><use transform="translate(131.91 576.406)" xlink:href="#prefix__f"/><use transform="translate(70 581.875)" xlink:href="#prefix__p"/><use transform="translate(72.379 581.875)" xlink:href="#prefix__b"/><use transform="translate(75.078 581.875)" xlink:href="#prefix__k"/><use transform="translate(78.832 581.875)" xlink:href="#prefix__q"/><use transform="translate(86.438 581.875)" xlink:href="#prefix__e"/><use transform="translate(89.05 581.875)" xlink:href="#prefix__r"/><use transform="translate(92.941 581.875)" xlink:href="#prefix__c"/><use transform="translate(98.555 581.875)" xlink:href="#prefix__s"/><use transform="translate(103.133 581.875)" xlink:href="#prefix__k"/><use transform="translate(106.89 581.875)" xlink:href="#prefix__t"/><use transform="translate(110.785 581.875)" xlink:href="#prefix__l"/><use transform="translate(116.582 581.875)" xlink:href="#prefix__u"/><use transform="translate(120.59 581.875)" xlink:href="#prefix__b"/><use transform="translate(123.285 581.875)" xlink:href="#prefix__k"/><use transform="translate(127.043 581.875)" xlink:href="#prefix__v"/><use transform="translate(128.918 581.875)" xlink:href="#prefix__c"/><use transform="translate(132.625 581.875)" xlink:href="#prefix__j"/><use transform="translate(135.867 581.875)" xlink:href="#prefix__e"/></g></svg>