<?xml version="1.0" encoding="utf-8"?>
<svg viewBox="82.318 8.324 466.353 413.344" xmlns="http://www.w3.org/2000/svg" xmlns:xlink="http://www.w3.org/1999/xlink">
  <defs>
    <symbol id="y" overflow="visible">
      <path d="m18.766-1.125c-0.96875 0.5-1.9805 0.875-3.0312 1.125-1.043 0.25781-2.1367 0.39062-3.2812 0.39062-3.3984 0-6.0898-0.94531-8.0781-2.8438-1.9922-1.9062-2.9844-4.4844-2.9844-7.7344 0-3.2578 0.99219-5.8359 2.9844-7.7344 1.9883-1.9062 4.6797-2.8594 8.0781-2.8594 1.1445 0 2.2383 0.13281 3.2812 0.39062 1.0508 0.25 2.0625 0.625 3.0312 1.125v4.2188c-0.98047-0.65625-1.9453-1.1406-2.8906-1.4531-0.94922-0.3125-1.9492-0.46875-3-0.46875-1.875 0-3.3516 0.60547-4.4219 1.8125-1.0742 1.1992-1.6094 2.8555-1.6094 4.9688 0 2.1055 0.53516 3.7617 1.6094 4.9688 1.0703 1.1992 2.5469 1.7969 4.4219 1.7969 1.0508 0 2.0508-0.14844 3-0.45312 0.94531-0.3125 1.9102-0.80078 2.8906-1.4688z"/>
    </symbol>
    <symbol id="symbol-51" overflow="visible">
      <path d="m13.734-11.141c-0.4375-0.19531-0.87109-0.34375-1.2969-0.4375-0.41797-0.10156-0.83984-0.15625-1.2656-0.15625-1.2617 0-2.2305 0.40625-2.9062 1.2188-0.67969 0.80469-1.0156 1.9531-1.0156 3.4531v7.0625h-4.8906v-15.312h4.8906v2.5156c0.625-1 1.3438-1.7266 2.1562-2.1875 0.82031-0.46875 1.8008-0.70312 2.9375-0.70312 0.16406 0 0.34375 0.011719 0.53125 0.03125 0.19531 0.011719 0.47656 0.039062 0.84375 0.078125z"/>
    </symbol>
    <symbol id="symbol-52" overflow="visible">
      <path d="m17.641-7.7031v1.4062h-11.453c0.125 1.1484 0.53906 2.0078 1.25 2.5781 0.70703 0.57422 1.7031 0.85938 2.9844 0.85938 1.0312 0 2.082-0.14844 3.1562-0.45312 1.082-0.3125 2.1914-0.77344 3.3281-1.3906v3.7656c-1.1562 0.4375-2.3125 0.76562-3.4688 0.98438-1.1562 0.22656-2.3125 0.34375-3.4688 0.34375-2.7734 0-4.9297-0.70312-6.4688-2.1094-1.5312-1.4062-2.2969-3.3789-2.2969-5.9219 0-2.5 0.75391-4.4609 2.2656-5.8906 1.5078-1.4375 3.582-2.1562 6.2188-2.1562 2.4062 0 4.332 0.73047 5.7812 2.1875 1.4453 1.4492 2.1719 3.3828 2.1719 5.7969zm-5.0312-1.625c0-0.92578-0.27344-1.6719-0.8125-2.2344-0.54297-0.57031-1.25-0.85938-2.125-0.85938-0.94922 0-1.7188 0.26562-2.3125 0.79688s-0.96484 1.2969-1.1094 2.2969z"/>
    </symbol>
    <symbol id="symbol-53" overflow="visible">
      <path d="m9.2188-6.8906c-1.0234 0-1.793 0.17188-2.3125 0.51562-0.51172 0.34375-0.76562 0.85547-0.76562 1.5312 0 0.625 0.20703 1.1172 0.625 1.4688 0.41406 0.34375 0.98828 0.51562 1.7188 0.51562 0.92578 0 1.7031-0.32812 2.3281-0.98438 0.63281-0.66406 0.95312-1.4922 0.95312-2.4844v-0.5625zm7.4688-1.8438v8.7344h-4.9219v-2.2656c-0.65625 0.92969-1.3984 1.6055-2.2188 2.0312-0.82422 0.41406-1.8242 0.625-3 0.625-1.5859 0-2.8711-0.45703-3.8594-1.375-0.99219-0.92578-1.4844-2.1289-1.4844-3.6094 0-1.7891 0.61328-3.1016 1.8438-3.9375 1.2383-0.84375 3.1797-1.2656 5.8281-1.2656h2.8906v-0.39062c0-0.76953-0.30859-1.332-0.92188-1.6875-0.61719-0.36328-1.5703-0.54688-2.8594-0.54688-1.0547 0-2.0312 0.10547-2.9375 0.3125-0.89844 0.21094-1.7305 0.52344-2.5 0.9375v-3.7344c1.0391-0.25 2.0859-0.44141 3.1406-0.57812 1.0625-0.13281 2.125-0.20312 3.1875-0.20312 2.7578 0 4.75 0.54688 5.9688 1.6406 1.2266 1.0859 1.8438 2.8555 1.8438 5.3125z"/>
    </symbol>
    <symbol id="symbol-54" overflow="visible">
      <path d="m7.7031-19.656v4.3438h5.0469v3.5h-5.0469v6.5c0 0.71094 0.14062 1.1875 0.42188 1.4375s0.83594 0.375 1.6719 0.375h2.5156v3.5h-4.1875c-1.9375 0-3.3125-0.39844-4.125-1.2031-0.80469-0.8125-1.2031-2.1797-1.2031-4.1094v-6.5h-2.4219v-3.5h2.4219v-4.3438z"/>
    </symbol>
    <symbol id="symbol-55" overflow="visible">
      <path d="m12.766-13.078v-8.2031h4.9219v21.281h-4.9219v-2.2188c-0.66797 0.90625-1.4062 1.5703-2.2188 1.9844s-1.7578 0.625-2.8281 0.625c-1.8867 0-3.4336-0.75-4.6406-2.25-1.2109-1.5-1.8125-3.4258-1.8125-5.7812 0-2.3633 0.60156-4.2969 1.8125-5.7969 1.207-1.5 2.7539-2.25 4.6406-2.25 1.0625 0 2 0.21484 2.8125 0.64062 0.82031 0.42969 1.5664 1.0859 2.2344 1.9688zm-3.2188 9.9219c1.0391 0 1.8359-0.37891 2.3906-1.1406 0.55078-0.76953 0.82812-1.8828 0.82812-3.3438 0-1.457-0.27734-2.5664-0.82812-3.3281-0.55469-0.76953-1.3516-1.1562-2.3906-1.1562-1.043 0-1.8398 0.38672-2.3906 1.1562-0.55469 0.76172-0.82812 1.8711-0.82812 3.3281 0 1.4609 0.27344 2.5742 0.82812 3.3438 0.55078 0.76172 1.3477 1.1406 2.3906 1.1406z"/>
    </symbol>
    <symbol id="symbol-56" overflow="visible">
      <path d="m10.5-3.1562c1.0508 0 1.8516-0.37891 2.4062-1.1406 0.55078-0.76953 0.82812-1.8828 0.82812-3.3438 0-1.457-0.27734-2.5664-0.82812-3.3281-0.55469-0.76953-1.3555-1.1562-2.4062-1.1562-1.0547 0-1.8594 0.38672-2.4219 1.1562-0.55469 0.77344-0.82812 1.8828-0.82812 3.3281 0 1.4492 0.27344 2.5586 0.82812 3.3281 0.5625 0.77344 1.3672 1.1562 2.4219 1.1562zm-3.25-9.9219c0.67578-0.88281 1.4219-1.5391 2.2344-1.9688 0.82031-0.42578 1.7656-0.64062 2.8281-0.64062 1.8945 0 3.4453 0.75 4.6562 2.25 1.207 1.5 1.8125 3.4336 1.8125 5.7969 0 2.3555-0.60547 4.2812-1.8125 5.7812-1.2109 1.5-2.7617 2.25-4.6562 2.25-1.0625 0-2.0078-0.21094-2.8281-0.625-0.8125-0.42578-1.5586-1.0859-2.2344-1.9844v2.2188h-4.8906v-21.281h4.8906z"/>
    </symbol>
    <symbol id="symbol-57" overflow="visible">
      <path d="m0.34375-15.312h4.8906l4.125 10.391 3.5-10.391h4.8906l-6.4375 16.766c-0.64844 1.6953-1.4023 2.8828-2.2656 3.5625-0.86719 0.6875-2 1.0312-3.4062 1.0312h-2.8438v-3.2188h1.5312c0.83203 0 1.4375-0.13672 1.8125-0.40625 0.38281-0.26172 0.67969-0.73047 0.89062-1.4062l0.14062-0.42188z"/>
    </symbol>
    <symbol id="symbol-58" overflow="visible">
      <path d="m14.953-3.7188h-8.2188l-1.3125 3.7188h-5.2812l7.5625-20.406h6.2656l7.5625 20.406h-5.2812zm-6.9062-3.7812h5.5781l-2.7812-8.125z"/>
    </symbol>
    <symbol id="symbol-59" overflow="visible">
      <path d="m2.3594-21.281h4.8906v21.281h-4.8906z"/>
    </symbol>
    <symbol id="x" overflow="visible">
      <path d="m6.2188-7.8281-5.5156-7.4844h5.1719l3.1406 4.5312 3.1719-4.5312h5.1719l-5.5156 7.4531 5.7969 7.8594h-5.1875l-3.4375-4.8438-3.4062 4.8438h-5.1875z"/>
    </symbol>
    <symbol id="symbol-60" overflow="visible">
      <path d="m17.75-9.3281v9.3281h-4.9219v-7.1406c0-1.3203-0.03125-2.2344-0.09375-2.7344s-0.16797-0.86719-0.3125-1.1094c-0.1875-0.3125-0.44922-0.55469-0.78125-0.73438-0.32422-0.17578-0.69531-0.26562-1.1094-0.26562-1.0234 0-1.8242 0.39844-2.4062 1.1875-0.58594 0.78125-0.875 1.8711-0.875 3.2656v7.5312h-4.8906v-15.312h4.8906v2.2344c0.73828-0.88281 1.5195-1.5391 2.3438-1.9688 0.83203-0.42578 1.75-0.64062 2.75-0.64062 1.7695 0 3.1133 0.54688 4.0312 1.6406 0.91406 1.0859 1.375 2.6562 1.375 4.7188z"/>
    </symbol>
    <symbol id="w" overflow="visible">
      <path d="m16.781-19.766v4.3125c-1.125-0.5-2.2266-0.875-3.2969-1.125-1.0625-0.25781-2.0703-0.39062-3.0156-0.39062-1.25 0-2.1797 0.17969-2.7812 0.53125-0.60547 0.34375-0.90625 0.88281-0.90625 1.6094 0 0.54297 0.20312 0.96875 0.60938 1.2812 0.40625 0.30469 1.1406 0.5625 2.2031 0.78125l2.25 0.45312c2.2695 0.44922 3.8789 1.1406 4.8281 2.0781 0.95703 0.92969 1.4375 2.2461 1.4375 3.9531 0 2.25-0.66797 3.9297-2 5.0312-1.3359 1.0938-3.3711 1.6406-6.1094 1.6406-1.3047 0-2.6055-0.125-3.9062-0.375-1.3047-0.23828-2.6055-0.59766-3.9062-1.0781v-4.4531c1.3008 0.69922 2.5625 1.2266 3.7812 1.5781 1.2188 0.34375 2.3906 0.51562 3.5156 0.51562 1.1562 0 2.0352-0.1875 2.6406-0.5625 0.61328-0.38281 0.92188-0.9375 0.92188-1.6562 0-0.63281-0.21094-1.125-0.625-1.4688-0.41797-0.34375-1.2461-0.65625-2.4844-0.9375l-2.0312-0.4375c-2.043-0.4375-3.5391-1.1328-4.4844-2.0938-0.9375-0.95703-1.4062-2.25-1.4062-3.875 0-2.0312 0.65625-3.5938 1.9688-4.6875s3.1953-1.6406 5.6562-1.6406c1.125 0 2.2734 0.085938 3.4531 0.25 1.1875 0.16797 2.4141 0.42188 3.6875 0.76562z"/>
    </symbol>
    <symbol id="symbol-61" overflow="visible">
      <path d="m2.3594-21.281h4.8906v11.594l5.625-5.625h5.6875l-7.4688 7.0312 8.0625 8.2812h-5.9375l-5.9688-6.3906v6.3906h-4.8906z"/>
    </symbol>
    <symbol id="symbol-62" overflow="visible">
      <path d="m9.6406-12.188c-1.0859 0-1.9141 0.39062-2.4844 1.1719-0.57422 0.78125-0.85938 1.9062-0.85938 3.375s0.28516 2.5938 0.85938 3.375c0.57031 0.77344 1.3984 1.1562 2.4844 1.1562 1.0625 0 1.875-0.38281 2.4375-1.1562 0.57031-0.78125 0.85938-1.9062 0.85938-3.375s-0.28906-2.5938-0.85938-3.375c-0.5625-0.78125-1.375-1.1719-2.4375-1.1719zm0-3.5c2.6328 0 4.6914 0.71484 6.1719 2.1406 1.4766 1.418 2.2188 3.3867 2.2188 5.9062 0 2.5117-0.74219 4.4805-2.2188 5.9062-1.4805 1.418-3.5391 2.125-6.1719 2.125-2.6484 0-4.7148-0.70703-6.2031-2.125-1.4922-1.4258-2.2344-3.3945-2.2344-5.9062 0-2.5195 0.74219-4.4883 2.2344-5.9062 1.4883-1.4258 3.5547-2.1406 6.2031-2.1406z"/>
    </symbol>
    <symbol id="symbol-63" overflow="visible">
      <path d="m0.98438-15.312h4.7656l2.5625 10.547 2.5781-10.547h4.0938l2.5781 10.438 2.5781-10.438h4.75l-4.0312 15.312h-5.3438l-2.5781-10.531-2.5781 10.531h-5.3438z"/>
    </symbol>
    <symbol id="symbol-64" overflow="visible">
      <path d="m14.312-14.828v3.7188c-1.043-0.4375-2.0547-0.76562-3.0312-0.98438-0.98047-0.21875-1.9023-0.32812-2.7656-0.32812-0.92969 0-1.6211 0.11719-2.0781 0.34375-0.44922 0.23047-0.67188 0.58984-0.67188 1.0781 0 0.38672 0.17188 0.68359 0.51562 0.89062 0.34375 0.21094 0.95703 0.36719 1.8438 0.46875l0.85938 0.125c2.5078 0.32422 4.1953 0.85156 5.0625 1.5781 0.86328 0.73047 1.2969 1.8711 1.2969 3.4219 0 1.6367-0.60547 2.8672-1.8125 3.6875-1.1992 0.8125-2.9922 1.2188-5.375 1.2188-1.0234 0-2.0742-0.078125-3.1562-0.23438-1.0742-0.15625-2.1797-0.39453-3.3125-0.71875v-3.7188c0.96875 0.48047 1.9609 0.83984 2.9844 1.0781 1.0312 0.23047 2.0781 0.34375 3.1406 0.34375 0.95703 0 1.6758-0.12891 2.1562-0.39062 0.47656-0.26953 0.71875-0.66406 0.71875-1.1875 0-0.4375-0.16797-0.75781-0.5-0.96875-0.33594-0.21875-0.99609-0.38281-1.9844-0.5l-0.85938-0.10938c-2.1797-0.26953-3.7031-0.77344-4.5781-1.5156-0.875-0.73828-1.3125-1.8594-1.3125-3.3594 0-1.625 0.55078-2.8281 1.6562-3.6094 1.1133-0.78906 2.8203-1.1875 5.125-1.1875 0.89453 0 1.8359 0.074219 2.8281 0.21875 1 0.13672 2.082 0.35156 3.25 0.64062z"/>
    </symbol>
    <symbol id="symbol-65" overflow="visible">
      <path d="m12.422-21.281v3.2188h-2.7031c-0.6875 0-1.1719 0.125-1.4531 0.375-0.27344 0.25-0.40625 0.6875-0.40625 1.3125v1.0625h4.1875v3.5h-4.1875v11.812h-4.8906v-11.812h-2.4375v-3.5h2.4375v-1.0625c0-1.6641 0.46094-2.8984 1.3906-3.7031 0.92578-0.80078 2.3672-1.2031 4.3281-1.2031z"/>
    </symbol>
    <symbol id="symbol-66" overflow="visible">
      <path d="m16.547-12.766c0.61328-0.94531 1.3477-1.6719 2.2031-2.1719 0.85156-0.5 1.7891-0.75 2.8125-0.75 1.7578 0 3.0977 0.54688 4.0156 1.6406 0.92578 1.0859 1.3906 2.6562 1.3906 4.7188v9.3281h-4.9219v-7.9844-0.35938c0.007813-0.13281 0.015625-0.32031 0.015625-0.5625 0-1.082-0.16406-1.8633-0.48438-2.3438-0.3125-0.48828-0.82422-0.73438-1.5312-0.73438-0.92969 0-1.6484 0.38672-2.1562 1.1562-0.51172 0.76172-0.77344 1.8672-0.78125 3.3125v7.5156h-4.9219v-7.9844c0-1.6953-0.14844-2.7852-0.4375-3.2656-0.29297-0.48828-0.8125-0.73438-1.5625-0.73438-0.9375 0-1.6641 0.38672-2.1719 1.1562-0.51172 0.76172-0.76562 1.8594-0.76562 3.2969v7.5312h-4.9219v-15.312h4.9219v2.2344c0.60156-0.86328 1.2891-1.5156 2.0625-1.9531 0.78125-0.4375 1.6406-0.65625 2.5781-0.65625 1.0625 0 2 0.25781 2.8125 0.76562 0.8125 0.51172 1.4258 1.2305 1.8438 2.1562z"/>
    </symbol>
    <symbol id="symbol-67" overflow="visible">
      <path d="m17.75-9.3281v9.3281h-4.9219v-7.1094c0-1.3438-0.03125-2.2656-0.09375-2.7656s-0.16797-0.86719-0.3125-1.1094c-0.1875-0.3125-0.44922-0.55469-0.78125-0.73438-0.32422-0.17578-0.69531-0.26562-1.1094-0.26562-1.0234 0-1.8242 0.39844-2.4062 1.1875-0.58594 0.78125-0.875 1.8711-0.875 3.2656v7.5312h-4.8906v-21.281h4.8906v8.2031c0.73828-0.88281 1.5195-1.5391 2.3438-1.9688 0.83203-0.42578 1.75-0.64062 2.75-0.64062 1.7695 0 3.1133 0.54688 4.0312 1.6406 0.91406 1.0859 1.375 2.6562 1.375 4.7188z"/>
    </symbol>
    <symbol id="symbol-68" overflow="visible">
      <path d="m2.5781-20.406h5.875l7.4219 14v-14h4.9844v20.406h-5.875l-7.4219-14v14h-4.9844z"/>
    </symbol>
    <symbol id="symbol-69" overflow="visible">
      <path d="m2.1875-5.9688v-9.3438h4.9219v1.5312c0 0.83594-0.007813 1.875-0.015625 3.125-0.011719 1.25-0.015625 2.0859-0.015625 2.5 0 1.2422 0.03125 2.1328 0.09375 2.6719 0.070313 0.54297 0.17969 0.93359 0.32812 1.1719 0.20703 0.32422 0.47266 0.57422 0.79688 0.75 0.32031 0.16797 0.69141 0.25 1.1094 0.25 1.0195 0 1.8203-0.39062 2.4062-1.1719 0.58203-0.78125 0.875-1.8672 0.875-3.2656v-7.5625h4.8906v15.312h-4.8906v-2.2188c-0.74219 0.89844-1.5234 1.5586-2.3438 1.9844-0.82422 0.41406-1.7344 0.625-2.7344 0.625-1.7617 0-3.1055-0.53906-4.0312-1.625-0.92969-1.082-1.3906-2.6602-1.3906-4.7344z"/>
    </symbol>
    <symbol id="symbol-70" overflow="visible">
      <path d="m2.5781-20.406h8.7344c2.5938 0 4.582 0.57812 5.9688 1.7344 1.3945 1.1484 2.0938 2.7891 2.0938 4.9219 0 2.1367-0.69922 3.7812-2.0938 4.9375-1.3867 1.1562-3.375 1.7344-5.9688 1.7344h-3.4844v7.0781h-5.25zm5.25 3.8125v5.7031h2.9219c1.0195 0 1.8047-0.25 2.3594-0.75 0.5625-0.5 0.84375-1.2031 0.84375-2.1094 0-0.91406-0.28125-1.6172-0.84375-2.1094-0.55469-0.48828-1.3398-0.73438-2.3594-0.73438z"/>
    </symbol>
    <symbol id="symbol-71" overflow="visible">
      <path d="m2.3594-15.312h4.8906v15.031c0 2.0508-0.49609 3.6172-1.4844 4.7031-0.98047 1.082-2.4062 1.625-4.2812 1.625h-2.4219v-3.2188h0.85938c0.92578 0 1.5625-0.21094 1.9062-0.625 0.35156-0.41797 0.53125-1.2461 0.53125-2.4844zm0-5.9688h4.8906v4h-4.8906z"/>
    </symbol>
    <symbol id="symbol-72" overflow="visible">
      <path d="m14.719-14.828v3.9844c-0.65625-0.45703-1.3242-0.79688-2-1.0156-0.66797-0.21875-1.3594-0.32812-2.0781-0.32812-1.3672 0-2.4336 0.40234-3.2031 1.2031-0.76172 0.79297-1.1406 1.9062-1.1406 3.3438 0 1.4297 0.37891 2.543 1.1406 3.3438 0.76953 0.79297 1.8359 1.1875 3.2031 1.1875 0.75781 0 1.4844-0.10938 2.1719-0.32812 0.6875-0.22656 1.3203-0.56641 1.9062-1.0156v4c-0.76172 0.28125-1.5391 0.48828-2.3281 0.625-0.78125 0.14453-1.5742 0.21875-2.375 0.21875-2.7617 0-4.9219-0.70703-6.4844-2.125-1.5547-1.4141-2.3281-3.3828-2.3281-5.9062 0-2.5312 0.77344-4.5039 2.3281-5.9219 1.5625-1.4141 3.7227-2.125 6.4844-2.125 0.80078 0 1.5938 0.074219 2.375 0.21875 0.78125 0.13672 1.5547 0.35156 2.3281 0.64062z"/>
    </symbol>
    <symbol id="symbol-164" overflow="visible">
      <path d="m18.766-1.125c-0.96875 0.5-1.9805 0.875-3.0312 1.125-1.043 0.25781-2.1367 0.39062-3.2812 0.39062-3.3984 0-6.0898-0.94531-8.0781-2.8438-1.9922-1.9062-2.9844-4.4844-2.9844-7.7344 0-3.2578 0.99219-5.8359 2.9844-7.7344 1.9883-1.9062 4.6797-2.8594 8.0781-2.8594 1.1445 0 2.2383 0.13281 3.2812 0.39062 1.0508 0.25 2.0625 0.625 3.0312 1.125v4.2188c-0.98047-0.65625-1.9453-1.1406-2.8906-1.4531-0.94922-0.3125-1.9492-0.46875-3-0.46875-1.875 0-3.3516 0.60547-4.4219 1.8125-1.0742 1.1992-1.6094 2.8555-1.6094 4.9688 0 2.1055 0.53516 3.7617 1.6094 4.9688 1.0703 1.1992 2.5469 1.7969 4.4219 1.7969 1.0508 0 2.0508-0.14844 3-0.45312 0.94531-0.3125 1.9102-0.80078 2.8906-1.4688z"/>
    </symbol>
    <symbol id="symbol-165" overflow="visible">
      <path d="m13.734-11.141c-0.4375-0.19531-0.87109-0.34375-1.2969-0.4375-0.41797-0.10156-0.83984-0.15625-1.2656-0.15625-1.2617 0-2.2305 0.40625-2.9062 1.2188-0.67969 0.80469-1.0156 1.9531-1.0156 3.4531v7.0625h-4.8906v-15.312h4.8906v2.5156c0.625-1 1.3438-1.7266 2.1562-2.1875 0.82031-0.46875 1.8008-0.70312 2.9375-0.70312 0.16406 0 0.34375 0.011719 0.53125 0.03125 0.19531 0.011719 0.47656 0.039062 0.84375 0.078125z"/>
    </symbol>
    <symbol id="symbol-166" overflow="visible">
      <path d="m17.641-7.7031v1.4062h-11.453c0.125 1.1484 0.53906 2.0078 1.25 2.5781 0.70703 0.57422 1.7031 0.85938 2.9844 0.85938 1.0312 0 2.082-0.14844 3.1562-0.45312 1.082-0.3125 2.1914-0.77344 3.3281-1.3906v3.7656c-1.1562 0.4375-2.3125 0.76562-3.4688 0.98438-1.1562 0.22656-2.3125 0.34375-3.4688 0.34375-2.7734 0-4.9297-0.70312-6.4688-2.1094-1.5312-1.4062-2.2969-3.3789-2.2969-5.9219 0-2.5 0.75391-4.4609 2.2656-5.8906 1.5078-1.4375 3.582-2.1562 6.2188-2.1562 2.4062 0 4.332 0.73047 5.7812 2.1875 1.4453 1.4492 2.1719 3.3828 2.1719 5.7969zm-5.0312-1.625c0-0.92578-0.27344-1.6719-0.8125-2.2344-0.54297-0.57031-1.25-0.85938-2.125-0.85938-0.94922 0-1.7188 0.26562-2.3125 0.79688s-0.96484 1.2969-1.1094 2.2969z"/>
    </symbol>
    <symbol id="symbol-167" overflow="visible">
      <path d="m9.2188-6.8906c-1.0234 0-1.793 0.17188-2.3125 0.51562-0.51172 0.34375-0.76562 0.85547-0.76562 1.5312 0 0.625 0.20703 1.1172 0.625 1.4688 0.41406 0.34375 0.98828 0.51562 1.7188 0.51562 0.92578 0 1.7031-0.32812 2.3281-0.98438 0.63281-0.66406 0.95312-1.4922 0.95312-2.4844v-0.5625zm7.4688-1.8438v8.7344h-4.9219v-2.2656c-0.65625 0.92969-1.3984 1.6055-2.2188 2.0312-0.82422 0.41406-1.8242 0.625-3 0.625-1.5859 0-2.8711-0.45703-3.8594-1.375-0.99219-0.92578-1.4844-2.1289-1.4844-3.6094 0-1.7891 0.61328-3.1016 1.8438-3.9375 1.2383-0.84375 3.1797-1.2656 5.8281-1.2656h2.8906v-0.39062c0-0.76953-0.30859-1.332-0.92188-1.6875-0.61719-0.36328-1.5703-0.54688-2.8594-0.54688-1.0547 0-2.0312 0.10547-2.9375 0.3125-0.89844 0.21094-1.7305 0.52344-2.5 0.9375v-3.7344c1.0391-0.25 2.0859-0.44141 3.1406-0.57812 1.0625-0.13281 2.125-0.20312 3.1875-0.20312 2.7578 0 4.75 0.54688 5.9688 1.6406 1.2266 1.0859 1.8438 2.8555 1.8438 5.3125z"/>
    </symbol>
    <symbol id="symbol-168" overflow="visible">
      <path d="m7.7031-19.656v4.3438h5.0469v3.5h-5.0469v6.5c0 0.71094 0.14062 1.1875 0.42188 1.4375s0.83594 0.375 1.6719 0.375h2.5156v3.5h-4.1875c-1.9375 0-3.3125-0.39844-4.125-1.2031-0.80469-0.8125-1.2031-2.1797-1.2031-4.1094v-6.5h-2.4219v-3.5h2.4219v-4.3438z"/>
    </symbol>
    <symbol id="symbol-169" overflow="visible">
      <path d="m12.766-13.078v-8.2031h4.9219v21.281h-4.9219v-2.2188c-0.66797 0.90625-1.4062 1.5703-2.2188 1.9844s-1.7578 0.625-2.8281 0.625c-1.8867 0-3.4336-0.75-4.6406-2.25-1.2109-1.5-1.8125-3.4258-1.8125-5.7812 0-2.3633 0.60156-4.2969 1.8125-5.7969 1.207-1.5 2.7539-2.25 4.6406-2.25 1.0625 0 2 0.21484 2.8125 0.64062 0.82031 0.42969 1.5664 1.0859 2.2344 1.9688zm-3.2188 9.9219c1.0391 0 1.8359-0.37891 2.3906-1.1406 0.55078-0.76953 0.82812-1.8828 0.82812-3.3438 0-1.457-0.27734-2.5664-0.82812-3.3281-0.55469-0.76953-1.3516-1.1562-2.3906-1.1562-1.043 0-1.8398 0.38672-2.3906 1.1562-0.55469 0.76172-0.82812 1.8711-0.82812 3.3281 0 1.4609 0.27344 2.5742 0.82812 3.3438 0.55078 0.76172 1.3477 1.1406 2.3906 1.1406z"/>
    </symbol>
    <symbol id="symbol-170" overflow="visible">
      <path d="m10.5-3.1562c1.0508 0 1.8516-0.37891 2.4062-1.1406 0.55078-0.76953 0.82812-1.8828 0.82812-3.3438 0-1.457-0.27734-2.5664-0.82812-3.3281-0.55469-0.76953-1.3555-1.1562-2.4062-1.1562-1.0547 0-1.8594 0.38672-2.4219 1.1562-0.55469 0.77344-0.82812 1.8828-0.82812 3.3281 0 1.4492 0.27344 2.5586 0.82812 3.3281 0.5625 0.77344 1.3672 1.1562 2.4219 1.1562zm-3.25-9.9219c0.67578-0.88281 1.4219-1.5391 2.2344-1.9688 0.82031-0.42578 1.7656-0.64062 2.8281-0.64062 1.8945 0 3.4453 0.75 4.6562 2.25 1.207 1.5 1.8125 3.4336 1.8125 5.7969 0 2.3555-0.60547 4.2812-1.8125 5.7812-1.2109 1.5-2.7617 2.25-4.6562 2.25-1.0625 0-2.0078-0.21094-2.8281-0.625-0.8125-0.42578-1.5586-1.0859-2.2344-1.9844v2.2188h-4.8906v-21.281h4.8906z"/>
    </symbol>
    <symbol id="symbol-171" overflow="visible">
      <path d="m0.34375-15.312h4.8906l4.125 10.391 3.5-10.391h4.8906l-6.4375 16.766c-0.64844 1.6953-1.4023 2.8828-2.2656 3.5625-0.86719 0.6875-2 1.0312-3.4062 1.0312h-2.8438v-3.2188h1.5312c0.83203 0 1.4375-0.13672 1.8125-0.40625 0.38281-0.26172 0.67969-0.73047 0.89062-1.4062l0.14062-0.42188z"/>
    </symbol>
    <symbol id="symbol-172" overflow="visible">
      <path d="m16.781-19.766v4.3125c-1.125-0.5-2.2266-0.875-3.2969-1.125-1.0625-0.25781-2.0703-0.39062-3.0156-0.39062-1.25 0-2.1797 0.17969-2.7812 0.53125-0.60547 0.34375-0.90625 0.88281-0.90625 1.6094 0 0.54297 0.20312 0.96875 0.60938 1.2812 0.40625 0.30469 1.1406 0.5625 2.2031 0.78125l2.25 0.45312c2.2695 0.44922 3.8789 1.1406 4.8281 2.0781 0.95703 0.92969 1.4375 2.2461 1.4375 3.9531 0 2.25-0.66797 3.9297-2 5.0312-1.3359 1.0938-3.3711 1.6406-6.1094 1.6406-1.3047 0-2.6055-0.125-3.9062-0.375-1.3047-0.23828-2.6055-0.59766-3.9062-1.0781v-4.4531c1.3008 0.69922 2.5625 1.2266 3.7812 1.5781 1.2188 0.34375 2.3906 0.51562 3.5156 0.51562 1.1562 0 2.0352-0.1875 2.6406-0.5625 0.61328-0.38281 0.92188-0.9375 0.92188-1.6562 0-0.63281-0.21094-1.125-0.625-1.4688-0.41797-0.34375-1.2461-0.65625-2.4844-0.9375l-2.0312-0.4375c-2.043-0.4375-3.5391-1.1328-4.4844-2.0938-0.9375-0.95703-1.4062-2.25-1.4062-3.875 0-2.0312 0.65625-3.5938 1.9688-4.6875s3.1953-1.6406 5.6562-1.6406c1.125 0 2.2734 0.085938 3.4531 0.25 1.1875 0.16797 2.4141 0.42188 3.6875 0.76562z"/>
    </symbol>
    <symbol id="symbol-173" overflow="visible">
      <path d="m2.3594-15.312h4.8906v15.312h-4.8906zm0-5.9688h4.8906v4h-4.8906z"/>
    </symbol>
    <symbol id="symbol-174" overflow="visible">
      <path d="m16.547-12.766c0.61328-0.94531 1.3477-1.6719 2.2031-2.1719 0.85156-0.5 1.7891-0.75 2.8125-0.75 1.7578 0 3.0977 0.54688 4.0156 1.6406 0.92578 1.0859 1.3906 2.6562 1.3906 4.7188v9.3281h-4.9219v-7.9844-0.35938c0.007813-0.13281 0.015625-0.32031 0.015625-0.5625 0-1.082-0.16406-1.8633-0.48438-2.3438-0.3125-0.48828-0.82422-0.73438-1.5312-0.73438-0.92969 0-1.6484 0.38672-2.1562 1.1562-0.51172 0.76172-0.77344 1.8672-0.78125 3.3125v7.5156h-4.9219v-7.9844c0-1.6953-0.14844-2.7852-0.4375-3.2656-0.29297-0.48828-0.8125-0.73438-1.5625-0.73438-0.9375 0-1.6641 0.38672-2.1719 1.1562-0.51172 0.76172-0.76562 1.8594-0.76562 3.2969v7.5312h-4.9219v-15.312h4.9219v2.2344c0.60156-0.86328 1.2891-1.5156 2.0625-1.9531 0.78125-0.4375 1.6406-0.65625 2.5781-0.65625 1.0625 0 2 0.25781 2.8125 0.76562 0.8125 0.51172 1.4258 1.2305 1.8438 2.1562z"/>
    </symbol>
    <symbol id="symbol-175" overflow="visible">
      <path d="m9.6406-12.188c-1.0859 0-1.9141 0.39062-2.4844 1.1719-0.57422 0.78125-0.85938 1.9062-0.85938 3.375s0.28516 2.5938 0.85938 3.375c0.57031 0.77344 1.3984 1.1562 2.4844 1.1562 1.0625 0 1.875-0.38281 2.4375-1.1562 0.57031-0.78125 0.85938-1.9062 0.85938-3.375s-0.28906-2.5938-0.85938-3.375c-0.5625-0.78125-1.375-1.1719-2.4375-1.1719zm0-3.5c2.6328 0 4.6914 0.71484 6.1719 2.1406 1.4766 1.418 2.2188 3.3867 2.2188 5.9062 0 2.5117-0.74219 4.4805-2.2188 5.9062-1.4805 1.418-3.5391 2.125-6.1719 2.125-2.6484 0-4.7148-0.70703-6.2031-2.125-1.4922-1.4258-2.2344-3.3945-2.2344-5.9062 0-2.5195 0.74219-4.4883 2.2344-5.9062 1.4883-1.4258 3.5547-2.1406 6.2031-2.1406z"/>
    </symbol>
    <symbol id="symbol-176" overflow="visible">
      <path d="m17.75-9.3281v9.3281h-4.9219v-7.1406c0-1.3203-0.03125-2.2344-0.09375-2.7344s-0.16797-0.86719-0.3125-1.1094c-0.1875-0.3125-0.44922-0.55469-0.78125-0.73438-0.32422-0.17578-0.69531-0.26562-1.1094-0.26562-1.0234 0-1.8242 0.39844-2.4062 1.1875-0.58594 0.78125-0.875 1.8711-0.875 3.2656v7.5312h-4.8906v-15.312h4.8906v2.2344c0.73828-0.88281 1.5195-1.5391 2.3438-1.9688 0.83203-0.42578 1.75-0.64062 2.75-0.64062 1.7695 0 3.1133 0.54688 4.0312 1.6406 0.91406 1.0859 1.375 2.6562 1.375 4.7188z"/>
    </symbol>
    <symbol id="symbol-177" overflow="visible">
      <path d="m2.5781-20.406h14.203v3.9688h-8.9531v3.7969h8.4219v3.9844h-8.4219v8.6562h-5.25z"/>
    </symbol>
    <symbol id="symbol-178" overflow="visible">
      <path d="m14.312-14.828v3.7188c-1.043-0.4375-2.0547-0.76562-3.0312-0.98438-0.98047-0.21875-1.9023-0.32812-2.7656-0.32812-0.92969 0-1.6211 0.11719-2.0781 0.34375-0.44922 0.23047-0.67188 0.58984-0.67188 1.0781 0 0.38672 0.17188 0.68359 0.51562 0.89062 0.34375 0.21094 0.95703 0.36719 1.8438 0.46875l0.85938 0.125c2.5078 0.32422 4.1953 0.85156 5.0625 1.5781 0.86328 0.73047 1.2969 1.8711 1.2969 3.4219 0 1.6367-0.60547 2.8672-1.8125 3.6875-1.1992 0.8125-2.9922 1.2188-5.375 1.2188-1.0234 0-2.0742-0.078125-3.1562-0.23438-1.0742-0.15625-2.1797-0.39453-3.3125-0.71875v-3.7188c0.96875 0.48047 1.9609 0.83984 2.9844 1.0781 1.0312 0.23047 2.0781 0.34375 3.1406 0.34375 0.95703 0 1.6758-0.12891 2.1562-0.39062 0.47656-0.26953 0.71875-0.66406 0.71875-1.1875 0-0.4375-0.16797-0.75781-0.5-0.96875-0.33594-0.21875-0.99609-0.38281-1.9844-0.5l-0.85938-0.10938c-2.1797-0.26953-3.7031-0.77344-4.5781-1.5156-0.875-0.73828-1.3125-1.8594-1.3125-3.3594 0-1.625 0.55078-2.8281 1.6562-3.6094 1.1133-0.78906 2.8203-1.1875 5.125-1.1875 0.89453 0 1.8359 0.074219 2.8281 0.21875 1 0.13672 2.082 0.35156 3.25 0.64062z"/>
    </symbol>
    <symbol id="symbol-179" overflow="visible">
      <path d="m12.422-21.281v3.2188h-2.7031c-0.6875 0-1.1719 0.125-1.4531 0.375-0.27344 0.25-0.40625 0.6875-0.40625 1.3125v1.0625h4.1875v3.5h-4.1875v11.812h-4.8906v-11.812h-2.4375v-3.5h2.4375v-1.0625c0-1.6641 0.46094-2.8984 1.3906-3.7031 0.92578-0.80078 2.3672-1.2031 4.3281-1.2031z"/>
    </symbol>
    <symbol id="symbol-180" overflow="visible">
      <path d="m17.75-9.3281v9.3281h-4.9219v-7.1094c0-1.3438-0.03125-2.2656-0.09375-2.7656s-0.16797-0.86719-0.3125-1.1094c-0.1875-0.3125-0.44922-0.55469-0.78125-0.73438-0.32422-0.17578-0.69531-0.26562-1.1094-0.26562-1.0234 0-1.8242 0.39844-2.4062 1.1875-0.58594 0.78125-0.875 1.8711-0.875 3.2656v7.5312h-4.8906v-21.281h4.8906v8.2031c0.73828-0.88281 1.5195-1.5391 2.3438-1.9688 0.83203-0.42578 1.75-0.64062 2.75-0.64062 1.7695 0 3.1133 0.54688 4.0312 1.6406 0.91406 1.0859 1.375 2.6562 1.375 4.7188z"/>
    </symbol>
    <symbol id="symbol-181" overflow="visible">
      <path d="m2.5781-20.406h5.875l7.4219 14v-14h4.9844v20.406h-5.875l-7.4219-14v14h-4.9844z"/>
    </symbol>
    <symbol id="symbol-182" overflow="visible">
      <path d="m2.1875-5.9688v-9.3438h4.9219v1.5312c0 0.83594-0.007813 1.875-0.015625 3.125-0.011719 1.25-0.015625 2.0859-0.015625 2.5 0 1.2422 0.03125 2.1328 0.09375 2.6719 0.070313 0.54297 0.17969 0.93359 0.32812 1.1719 0.20703 0.32422 0.47266 0.57422 0.79688 0.75 0.32031 0.16797 0.69141 0.25 1.1094 0.25 1.0195 0 1.8203-0.39062 2.4062-1.1719 0.58203-0.78125 0.875-1.8672 0.875-3.2656v-7.5625h4.8906v15.312h-4.8906v-2.2188c-0.74219 0.89844-1.5234 1.5586-2.3438 1.9844-0.82422 0.41406-1.7344 0.625-2.7344 0.625-1.7617 0-3.1055-0.53906-4.0312-1.625-0.92969-1.082-1.3906-2.6602-1.3906-4.7344z"/>
    </symbol>
    <symbol id="symbol-183" overflow="visible">
      <path d="m2.5781-20.406h8.7344c2.5938 0 4.582 0.57812 5.9688 1.7344 1.3945 1.1484 2.0938 2.7891 2.0938 4.9219 0 2.1367-0.69922 3.7812-2.0938 4.9375-1.3867 1.1562-3.375 1.7344-5.9688 1.7344h-3.4844v7.0781h-5.25zm5.25 3.8125v5.7031h2.9219c1.0195 0 1.8047-0.25 2.3594-0.75 0.5625-0.5 0.84375-1.2031 0.84375-2.1094 0-0.91406-0.28125-1.6172-0.84375-2.1094-0.55469-0.48828-1.3398-0.73438-2.3594-0.73438z"/>
    </symbol>
    <symbol id="symbol-184" overflow="visible">
      <path d="m2.3594-15.312h4.8906v15.031c0 2.0508-0.49609 3.6172-1.4844 4.7031-0.98047 1.082-2.4062 1.625-4.2812 1.625h-2.4219v-3.2188h0.85938c0.92578 0 1.5625-0.21094 1.9062-0.625 0.35156-0.41797 0.53125-1.2461 0.53125-2.4844zm0-5.9688h4.8906v4h-4.8906z"/>
    </symbol>
    <symbol id="symbol-185" overflow="visible">
      <path d="m14.719-14.828v3.9844c-0.65625-0.45703-1.3242-0.79688-2-1.0156-0.66797-0.21875-1.3594-0.32812-2.0781-0.32812-1.3672 0-2.4336 0.40234-3.2031 1.2031-0.76172 0.79297-1.1406 1.9062-1.1406 3.3438 0 1.4297 0.37891 2.543 1.1406 3.3438 0.76953 0.79297 1.8359 1.1875 3.2031 1.1875 0.75781 0 1.4844-0.10938 2.1719-0.32812 0.6875-0.22656 1.3203-0.56641 1.9062-1.0156v4c-0.76172 0.28125-1.5391 0.48828-2.3281 0.625-0.78125 0.14453-1.5742 0.21875-2.375 0.21875-2.7617 0-4.9219-0.70703-6.4844-2.125-1.5547-1.4141-2.3281-3.3828-2.3281-5.9062 0-2.5312 0.77344-4.5039 2.3281-5.9219 1.5625-1.4141 3.7227-2.125 6.4844-2.125 0.80078 0 1.5938 0.074219 2.375 0.21875 0.78125 0.13672 1.5547 0.35156 2.3281 0.64062z"/>
    </symbol>
  </defs>
  <g transform="matrix(1, 0, 0, 1.513477, -23.671616, -213.069473)" style="">
    <use transform="matrix(1, 0, 0, 1, 70, 644)" xlink:href="#y"/>
    <use transform="matrix(1, 0, 0, 1, 90.55078125, 644)" xlink:href="#symbol-51"/>
    <use transform="matrix(1, 0, 0, 1, 104.359375, 644)" xlink:href="#symbol-52"/>
    <use transform="matrix(1, 0, 0, 1, 123.34765625, 644)" xlink:href="#symbol-53"/>
    <use transform="matrix(1, 0, 0, 1, 142.2421875, 644)" xlink:href="#symbol-54"/>
    <use transform="matrix(1, 0, 0, 1, 155.62890625, 644)" xlink:href="#symbol-52"/>
    <use transform="matrix(1, 0, 0, 1, 174.6171875, 644)" xlink:href="#symbol-55"/>
    <use transform="matrix(1, 0, 0, 1, 204.41015625, 644)" xlink:href="#symbol-56"/>
    <use transform="matrix(1, 0, 0, 1, 224.453125, 644)" xlink:href="#symbol-57"/>
    <use transform="matrix(1, 0, 0, 1, 252.453125, 644)" xlink:href="#symbol-58"/>
    <use transform="matrix(1, 0, 0, 1, 274.12109375, 644)" xlink:href="#symbol-59"/>
    <use transform="matrix(1, 0, 0, 1, 283.71875, 644)" xlink:href="#symbol-52"/>
    <use transform="matrix(1, 0, 0, 1, 302.7109375, 644)" xlink:href="#x"/>
    <use transform="matrix(1, 0, 0, 1, 320.76953125, 644)" xlink:href="#symbol-53"/>
    <use transform="matrix(1, 0, 0, 1, 339.6640625, 644)" xlink:href="#symbol-60"/>
    <use transform="matrix(1, 0, 0, 1, 359.59765625, 644)" xlink:href="#symbol-55"/>
    <use transform="matrix(1, 0, 0, 1, 379.640625, 644)" xlink:href="#symbol-52"/>
    <use transform="matrix(1, 0, 0, 1, 398.6328125, 644)" xlink:href="#symbol-51"/>
    <use transform="matrix(1, 0, 0, 1, 422.1875, 644)" xlink:href="#w"/>
    <use transform="matrix(1, 0, 0, 1, 442.3515625, 644)" xlink:href="#symbol-61"/>
    <use transform="matrix(1, 0, 0, 1, 460.9765625, 644)" xlink:href="#symbol-62"/>
    <use transform="matrix(1, 0, 0, 1, 480.2109375, 644)" xlink:href="#symbol-63"/>
    <use transform="matrix(1, 0, 0, 1, 506.078125, 644)" xlink:href="#symbol-53"/>
    <use transform="matrix(1, 0, 0, 1, 524.97265625, 644)" xlink:href="#symbol-59"/>
    <use transform="matrix(1, 0, 0, 1, 534.5703125, 644)" xlink:href="#symbol-64"/>
    <use transform="matrix(1, 0, 0, 1, 551.234375, 644)" xlink:href="#symbol-61"/>
    <use transform="matrix(1, 0, 0, 1, 569.859375, 644)" xlink:href="#symbol-57"/>
    <use transform="matrix(1, 0, 0, 1, 70, 672)" xlink:href="#symbol-65"/>
    <use transform="matrix(1, 0, 0, 1, 82.18359375, 672)" xlink:href="#symbol-51"/>
    <use transform="matrix(1, 0, 0, 1, 95.9921875, 672)" xlink:href="#symbol-62"/>
    <use transform="matrix(1, 0, 0, 1, 115.2265625, 672)" xlink:href="#symbol-66"/>
    <use transform="matrix(1, 0, 0, 1, 154.15234375, 672)" xlink:href="#symbol-54"/>
    <use transform="matrix(1, 0, 0, 1, 167.53515625, 672)" xlink:href="#symbol-67"/>
    <use transform="matrix(1, 0, 0, 1, 187.46875, 672)" xlink:href="#symbol-52"/>
    <use transform="matrix(1, 0, 0, 1, 216.20703125, 672)" xlink:href="#symbol-68"/>
    <use transform="matrix(1, 0, 0, 1, 239.640625, 672)" xlink:href="#symbol-62"/>
    <use transform="matrix(1, 0, 0, 1, 258.87890625, 672)" xlink:href="#symbol-69"/>
    <use transform="matrix(1, 0, 0, 1, 278.8125, 672)" xlink:href="#symbol-60"/>
    <use transform="matrix(1, 0, 0, 1, 308.4921875, 672)" xlink:href="#symbol-70"/>
    <use transform="matrix(1, 0, 0, 1, 329.015625, 672)" xlink:href="#symbol-51"/>
    <use transform="matrix(1, 0, 0, 1, 342.8203125, 672)" xlink:href="#symbol-62"/>
    <use transform="matrix(1, 0, 0, 1, 362.05859375, 672)" xlink:href="#symbol-71"/>
    <use transform="matrix(1, 0, 0, 1, 371.65625, 672)" xlink:href="#symbol-52"/>
    <use transform="matrix(1, 0, 0, 1, 390.6484375, 672)" xlink:href="#symbol-72"/>
    <use transform="matrix(1, 0, 0, 1, 407.2421875, 672)" xlink:href="#symbol-54"/>
    <g transform="matrix(0.862805, 0, 0, 0.66073, 36.011452, 96.221931)" style="">
      <path d="m473.79 200.92h-32.402c-5.2188 0-9.4531-4.1484-9.4531-9.2695 0-5.1172 4.2344-9.2695 9.4531-9.2695h32.406c5.2188 0 9.4531 4.1484 9.4531 9.2695 0.003906 5.1211-4.2383 9.2695-9.457 9.2695zm-72.91 0h-32.402c-5.2188 0-9.4531-4.1484-9.4531-9.2695 0-5.1172 4.2344-9.2695 9.4531-9.2695h32.406c5.2188 0 9.4531 4.1484 9.4531 9.2695s-4.2383 9.2695-9.457 9.2695zm-72.914 0h-32.406c-5.2188 0-9.4531-4.1484-9.4531-9.2695 0-5.1172 4.2344-9.2695 9.4531-9.2695h32.406c5.2188 0 9.4531 4.1484 9.4531 9.2695s-4.2344 9.2695-9.4531 9.2695zm-72.91 0h-32.406c-5.2188 0-9.4531-4.1484-9.4531-9.2695 0-5.1172 4.2344-9.2695 9.4531-9.2695h32.406c5.2188 0 9.4531 4.1484 9.4531 9.2695s-4.2344 9.2695-9.4531 9.2695z"/>
      <path d="m541.99 473.02h-383.98c-33.176 0-60.16-26.465-60.16-59v-268.03c0-32.535 26.988-59 60.16-59h383.98c33.176 0 60.16 26.473 60.16 59v268.03c0.007813 32.531-26.984 59-60.152 59zm-383.98-364.85c-21.262 0-38.555 16.961-38.555 37.816v268.03c0 20.855 17.297 37.816 38.555 37.816h383.98c21.262 0 38.555-16.961 38.555-37.816v-268.03c0-20.855-17.297-37.816-38.555-37.816z"/>
      <path d="m510.59 403.16h-321.53c-5.2188 0-9.4531-4.1484-9.4531-9.2695 0-5.1172 4.2344-9.2695 9.4531-9.2695h321.53c5.2188 0 9.4531 4.1484 9.4531 9.2695 0 5.1172-4.2344 9.2695-9.4531 9.2695z"/>
      <path d="m155.14 460.58c-1.2383 0-2.4922-0.24219-3.707-0.74609-4.8047-2.0117-7.0273-7.4609-4.9844-12.164l56.281-129.25c1.4883-3.4141 4.9062-5.6289 8.6914-5.6289h194.81c5.2188 0 9.4531 4.1484 9.4531 9.2695 0 5.1172-4.2344 9.2695-9.4531 9.2695h-188.57l-53.828 123.62c-1.5273 3.5195-5.0234 5.6289-8.6953 5.6289z"/>
      <path d="m510.95 403.02h-321.53c-5.2188 0-9.4531-4.1484-9.4531-9.2695 0-5.1172 4.2344-9.2695 9.4531-9.2695l321.53 0.003907c5.2188 0 9.4531 4.1484 9.4531 9.2695 0 5.1172-4.2344 9.2656-9.4531 9.2656z"/>
      <path d="m544.86 460.44c-3.6719 0-7.168-2.1094-8.6953-5.6328l-53.828-123.62-188.57 0.003906c-5.2188 0-9.4531-4.1484-9.4531-9.2695 0-5.1172 4.2344-9.2695 9.4531-9.2695h194.81c3.7852 0 7.207 2.2188 8.6914 5.6289l56.281 129.25c2.0508 4.7109-0.17969 10.152-4.9766 12.164-1.2188 0.50391-2.4766 0.74219-3.7148 0.74219z"/>
      <path d="m203.8 174.44c-0.77344 0-1.5508-0.09375-2.3359-0.28516-5.0586-1.2617-8.1211-6.3047-6.832-11.266l3.9922-15.398c1.2891-4.9609 6.4336-7.957 11.492-6.7031 5.0586 1.2617 8.1211 6.3047 6.832 11.266l-3.9922 15.398c-1.0938 4.1914-4.9336 6.9883-9.1562 6.9883z"/>
      <path d="m145.21 400.6c-0.77344 0-1.5586-0.09375-2.3359-0.28516-5.0586-1.2617-8.1211-6.3047-6.832-11.266l8.6797-33.504c1.2891-4.9688 6.4453-7.9648 11.492-6.7031 5.0586 1.2617 8.1211 6.3047 6.832 11.266l-8.6797 33.504c-1.0898 4.1914-4.9375 6.9883-9.1562 6.9883zm19.527-75.391c-0.77344 0-1.5508-0.09375-2.3359-0.28516-5.0625-1.2617-8.1211-6.3047-6.8359-11.266l8.6797-33.504c1.2891-4.9688 6.4453-7.957 11.484-6.7031 5.0625 1.2617 8.1211 6.3047 6.8359 11.266l-8.6797 33.504c-1.082 4.2031-4.9258 6.9883-9.1484 6.9883zm19.535-75.379c-0.77344 0-1.5508-0.09375-2.3359-0.28516-5.0625-1.2617-8.1211-6.3047-6.8359-11.266l8.6797-33.504c1.2891-4.9609 6.4453-7.957 11.484-6.7031 5.0625 1.2617 8.1211 6.3047 6.8359 11.266l-8.6797 33.504c-1.0859 4.1914-4.9336 6.9883-9.1484 6.9883z"/>
      <path d="m130.37 457.88c-0.77344 0-1.5508-0.09375-2.3359-0.28516-5.0586-1.2617-8.1211-6.3047-6.832-11.266l3.9922-15.398c1.2891-4.9688 6.4336-7.9648 11.492-6.7031 5.0586 1.2617 8.1211 6.3047 6.832 11.266l-3.9922 15.398c-1.0898 4.1953-4.9375 6.9883-9.1562 6.9883z"/>
      <path d="m496.2 174.44c-4.2188 0-8.0625-2.793-9.1562-6.9883l-3.9922-15.398c-1.2812-4.9609 1.7734-10.008 6.832-11.266 5.0508-1.2656 10.203 1.7344 11.492 6.7031l3.9922 15.398c1.2812 4.9609-1.7734 10.008-6.832 11.266-0.78125 0.1875-1.5625 0.28516-2.3359 0.28516z"/>
      <path d="m554.79 400.6c-4.2188 0-8.0625-2.793-9.1562-6.9883l-8.6797-33.504c-1.2812-4.9609 1.7734-10.008 6.832-11.266 5.0352-1.2656 10.203 1.7344 11.492 6.7031l8.6797 33.504c1.2812 4.9609-1.7734 10.008-6.832 11.266-0.78125 0.1875-1.5625 0.28516-2.3359 0.28516zm-19.527-75.391c-4.2188 0-8.0625-2.793-9.1562-6.9883l-8.6797-33.504c-1.2812-4.9609 1.7734-10.008 6.8359-11.266 5.0625-1.2617 10.203 1.7422 11.484 6.7031l8.6797 33.504c1.2812 4.9609-1.7734 10.008-6.8359 11.266-0.77734 0.19922-1.5625 0.28516-2.3281 0.28516zm-19.535-75.379c-4.2188 0-8.0625-2.793-9.1562-6.9883l-8.6797-33.504c-1.2812-4.9609 1.7734-10.008 6.8359-11.266 5.0625-1.2656 10.203 1.7422 11.484 6.7031l8.6797 33.504c1.2812 4.9609-1.7734 10.008-6.8359 11.266-0.77734 0.1875-1.5547 0.28516-2.3281 0.28516z"/>
      <path d="m569.63 457.88c-4.2188 0-8.0625-2.793-9.1562-6.9883l-3.9922-15.398c-1.2812-4.9609 1.7734-10.008 6.832-11.266 5.0391-1.2656 10.203 1.7344 11.492 6.7031l3.9922 15.398c1.2812 4.9609-1.7734 10.008-6.832 11.266-0.78125 0.19531-1.5625 0.28516-2.3359 0.28516z"/>
      <path d="m397.15 264.14c-2.5469 0-5.0898-1.0039-6.9492-2.9844l-18.688-19.879c-3.5391-3.7617-3.2969-9.625 0.54297-13.098 3.8398-3.4727 9.8242-3.2305 13.355 0.53125l18.688 19.879c3.5391 3.7617 3.2969 9.625-0.54297 13.098-1.8203 1.6367-4.1172 2.4531-6.4062 2.4531z"/>
      <path d="m302.85 264.14c-2.2891 0-4.5859-0.8125-6.4023-2.4531-3.8398-3.4727-4.082-9.3359-0.54297-13.098l18.688-19.879c3.5391-3.7617 9.5195-4.0039 13.355-0.53125 3.8398 3.4727 4.082 9.3359 0.54297 13.098l-18.688 19.879c-1.8633 1.9766-4.4062 2.9844-6.9531 2.9844z"/>
      <path d="m350 276.04c-5.2188 0-9.4531-4.1484-9.4531-9.2695v-31.781c0-5.1172 4.2344-9.2695 9.4531-9.2695s9.4531 4.1484 9.4531 9.2695v31.781c0 5.1211-4.2344 9.2695-9.4531 9.2695z"/>
      <use transform="matrix(1, 0, 0, 1, 70, 644)" xlink:href="#symbol-164"/>
      <use transform="matrix(1, 0, 0, 1, 90.55078125, 644)" xlink:href="#symbol-165"/>
      <use transform="matrix(1, 0, 0, 1, 104.359375, 644)" xlink:href="#symbol-166"/>
      <use transform="matrix(1, 0, 0, 1, 123.34765625, 644)" xlink:href="#symbol-167"/>
      <use transform="matrix(1, 0, 0, 1, 142.2421875, 644)" xlink:href="#symbol-168"/>
      <use transform="matrix(1, 0, 0, 1, 155.62890625, 644)" xlink:href="#symbol-166"/>
      <use transform="matrix(1, 0, 0, 1, 174.6171875, 644)" xlink:href="#symbol-169"/>
      <use transform="matrix(1, 0, 0, 1, 204.41015625, 644)" xlink:href="#symbol-170"/>
      <use transform="matrix(1, 0, 0, 1, 224.453125, 644)" xlink:href="#symbol-171"/>
      <use transform="matrix(1, 0, 0, 1, 252.453125, 644)" xlink:href="#symbol-172"/>
      <use transform="matrix(1, 0, 0, 1, 272.6171875, 644)" xlink:href="#symbol-173"/>
      <use transform="matrix(1, 0, 0, 1, 282.21484375, 644)" xlink:href="#symbol-174"/>
      <use transform="matrix(1, 0, 0, 1, 311.390625, 644)" xlink:href="#symbol-175"/>
      <use transform="matrix(1, 0, 0, 1, 330.625, 644)" xlink:href="#symbol-176"/>
      <use transform="matrix(1, 0, 0, 1, 350.5625, 644)" xlink:href="#symbol-166"/>
      <use transform="matrix(1, 0, 0, 1, 379.296875, 644)" xlink:href="#symbol-177"/>
      <use transform="matrix(1, 0, 0, 1, 398.42578125, 644)" xlink:href="#symbol-166"/>
      <use transform="matrix(1, 0, 0, 1, 417.4140625, 644)" xlink:href="#symbol-165"/>
      <use transform="matrix(1, 0, 0, 1, 431.2265625, 644)" xlink:href="#symbol-176"/>
      <use transform="matrix(1, 0, 0, 1, 451.15625, 644)" xlink:href="#symbol-167"/>
      <use transform="matrix(1, 0, 0, 1, 470.0546875, 644)" xlink:href="#symbol-176"/>
      <use transform="matrix(1, 0, 0, 1, 489.984375, 644)" xlink:href="#symbol-169"/>
      <use transform="matrix(1, 0, 0, 1, 510.03125, 644)" xlink:href="#symbol-166"/>
      <use transform="matrix(1, 0, 0, 1, 529.01953125, 644)" xlink:href="#symbol-178"/>
      <use transform="matrix(1, 0, 0, 1, 70, 672)" xlink:href="#symbol-179"/>
      <use transform="matrix(1, 0, 0, 1, 82.18359375, 672)" xlink:href="#symbol-165"/>
      <use transform="matrix(1, 0, 0, 1, 95.9921875, 672)" xlink:href="#symbol-175"/>
      <use transform="matrix(1, 0, 0, 1, 115.2265625, 672)" xlink:href="#symbol-174"/>
      <use transform="matrix(1, 0, 0, 1, 154.15234375, 672)" xlink:href="#symbol-168"/>
      <use transform="matrix(1, 0, 0, 1, 167.53515625, 672)" xlink:href="#symbol-180"/>
      <use transform="matrix(1, 0, 0, 1, 187.46875, 672)" xlink:href="#symbol-166"/>
      <use transform="matrix(1, 0, 0, 1, 216.20703125, 672)" xlink:href="#symbol-181"/>
      <use transform="matrix(1, 0, 0, 1, 239.640625, 672)" xlink:href="#symbol-175"/>
      <use transform="matrix(1, 0, 0, 1, 258.87890625, 672)" xlink:href="#symbol-182"/>
      <use transform="matrix(1, 0, 0, 1, 278.8125, 672)" xlink:href="#symbol-176"/>
      <use transform="matrix(1, 0, 0, 1, 308.4921875, 672)" xlink:href="#symbol-183"/>
      <use transform="matrix(1, 0, 0, 1, 329.015625, 672)" xlink:href="#symbol-165"/>
      <use transform="matrix(1, 0, 0, 1, 342.8203125, 672)" xlink:href="#symbol-175"/>
      <use transform="matrix(1, 0, 0, 1, 362.05859375, 672)" xlink:href="#symbol-184"/>
      <use transform="matrix(1, 0, 0, 1, 371.65625, 672)" xlink:href="#symbol-166"/>
      <use transform="matrix(1, 0, 0, 1, 390.6484375, 672)" xlink:href="#symbol-185"/>
      <use transform="matrix(1, 0, 0, 1, 407.2421875, 672)" xlink:href="#symbol-168"/>
    </g>
  </g>
</svg>