<?xml version="1.0" encoding="utf-8"?>
<svg viewBox="0 0 500 500" xmlns="http://www.w3.org/2000/svg" xmlns:xlink="http://www.w3.org/1999/xlink">
  <defs>
    <symbol id="o" overflow="visible">
      <path d="m29.312-1.75c-1.5117 0.78125-3.0898 1.3711-4.7344 1.7656-1.6367 0.40625-3.3398 0.60938-5.1094 0.60938-5.3125 0-9.5273-1.4844-12.641-4.4531-3.1055-2.9688-4.6562-7-4.6562-12.094s1.5508-9.125 4.6562-12.094c3.1133-2.9688 7.3281-4.4531 12.641-4.4531 1.7695 0 3.4727 0.19922 5.1094 0.59375 1.6445 0.39844 3.2227 0.99219 4.7344 1.7812v6.5938c-1.5312-1.0391-3.0391-1.8008-4.5156-2.2812-1.4805-0.48828-3.0391-0.73438-4.6719-0.73438-2.9375 0-5.2461 0.94531-6.9219 2.8281-1.6797 1.875-2.5156 4.4648-2.5156 7.7656 0 3.293 0.83594 5.8828 2.5156 7.7656 1.6758 1.875 3.9844 2.8125 6.9219 2.8125 1.6328 0 3.1914-0.23828 4.6719-0.71875 1.4766-0.48828 2.9844-1.2539 4.5156-2.2969z"/>
    </symbol>
    <symbol id="i" overflow="visible">
      <path d="m21.453-17.406c-0.67969-0.3125-1.3516-0.53906-2.0156-0.6875-0.65625-0.15625-1.3203-0.23438-1.9844-0.23438-1.9688 0-3.4844 0.63281-4.5469 1.8906-1.0547 1.2617-1.5781 3.0703-1.5781 5.4219v11.016h-7.6562v-23.922h7.6562v3.9219c0.97656-1.5625 2.1016-2.7031 3.375-3.4219 1.2812-0.71875 2.8125-1.0781 4.5938-1.0781 0.25 0 0.52344 0.011719 0.82812 0.03125 0.30078 0.023438 0.73438 0.070312 1.2969 0.14062z"/>
    </symbol>
    <symbol id="d" overflow="visible">
      <path d="m27.562-12.031v2.1875h-17.891c0.1875 1.793 0.83203 3.1367 1.9375 4.0312 1.1133 0.89844 2.6719 1.3438 4.6719 1.3438 1.6016 0 3.25-0.23438 4.9375-0.70312 1.6875-0.47656 3.4219-1.2031 5.2031-2.1719v5.8906c-1.8047 0.6875-3.6094 1.2031-5.4219 1.5469-1.8125 0.35156-3.6211 0.53125-5.4219 0.53125-4.3359 0-7.7031-1.0977-10.109-3.2969-2.3984-2.207-3.5938-5.2969-3.5938-9.2656 0-3.9062 1.1758-6.9727 3.5312-9.2031 2.3633-2.2383 5.6094-3.3594 9.7344-3.3594 3.7578 0 6.7695 1.1367 9.0312 3.4062 2.2578 2.2617 3.3906 5.2812 3.3906 9.0625zm-7.8594-2.5312c0-1.457-0.42969-2.6289-1.2812-3.5156-0.84375-0.89453-1.9492-1.3438-3.3125-1.3438-1.4922 0-2.6992 0.41797-3.625 1.25-0.91797 0.83594-1.4922 2.0391-1.7188 3.6094z"/>
    </symbol>
    <symbol id="a" overflow="visible">
      <path d="m14.391-10.766c-1.5938 0-2.793 0.27344-3.5938 0.8125-0.80469 0.54297-1.2031 1.3398-1.2031 2.3906 0 0.96875 0.32031 1.7305 0.96875 2.2812 0.64453 0.54297 1.5469 0.8125 2.7031 0.8125 1.4375 0 2.6445-0.51562 3.625-1.5469 0.98828-1.0312 1.4844-2.3203 1.4844-3.875v-0.875zm11.688-2.8906v13.656h-7.7031v-3.5469c-1.0312 1.4492-2.1875 2.5078-3.4688 3.1719s-2.8398 1-4.6719 1c-2.4805 0-4.4961-0.72266-6.0469-2.1719-1.543-1.4453-2.3125-3.3203-2.3125-5.625 0-2.8125 0.96094-4.8672 2.8906-6.1719 1.9375-1.3125 4.9688-1.9688 9.0938-1.9688h4.5156v-0.60938c0-1.207-0.48047-2.0938-1.4375-2.6562-0.94922-0.5625-2.4375-0.84375-4.4688-0.84375-1.6367 0-3.1562 0.16797-4.5625 0.5-1.4062 0.32422-2.7188 0.8125-3.9375 1.4688v-5.8281c1.6445-0.40625 3.2891-0.70703 4.9375-0.90625 1.6562-0.20703 3.3047-0.3125 4.9531-0.3125 4.3203 0 7.4375 0.85547 9.3438 2.5625 1.9141 1.6992 2.875 4.4609 2.875 8.2812z"/>
    </symbol>
    <symbol id="c" overflow="visible">
      <path d="m12.031-30.719v6.7969h7.875v5.4688h-7.875v10.141c0 1.1172 0.21875 1.8711 0.65625 2.2656 0.4375 0.38672 1.3125 0.57812 2.625 0.57812h3.9375v5.4688h-6.5625c-3.0234 0-5.1641-0.62891-6.4219-1.8906-1.2617-1.2578-1.8906-3.3984-1.8906-6.4219v-10.141h-3.7969v-5.4688h3.7969v-6.7969z"/>
    </symbol>
    <symbol id="h" overflow="visible">
      <path d="m19.953-20.422v-12.812h7.6875v33.234h-7.6875v-3.4531c-1.0547 1.4062-2.2148 2.4375-3.4844 3.0938-1.2734 0.65625-2.7422 0.98438-4.4062 0.98438-2.9492 0-5.3711-1.1719-7.2656-3.5156-1.8867-2.3438-2.8281-5.3594-2.8281-9.0469s0.94141-6.7031 2.8281-9.0469c1.8945-2.3438 4.3164-3.5156 7.2656-3.5156 1.6562 0 3.1172 0.33594 4.3906 1 1.2812 0.65625 2.4453 1.6836 3.5 3.0781zm-5.0469 15.484c1.6445 0 2.8945-0.59766 3.75-1.7969 0.86328-1.1953 1.2969-2.9297 1.2969-5.2031 0-2.2812-0.43359-4.0195-1.2969-5.2188-0.85547-1.1953-2.1055-1.7969-3.75-1.7969-1.625 0-2.8711 0.60156-3.7344 1.7969-0.85547 1.1992-1.2812 2.9375-1.2812 5.2188 0 2.2734 0.42578 4.0078 1.2812 5.2031 0.86328 1.1992 2.1094 1.7969 3.7344 1.7969z"/>
    </symbol>
    <symbol id="g" overflow="visible">
      <path d="m16.406-4.9375c1.6328 0 2.8828-0.59766 3.75-1.7969 0.86328-1.1953 1.2969-2.9297 1.2969-5.2031 0-2.2812-0.43359-4.0195-1.2969-5.2188-0.86719-1.1953-2.1172-1.7969-3.75-1.7969-1.6367 0-2.8906 0.60547-3.7656 1.8125-0.875 1.1992-1.3125 2.9336-1.3125 5.2031 0 2.2617 0.4375 3.9961 1.3125 5.2031 0.875 1.1992 2.1289 1.7969 3.7656 1.7969zm-5.0781-15.484c1.0508-1.3945 2.2188-2.4219 3.5-3.0781 1.2812-0.66406 2.7539-1 4.4219-1 2.9453 0 5.3672 1.1719 7.2656 3.5156 1.8945 2.3438 2.8438 5.3594 2.8438 9.0469s-0.94922 6.7031-2.8438 9.0469c-1.8984 2.3438-4.3203 3.5156-7.2656 3.5156-1.668 0-3.1406-0.33594-4.4219-1s-2.4492-1.6914-3.5-3.0781v3.4531h-7.6562v-33.234h7.6562z"/>
    </symbol>
    <symbol id="f" overflow="visible">
      <path d="m0.53125-23.922h7.6562l6.4219 16.234 5.4688-16.234h7.6562l-10.062 26.188c-1.0117 2.6641-2.1953 4.5234-3.5469 5.5781-1.3438 1.0625-3.1211 1.5938-5.3281 1.5938h-4.4219v-5.0156h2.3906c1.3008 0 2.2422-0.21094 2.8281-0.625 0.59375-0.40625 1.0547-1.1484 1.3906-2.2188l0.20312-0.65625z"/>
    </symbol>
    <symbol id="e" overflow="visible">
      <path d="m4.0156-31.891h13.656c4.0508 0 7.1602 0.90234 9.3281 2.7031 2.1758 1.8047 3.2656 4.3711 3.2656 7.7031 0 3.3438-1.0898 5.918-3.2656 7.7188-2.168 1.8047-5.2773 2.7031-9.3281 2.7031h-5.4375v11.062h-8.2188zm8.2188 5.9531v8.9062h4.5625c1.5938 0 2.8203-0.38281 3.6875-1.1562 0.875-0.78125 1.3125-1.8789 1.3125-3.2969 0-1.4258-0.4375-2.5234-1.3125-3.2969-0.86719-0.76953-2.0938-1.1562-3.6875-1.1562z"/>
    </symbol>
    <symbol id="b" overflow="visible">
      <path d="m27.734-14.562v14.562h-7.7031v-11.109c0-2.0938-0.046875-3.5312-0.14062-4.3125-0.085937-0.78125-0.24219-1.3594-0.46875-1.7344-0.30469-0.5-0.71094-0.88281-1.2188-1.1562-0.51172-0.28125-1.0938-0.42188-1.75-0.42188-1.5938 0-2.8516 0.61719-3.7656 1.8438-0.90625 1.2305-1.3594 2.9375-1.3594 5.125v11.766h-7.6562v-33.234h7.6562v12.812c1.1445-1.3945 2.3633-2.4219 3.6562-3.0781 1.3008-0.66406 2.7383-1 4.3125-1 2.7578 0 4.8516 0.85156 6.2812 2.5469 1.4375 1.6875 2.1562 4.1523 2.1562 7.3906z"/>
    </symbol>
    <symbol id="n" overflow="visible">
      <path d="m15.062-19.031c-1.6992 0-2.9961 0.60938-3.8906 1.8281-0.88672 1.2188-1.3281 2.9766-1.3281 5.2656 0 2.293 0.44141 4.0469 1.3281 5.2656 0.89453 1.2188 2.1914 1.8281 3.8906 1.8281 1.6641 0 2.9375-0.60938 3.8125-1.8281 0.88281-1.2188 1.3281-2.9727 1.3281-5.2656 0-2.2891-0.44531-4.0469-1.3281-5.2656-0.875-1.2188-2.1484-1.8281-3.8125-1.8281zm0-5.4688c4.1133 0 7.3281 1.1094 9.6406 3.3281s3.4688 5.2969 3.4688 9.2344c0 3.9297-1.1562 7.0078-3.4688 9.2344-2.3125 2.2188-5.5273 3.3281-9.6406 3.3281-4.1367 0-7.3711-1.1094-9.7031-3.3281-2.3242-2.2266-3.4844-5.3047-3.4844-9.2344 0-3.9375 1.1602-7.0156 3.4844-9.2344 2.332-2.2188 5.5664-3.3281 9.7031-3.3281z"/>
    </symbol>
    <symbol id="m" overflow="visible">
      <path d="m27.734-14.562v14.562h-7.7031v-11.156c0-2.0625-0.046875-3.4844-0.14062-4.2656-0.085937-0.78125-0.24219-1.3594-0.46875-1.7344-0.30469-0.5-0.71094-0.88281-1.2188-1.1562-0.51172-0.28125-1.0938-0.42188-1.75-0.42188-1.5938 0-2.8516 0.61719-3.7656 1.8438-0.90625 1.2305-1.3594 2.9375-1.3594 5.125v11.766h-7.6562v-23.922h7.6562v3.5c1.1445-1.3945 2.3633-2.4219 3.6562-3.0781 1.3008-0.66406 2.7383-1 4.3125-1 2.7578 0 4.8516 0.85156 6.2812 2.5469 1.4375 1.6875 2.1562 4.1523 2.1562 7.3906z"/>
    </symbol>
    <symbol id="l" overflow="visible">
      <path d="m3.6719-33.234h7.6562v33.234h-7.6562z"/>
    </symbol>
    <symbol id="k" overflow="visible">
      <path d="m11.328-3.4531v12.547h-7.6562v-33.016h7.6562v3.5c1.0508-1.3945 2.2188-2.4219 3.5-3.0781 1.2812-0.66406 2.7539-1 4.4219-1 2.9453 0 5.3672 1.1719 7.2656 3.5156 1.8945 2.3438 2.8438 5.3594 2.8438 9.0469s-0.94922 6.7031-2.8438 9.0469c-1.8984 2.3438-4.3203 3.5156-7.2656 3.5156-1.668 0-3.1406-0.33594-4.4219-1s-2.4492-1.6914-3.5-3.0781zm5.0781-15.5c-1.6367 0-2.8906 0.60547-3.7656 1.8125-0.875 1.1992-1.3125 2.9336-1.3125 5.2031 0 2.2617 0.4375 3.9961 1.3125 5.2031 0.875 1.1992 2.1289 1.7969 3.7656 1.7969 1.6328 0 2.8828-0.59766 3.75-1.7969 0.86328-1.1953 1.2969-2.9297 1.2969-5.2031 0-2.2812-0.43359-4.0195-1.2969-5.2188-0.86719-1.1953-2.1172-1.7969-3.75-1.7969z"/>
    </symbol>
    <symbol id="j" overflow="visible">
      <path d="m0.21875-31.891h29.391v6.2188h-10.578v25.672h-8.2188v-25.672h-10.594z"/>
    </symbol>
  </defs>
  <g transform="matrix(1.26254, 0, 0, 1.271784, -179.369553, -217.103424)" style="">
    <path d="M 320.979 431.477 L 412.166 431.477 C 393.392 419.571 359.641 402.127 320.979 400.237 Z" style=""/>
    <path d="M 334.061 466.122 C 334.061 465.287 333.717 464.486 333.104 463.896 C 332.49 463.305 331.658 462.973 330.791 462.973 L 320.979 462.973 L 320.979 469.272 L 330.791 469.272 C 331.658 469.272 332.489 468.94 333.104 468.35 C 333.717 467.759 334.061 466.958 334.061 466.122 Z" style=""/>
    <path d="M 481.502 469.268 L 507.275 469.268 L 507.272 469.268 C 505.318 467.063 503.244 464.96 501.058 462.969 L 477.119 462.969 Z" style=""/>
    <path d="M 445.26 500.761 C 438.322 500.761 431.666 503.415 426.758 508.138 C 421.852 512.866 419.096 519.273 419.096 525.954 C 419.096 532.636 421.852 539.044 426.758 543.771 C 431.666 548.495 438.322 551.148 445.26 551.148 C 452.198 551.148 458.853 548.495 463.762 543.771 C 468.668 539.044 471.424 532.636 471.424 525.954 C 471.424 519.273 468.668 512.865 463.762 508.138 C 458.853 503.415 452.198 500.761 445.26 500.761 Z M 445.26 544.85 C 440.057 544.85 435.063 542.859 431.383 539.317 C 427.705 535.774 425.637 530.966 425.637 525.955 C 425.637 520.945 427.704 516.136 431.383 512.594 C 435.064 509.052 440.057 507.06 445.26 507.06 C 450.463 507.06 455.457 509.051 459.136 512.594 C 462.814 516.136 464.884 520.945 464.884 525.955 C 464.884 530.966 462.815 535.775 459.136 539.317 C 455.457 542.859 450.463 544.85 445.26 544.85 Z" style=""/>
    <path d="M 451.801 525.954 C 451.801 529.433 448.872 532.253 445.26 532.253 C 441.648 532.253 438.719 529.433 438.719 525.954 C 438.719 522.476 441.648 519.656 445.26 519.656 C 448.872 519.656 451.801 522.476 451.801 525.954" style=""/>
    <path d="M 177.927 462.969 L 157.453 462.969 L 157.453 469.268 L 173.543 469.268 Z" style=""/>
    <path d="M 477.965 481.864 C 475.778 481.854 473.741 480.791 472.537 479.031 L 459.454 460.135 C 458.077 458.231 457.951 455.737 459.128 453.71 C 460.244 451.646 462.466 450.356 464.884 450.372 L 481.563 450.372 C 472.235 446.216 462.08 444.066 451.801 444.074 L 320.979 444.074 L 320.979 450.372 L 330.791 450.372 C 336.633 450.372 342.03 453.372 344.953 458.246 C 347.873 463.119 347.873 469.119 344.953 473.992 C 342.03 478.865 336.633 481.865 330.791 481.865 L 320.979 481.865 L 320.979 519.656 L 406.604 519.656 C 408.669 507.824 416.453 497.643 427.577 492.229 C 438.696 486.817 451.826 486.817 462.945 492.229 C 474.068 497.643 481.853 507.824 483.917 519.656 L 523.754 519.656 L 523.754 513.358 C 523.757 502.403 521.044 491.606 515.841 481.865 Z" style=""/>
    <path d="M 307.897 431.477 L 307.897 400.237 C 275.206 402.875 243.788 413.639 216.71 431.477 Z" style=""/>
    <path d="M 249.027 525.954 C 249.027 529.433 246.098 532.253 242.486 532.253 C 238.873 532.253 235.944 529.433 235.944 525.954 C 235.944 522.476 238.873 519.656 242.486 519.656 C 246.098 519.656 249.027 522.476 249.027 525.954" style=""/>
    <path d="M 242.486 500.761 C 235.547 500.761 228.893 503.415 223.984 508.138 C 219.079 512.866 216.321 519.273 216.321 525.954 C 216.321 532.636 219.079 539.044 223.984 543.771 C 228.893 548.495 235.547 551.148 242.486 551.148 C 249.424 551.148 256.079 548.495 260.987 543.771 C 265.894 539.044 268.65 532.636 268.65 525.954 C 268.65 519.273 265.894 512.865 260.987 508.138 C 256.079 503.415 249.424 500.761 242.486 500.761 Z M 242.486 544.85 C 237.282 544.85 232.288 542.859 228.61 539.317 C 224.931 535.774 222.864 530.966 222.864 525.955 C 222.864 520.945 224.931 516.136 228.61 512.594 C 232.289 509.052 237.283 507.06 242.486 507.06 C 247.688 507.06 252.684 509.051 256.362 512.594 C 260.041 516.136 262.109 520.945 262.109 525.955 C 262.109 530.966 260.042 535.775 256.362 539.317 C 252.683 542.859 247.688 544.85 242.486 544.85 Z" style=""/>
    <path d="M 157.452 450.372 L 190.157 450.372 C 192.574 450.356 194.797 451.646 195.912 453.71 C 197.089 455.737 196.964 458.231 195.586 460.135 L 182.504 479.031 C 181.3 480.791 179.262 481.854 177.075 481.864 L 157.452 481.864 L 157.452 486.274 L 180.608 519.656 L 203.829 519.656 C 205.894 507.823 213.679 497.642 224.802 492.229 C 235.922 486.816 249.051 486.816 260.17 492.229 C 271.293 497.642 279.078 507.823 281.143 519.656 L 307.897 519.656 L 307.897 444.074 L 163.993 444.074 C 160.38 444.074 157.452 446.894 157.452 450.372 Z" style=""/>
    <path d="M 399.473 232.505 L 364.086 198.431 L 281.735 198.431 L 281.735 311.805 L 399.475 311.805 Z M 386.39 261.416 L 372.654 261.416 C 371.361 267.462 368.253 273.012 363.719 277.376 C 359.186 281.744 353.422 284.735 347.143 285.98 L 347.143 299.207 L 334.061 299.207 L 334.061 285.98 C 327.783 284.735 322.018 281.744 317.486 277.376 C 312.952 273.012 309.844 267.462 308.551 261.416 L 294.815 261.416 L 294.815 248.819 L 308.551 248.819 C 309.845 242.774 312.952 237.223 317.486 232.859 C 322.018 228.492 327.783 225.5 334.061 224.255 L 334.061 211.028 L 347.143 211.028 L 347.143 224.255 C 353.422 225.501 359.185 228.492 363.719 232.859 C 368.253 237.223 371.361 242.773 372.654 248.819 L 386.39 248.819 Z" style=""/>
    <path d="M 360.226 255.117 C 360.226 265.553 351.439 274.013 340.602 274.013 C 329.766 274.013 320.979 265.553 320.979 255.117 C 320.979 244.683 329.766 236.222 340.602 236.222 C 351.439 236.222 360.226 244.683 360.226 255.117" style=""/>
    <path d="M 399.473 198.431 L 382.53 198.431 L 399.473 214.745 Z" style=""/>
    <path d="M 235.944 198.431 L 268.65 198.431 L 268.65 211.028 L 235.944 211.028 Z" style=""/>
    <path d="M 268.426 236.222 L 268.426 223.625 L 189.304 223.625 C 190.438 227.753 190.438 232.094 189.304 236.222 Z" style=""/>
    <path d="M 235.944 248.819 L 268.65 248.819 L 268.65 261.416 L 235.944 261.416 Z" style=""/>
    <path d="M 235.944 299.207 L 268.65 299.207 L 268.65 311.805 L 235.944 311.805 Z" style=""/>
    <path d="M 235.944 362.193 L 288.274 362.193 C 290.008 362.193 291.673 361.529 292.899 360.349 C 294.126 359.167 294.815 357.565 294.815 355.894 L 294.815 324.401 L 281.732 324.401 L 281.732 349.595 L 235.944 349.595 Z" style=""/>
    <path d="M 307.897 324.401 L 320.979 324.401 L 320.979 355.894 L 307.897 355.894 Z" style=""/>
    <path d="M 334.061 324.401 L 347.143 324.401 L 347.143 374.79 L 334.061 374.79 Z" style=""/>
    <path d="M 360.226 324.401 L 373.308 324.401 L 373.308 355.894 L 360.226 355.894 Z" style=""/>
    <path d="M 445.26 349.595 L 399.473 349.595 L 399.473 324.401 L 386.39 324.401 L 386.39 355.894 C 386.39 357.565 387.079 359.167 388.306 360.349 C 389.532 361.529 391.197 362.193 392.931 362.193 L 445.26 362.193 Z" style=""/>
    <path d="M 412.554 299.207 L 445.26 299.207 L 445.26 311.805 L 412.554 311.805 Z" style=""/>
    <path d="M 457.579 393.685 C 457.579 395.356 458.269 396.958 459.495 398.14 C 460.722 399.321 462.386 399.984 464.121 399.984 L 491.044 399.984 C 489.911 395.856 489.911 391.514 491.044 387.387 L 470.63 387.387 L 470.63 280.312 C 470.63 278.642 469.941 277.039 468.714 275.858 C 467.488 274.677 465.823 274.013 464.088 274.013 L 411.897 274.013 L 411.897 286.61 L 457.554 286.61 Z" style=""/>
    <path d="M 412.554 248.819 L 445.26 248.819 L 445.26 261.416 L 412.554 261.416 Z" style=""/>
    <path d="M 490.196 229.923 C 490.175 227.795 490.462 225.678 491.045 223.625 L 411.894 223.625 L 411.894 236.222 L 491.045 236.222 C 490.462 234.17 490.175 232.052 490.196 229.923 Z" style=""/>
    <path d="M 412.554 198.431 L 445.26 198.431 L 445.26 211.028 L 412.554 211.028 Z" style=""/>
    <path d="M 530.295 393.685 C 530.295 400.643 524.437 406.283 517.212 406.283 C 509.988 406.283 504.13 400.643 504.13 393.685 C 504.13 386.728 509.988 381.088 517.212 381.088 C 524.437 381.088 530.295 386.728 530.295 393.685" style=""/>
    <path d="M 216.239 399.984 C 217.973 399.984 219.639 399.321 220.865 398.14 C 222.091 396.958 222.781 395.356 222.781 393.685 L 222.781 286.61 L 268.436 286.61 L 268.436 274.013 L 216.239 274.013 C 212.627 274.013 209.698 276.834 209.698 280.312 L 209.698 387.387 L 189.304 387.387 C 190.438 391.515 190.438 395.856 189.304 399.984 Z" style=""/>
    <path d="M 177.075 393.685 C 177.075 400.643 171.217 406.283 163.993 406.283 C 156.768 406.283 150.91 400.643 150.91 393.685 C 150.91 386.728 156.768 381.088 163.993 381.088 C 171.217 381.088 177.075 386.728 177.075 393.685" style=""/>
    <path d="M 530.295 229.923 C 530.295 236.881 524.437 242.521 517.212 242.521 C 509.988 242.521 504.13 236.881 504.13 229.923 C 504.13 222.967 509.988 217.326 517.212 217.326 C 524.437 217.326 530.295 222.967 530.295 229.923" style=""/>
    <path d="M 177.075 229.923 C 177.075 236.881 171.217 242.521 163.993 242.521 C 156.768 242.521 150.91 236.881 150.91 229.923 C 150.91 222.967 156.768 217.326 163.993 217.326 C 171.217 217.326 177.075 222.967 177.075 229.923" style=""/>
    <use transform="matrix(0.747554, 0, 0, 0.719832, 131.286758, 670.821045)" style="" xlink:href="#o"/>
    <use transform="matrix(0.747554, 0, 0, 0.719832, 155.290268, 670.821045)" style="" xlink:href="#i"/>
    <use transform="matrix(0.747554, 0, 0, 0.719832, 171.418167, 670.821045)" style="" xlink:href="#d"/>
    <use transform="matrix(0.747554, 0, 0, 0.719832, 193.599518, 670.821045)" style="" xlink:href="#a"/>
    <use transform="matrix(0.747554, 0, 0, 0.719832, 215.669876, 670.821045)" style="" xlink:href="#c"/>
    <use transform="matrix(0.747554, 0, 0, 0.719832, 231.304276, 670.821045)" style="" xlink:href="#d"/>
    <use transform="matrix(0.747554, 0, 0, 0.719832, 253.485626, 670.821045)" style="" xlink:href="#h"/>
    <use transform="matrix(0.747554, 0, 0, 0.719832, 288.281952, 670.821045)" style="" xlink:href="#g"/>
    <use transform="matrix(0.747554, 0, 0, 0.719832, 311.692657, 670.821045)" style="" xlink:href="#f"/>
    <use transform="matrix(0.747554, 0, 0, 0.719832, 343.443695, 670.821045)" style="" xlink:href="#e"/>
    <use transform="matrix(0.747554, 0, 0, 0.719832, 368.369568, 670.821045)" style="" xlink:href="#b"/>
    <use transform="matrix(0.747554, 0, 0, 0.719832, 391.651794, 670.821045)" style="" xlink:href="#n"/>
    <use transform="matrix(0.747554, 0, 0, 0.719832, 414.122223, 670.821045)" style="" xlink:href="#m"/>
    <use transform="matrix(0.747554, 0, 0, 0.719832, 437.404449, 670.821045)" style="" xlink:href="#l"/>
    <use transform="matrix(0.747554, 0, 0, 0.719832, 448.617767, 670.821045)" style="" xlink:href="#a"/>
    <use transform="matrix(0.747554, 0, 0, 0.719832, 470.685211, 670.821045)" style="" xlink:href="#k"/>
    <use transform="matrix(0.747554, 0, 0, 0.719832, 494.098846, 670.821045)" style="" xlink:href="#b"/>
    <use transform="matrix(0.747554, 0, 0, 0.719832, 517.381104, 670.821045)" style="" xlink:href="#a"/>
    <use transform="matrix(0.747554, 0, 0, 0.719832, 539.451538, 670.821045)" style="" xlink:href="#c"/>
    <use transform="matrix(0.747554, 0, 0, 0.719832, 566.471497, 670.821045)" style="" xlink:href="#j"/>
    <use transform="matrix(0.747554, 0, 0, 0.719832, 588.781311, 670.821045)" style="" xlink:href="#b"/>
  </g>
</svg>