<?xml version="1.0" encoding="utf-8"?>
<svg viewBox="0 0 700 700" xmlns="http://www.w3.org/2000/svg" xmlns:xlink="http://www.w3.org/1999/xlink">
  <defs>
    <symbol id="symbol-1" overflow="visible">
      <path d="m18.766-1.125c-0.96875 0.5-1.9805 0.875-3.0312 1.125-1.043 0.25781-2.1367 0.39062-3.2812 0.39062-3.3984 0-6.0898-0.94531-8.0781-2.8438-1.9922-1.9062-2.9844-4.4844-2.9844-7.7344 0-3.2578 0.99219-5.8359 2.9844-7.7344 1.9883-1.9062 4.6797-2.8594 8.0781-2.8594 1.1445 0 2.2383 0.13281 3.2812 0.39062 1.0508 0.25 2.0625 0.625 3.0312 1.125v4.2188c-0.98047-0.65625-1.9453-1.1406-2.8906-1.4531-0.94922-0.3125-1.9492-0.46875-3-0.46875-1.875 0-3.3516 0.60547-4.4219 1.8125-1.0742 1.1992-1.6094 2.8555-1.6094 4.9688 0 2.1055 0.53516 3.7617 1.6094 4.9688 1.0703 1.1992 2.5469 1.7969 4.4219 1.7969 1.0508 0 2.0508-0.14844 3-0.45312 0.94531-0.3125 1.9102-0.80078 2.8906-1.4688z"/>
    </symbol>
    <symbol id="symbol-2" overflow="visible">
      <path d="m13.734-11.141c-0.4375-0.19531-0.87109-0.34375-1.2969-0.4375-0.41797-0.10156-0.83984-0.15625-1.2656-0.15625-1.2617 0-2.2305 0.40625-2.9062 1.2188-0.67969 0.80469-1.0156 1.9531-1.0156 3.4531v7.0625h-4.8906v-15.312h4.8906v2.5156c0.625-1 1.3438-1.7266 2.1562-2.1875 0.82031-0.46875 1.8008-0.70312 2.9375-0.70312 0.16406 0 0.34375 0.011719 0.53125 0.03125 0.19531 0.011719 0.47656 0.039062 0.84375 0.078125z"/>
    </symbol>
    <symbol id="symbol-3" overflow="visible">
      <path d="m17.641-7.7031v1.4062h-11.453c0.125 1.1484 0.53906 2.0078 1.25 2.5781 0.70703 0.57422 1.7031 0.85938 2.9844 0.85938 1.0312 0 2.082-0.14844 3.1562-0.45312 1.082-0.3125 2.1914-0.77344 3.3281-1.3906v3.7656c-1.1562 0.4375-2.3125 0.76562-3.4688 0.98438-1.1562 0.22656-2.3125 0.34375-3.4688 0.34375-2.7734 0-4.9297-0.70312-6.4688-2.1094-1.5312-1.4062-2.2969-3.3789-2.2969-5.9219 0-2.5 0.75391-4.4609 2.2656-5.8906 1.5078-1.4375 3.582-2.1562 6.2188-2.1562 2.4062 0 4.332 0.73047 5.7812 2.1875 1.4453 1.4492 2.1719 3.3828 2.1719 5.7969zm-5.0312-1.625c0-0.92578-0.27344-1.6719-0.8125-2.2344-0.54297-0.57031-1.25-0.85938-2.125-0.85938-0.94922 0-1.7188 0.26562-2.3125 0.79688s-0.96484 1.2969-1.1094 2.2969z"/>
    </symbol>
    <symbol id="symbol-4" overflow="visible">
      <path d="m9.2188-6.8906c-1.0234 0-1.793 0.17188-2.3125 0.51562-0.51172 0.34375-0.76562 0.85547-0.76562 1.5312 0 0.625 0.20703 1.1172 0.625 1.4688 0.41406 0.34375 0.98828 0.51562 1.7188 0.51562 0.92578 0 1.7031-0.32812 2.3281-0.98438 0.63281-0.66406 0.95312-1.4922 0.95312-2.4844v-0.5625zm7.4688-1.8438v8.7344h-4.9219v-2.2656c-0.65625 0.92969-1.3984 1.6055-2.2188 2.0312-0.82422 0.41406-1.8242 0.625-3 0.625-1.5859 0-2.8711-0.45703-3.8594-1.375-0.99219-0.92578-1.4844-2.1289-1.4844-3.6094 0-1.7891 0.61328-3.1016 1.8438-3.9375 1.2383-0.84375 3.1797-1.2656 5.8281-1.2656h2.8906v-0.39062c0-0.76953-0.30859-1.332-0.92188-1.6875-0.61719-0.36328-1.5703-0.54688-2.8594-0.54688-1.0547 0-2.0312 0.10547-2.9375 0.3125-0.89844 0.21094-1.7305 0.52344-2.5 0.9375v-3.7344c1.0391-0.25 2.0859-0.44141 3.1406-0.57812 1.0625-0.13281 2.125-0.20312 3.1875-0.20312 2.7578 0 4.75 0.54688 5.9688 1.6406 1.2266 1.0859 1.8438 2.8555 1.8438 5.3125z"/>
    </symbol>
    <symbol id="symbol-5" overflow="visible">
      <path d="m7.7031-19.656v4.3438h5.0469v3.5h-5.0469v6.5c0 0.71094 0.14062 1.1875 0.42188 1.4375s0.83594 0.375 1.6719 0.375h2.5156v3.5h-4.1875c-1.9375 0-3.3125-0.39844-4.125-1.2031-0.80469-0.8125-1.2031-2.1797-1.2031-4.1094v-6.5h-2.4219v-3.5h2.4219v-4.3438z"/>
    </symbol>
    <symbol id="symbol-6" overflow="visible">
      <path d="m12.766-13.078v-8.2031h4.9219v21.281h-4.9219v-2.2188c-0.66797 0.90625-1.4062 1.5703-2.2188 1.9844s-1.7578 0.625-2.8281 0.625c-1.8867 0-3.4336-0.75-4.6406-2.25-1.2109-1.5-1.8125-3.4258-1.8125-5.7812 0-2.3633 0.60156-4.2969 1.8125-5.7969 1.207-1.5 2.7539-2.25 4.6406-2.25 1.0625 0 2 0.21484 2.8125 0.64062 0.82031 0.42969 1.5664 1.0859 2.2344 1.9688zm-3.2188 9.9219c1.0391 0 1.8359-0.37891 2.3906-1.1406 0.55078-0.76953 0.82812-1.8828 0.82812-3.3438 0-1.457-0.27734-2.5664-0.82812-3.3281-0.55469-0.76953-1.3516-1.1562-2.3906-1.1562-1.043 0-1.8398 0.38672-2.3906 1.1562-0.55469 0.76172-0.82812 1.8711-0.82812 3.3281 0 1.4609 0.27344 2.5742 0.82812 3.3438 0.55078 0.76172 1.3477 1.1406 2.3906 1.1406z"/>
    </symbol>
    <symbol id="symbol-7" overflow="visible">
      <path d="m10.5-3.1562c1.0508 0 1.8516-0.37891 2.4062-1.1406 0.55078-0.76953 0.82812-1.8828 0.82812-3.3438 0-1.457-0.27734-2.5664-0.82812-3.3281-0.55469-0.76953-1.3555-1.1562-2.4062-1.1562-1.0547 0-1.8594 0.38672-2.4219 1.1562-0.55469 0.77344-0.82812 1.8828-0.82812 3.3281 0 1.4492 0.27344 2.5586 0.82812 3.3281 0.5625 0.77344 1.3672 1.1562 2.4219 1.1562zm-3.25-9.9219c0.67578-0.88281 1.4219-1.5391 2.2344-1.9688 0.82031-0.42578 1.7656-0.64062 2.8281-0.64062 1.8945 0 3.4453 0.75 4.6562 2.25 1.207 1.5 1.8125 3.4336 1.8125 5.7969 0 2.3555-0.60547 4.2812-1.8125 5.7812-1.2109 1.5-2.7617 2.25-4.6562 2.25-1.0625 0-2.0078-0.21094-2.8281-0.625-0.8125-0.42578-1.5586-1.0859-2.2344-1.9844v2.2188h-4.8906v-21.281h4.8906z"/>
    </symbol>
    <symbol id="symbol-8" overflow="visible">
      <path d="m0.34375-15.312h4.8906l4.125 10.391 3.5-10.391h4.8906l-6.4375 16.766c-0.64844 1.6953-1.4023 2.8828-2.2656 3.5625-0.86719 0.6875-2 1.0312-3.4062 1.0312h-2.8438v-3.2188h1.5312c0.83203 0 1.4375-0.13672 1.8125-0.40625 0.38281-0.26172 0.67969-0.73047 0.89062-1.4062l0.14062-0.42188z"/>
    </symbol>
    <symbol id="symbol-9" overflow="visible">
      <path d="m20.922-1.5156c-1.3125 0.63672-2.6797 1.1172-4.0938 1.4375-1.4062 0.3125-2.8672 0.46875-4.375 0.46875-3.3984 0-6.0898-0.94531-8.0781-2.8438-1.9922-1.9062-2.9844-4.4844-2.9844-7.7344 0-3.2891 1.0078-5.8789 3.0312-7.7656 2.0312-1.8828 4.8047-2.8281 8.3281-2.8281 1.3516 0 2.6484 0.13281 3.8906 0.39062 1.25 0.25 2.4258 0.625 3.5312 1.125v4.2188c-1.1484-0.64453-2.2812-1.125-3.4062-1.4375-1.125-0.32031-2.25-0.48438-3.375-0.48438-2.1055 0-3.7266 0.58984-4.8594 1.7656-1.125 1.168-1.6875 2.8398-1.6875 5.0156 0 2.1562 0.54688 3.8242 1.6406 5 1.0938 1.1797 2.6445 1.7656 4.6562 1.7656 0.53906 0 1.0469-0.03125 1.5156-0.09375 0.47656-0.070313 0.89844-0.17969 1.2656-0.32812v-3.9688h-3.2031v-3.5156h8.2031z"/>
    </symbol>
    <symbol id="symbol-10" overflow="visible">
      <path d="m12.766-2.5938c-0.66797 0.88672-1.4062 1.543-2.2188 1.9688-0.8125 0.41797-1.7578 0.625-2.8281 0.625-1.8672 0-3.4062-0.73438-4.625-2.2031-1.2188-1.4766-1.8281-3.3516-1.8281-5.625 0-2.2891 0.60938-4.1641 1.8281-5.625 1.2188-1.4688 2.7578-2.2031 4.625-2.2031 1.0703 0 2.0156 0.21484 2.8281 0.64062 0.8125 0.41797 1.5508 1.0742 2.2188 1.9688v-2.2656h4.9219v13.766c0 2.457-0.77734 4.3359-2.3281 5.6406-1.5547 1.3008-3.8086 1.9531-6.7656 1.9531-0.94922 0-1.8711-0.074219-2.7656-0.21875-0.89844-0.14844-1.7969-0.37109-2.7031-0.67188v-3.8125c0.86328 0.48828 1.7031 0.85156 2.5156 1.0938 0.82031 0.23828 1.6484 0.35938 2.4844 0.35938 1.6016 0 2.7734-0.35156 3.5156-1.0469 0.75-0.69922 1.125-1.7969 1.125-3.2969zm-3.2188-9.5312c-1.0117 0-1.8047 0.375-2.375 1.125-0.5625 0.74219-0.84375 1.7969-0.84375 3.1719 0 1.3984 0.26953 2.4609 0.8125 3.1875 0.55078 0.71875 1.3516 1.0781 2.4062 1.0781 1.0195 0 1.8125-0.36719 2.375-1.1094 0.5625-0.75 0.84375-1.8008 0.84375-3.1562 0-1.375-0.28125-2.4297-0.84375-3.1719-0.5625-0.75-1.3555-1.125-2.375-1.125z"/>
    </symbol>
    <symbol id="symbol-11" overflow="visible">
      <path d="m9.6406-12.188c-1.0859 0-1.9141 0.39062-2.4844 1.1719-0.57422 0.78125-0.85938 1.9062-0.85938 3.375s0.28516 2.5938 0.85938 3.375c0.57031 0.77344 1.3984 1.1562 2.4844 1.1562 1.0625 0 1.875-0.38281 2.4375-1.1562 0.57031-0.78125 0.85938-1.9062 0.85938-3.375s-0.28906-2.5938-0.85938-3.375c-0.5625-0.78125-1.375-1.1719-2.4375-1.1719zm0-3.5c2.6328 0 4.6914 0.71484 6.1719 2.1406 1.4766 1.418 2.2188 3.3867 2.2188 5.9062 0 2.5117-0.74219 4.4805-2.2188 5.9062-1.4805 1.418-3.5391 2.125-6.1719 2.125-2.6484 0-4.7148-0.70703-6.2031-2.125-1.4922-1.4258-2.2344-3.3945-2.2344-5.9062 0-2.5195 0.74219-4.4883 2.2344-5.9062 1.4883-1.4258 3.5547-2.1406 6.2031-2.1406z"/>
    </symbol>
    <symbol id="symbol-12" overflow="visible">
      <path d="m14.312-14.828v3.7188c-1.043-0.4375-2.0547-0.76562-3.0312-0.98438-0.98047-0.21875-1.9023-0.32812-2.7656-0.32812-0.92969 0-1.6211 0.11719-2.0781 0.34375-0.44922 0.23047-0.67188 0.58984-0.67188 1.0781 0 0.38672 0.17188 0.68359 0.51562 0.89062 0.34375 0.21094 0.95703 0.36719 1.8438 0.46875l0.85938 0.125c2.5078 0.32422 4.1953 0.85156 5.0625 1.5781 0.86328 0.73047 1.2969 1.8711 1.2969 3.4219 0 1.6367-0.60547 2.8672-1.8125 3.6875-1.1992 0.8125-2.9922 1.2188-5.375 1.2188-1.0234 0-2.0742-0.078125-3.1562-0.23438-1.0742-0.15625-2.1797-0.39453-3.3125-0.71875v-3.7188c0.96875 0.48047 1.9609 0.83984 2.9844 1.0781 1.0312 0.23047 2.0781 0.34375 3.1406 0.34375 0.95703 0 1.6758-0.12891 2.1562-0.39062 0.47656-0.26953 0.71875-0.66406 0.71875-1.1875 0-0.4375-0.16797-0.75781-0.5-0.96875-0.33594-0.21875-0.99609-0.38281-1.9844-0.5l-0.85938-0.10938c-2.1797-0.26953-3.7031-0.77344-4.5781-1.5156-0.875-0.73828-1.3125-1.8594-1.3125-3.3594 0-1.625 0.55078-2.8281 1.6562-3.6094 1.1133-0.78906 2.8203-1.1875 5.125-1.1875 0.89453 0 1.8359 0.074219 2.8281 0.21875 1 0.13672 2.082 0.35156 3.25 0.64062z"/>
    </symbol>
    <symbol id="symbol-13" overflow="visible">
      <path d="m17.75-9.3281v9.3281h-4.9219v-7.1406c0-1.3203-0.03125-2.2344-0.09375-2.7344s-0.16797-0.86719-0.3125-1.1094c-0.1875-0.3125-0.44922-0.55469-0.78125-0.73438-0.32422-0.17578-0.69531-0.26562-1.1094-0.26562-1.0234 0-1.8242 0.39844-2.4062 1.1875-0.58594 0.78125-0.875 1.8711-0.875 3.2656v7.5312h-4.8906v-15.312h4.8906v2.2344c0.73828-0.88281 1.5195-1.5391 2.3438-1.9688 0.83203-0.42578 1.75-0.64062 2.75-0.64062 1.7695 0 3.1133 0.54688 4.0312 1.6406 0.91406 1.0859 1.375 2.6562 1.375 4.7188z"/>
    </symbol>
    <symbol id="symbol-14" overflow="visible">
      <path d="m12.422-21.281v3.2188h-2.7031c-0.6875 0-1.1719 0.125-1.4531 0.375-0.27344 0.25-0.40625 0.6875-0.40625 1.3125v1.0625h4.1875v3.5h-4.1875v11.812h-4.8906v-11.812h-2.4375v-3.5h2.4375v-1.0625c0-1.6641 0.46094-2.8984 1.3906-3.7031 0.92578-0.80078 2.3672-1.2031 4.3281-1.2031z"/>
    </symbol>
    <symbol id="symbol-15" overflow="visible">
      <path d="m16.547-12.766c0.61328-0.94531 1.3477-1.6719 2.2031-2.1719 0.85156-0.5 1.7891-0.75 2.8125-0.75 1.7578 0 3.0977 0.54688 4.0156 1.6406 0.92578 1.0859 1.3906 2.6562 1.3906 4.7188v9.3281h-4.9219v-7.9844-0.35938c0.007813-0.13281 0.015625-0.32031 0.015625-0.5625 0-1.082-0.16406-1.8633-0.48438-2.3438-0.3125-0.48828-0.82422-0.73438-1.5312-0.73438-0.92969 0-1.6484 0.38672-2.1562 1.1562-0.51172 0.76172-0.77344 1.8672-0.78125 3.3125v7.5156h-4.9219v-7.9844c0-1.6953-0.14844-2.7852-0.4375-3.2656-0.29297-0.48828-0.8125-0.73438-1.5625-0.73438-0.9375 0-1.6641 0.38672-2.1719 1.1562-0.51172 0.76172-0.76562 1.8594-0.76562 3.2969v7.5312h-4.9219v-15.312h4.9219v2.2344c0.60156-0.86328 1.2891-1.5156 2.0625-1.9531 0.78125-0.4375 1.6406-0.65625 2.5781-0.65625 1.0625 0 2 0.25781 2.8125 0.76562 0.8125 0.51172 1.4258 1.2305 1.8438 2.1562z"/>
    </symbol>
    <symbol id="symbol-16" overflow="visible">
      <path d="m17.75-9.3281v9.3281h-4.9219v-7.1094c0-1.3438-0.03125-2.2656-0.09375-2.7656s-0.16797-0.86719-0.3125-1.1094c-0.1875-0.3125-0.44922-0.55469-0.78125-0.73438-0.32422-0.17578-0.69531-0.26562-1.1094-0.26562-1.0234 0-1.8242 0.39844-2.4062 1.1875-0.58594 0.78125-0.875 1.8711-0.875 3.2656v7.5312h-4.8906v-21.281h4.8906v8.2031c0.73828-0.88281 1.5195-1.5391 2.3438-1.9688 0.83203-0.42578 1.75-0.64062 2.75-0.64062 1.7695 0 3.1133 0.54688 4.0312 1.6406 0.91406 1.0859 1.375 2.6562 1.375 4.7188z"/>
    </symbol>
    <symbol id="symbol-17" overflow="visible">
      <path d="m2.5781-20.406h5.875l7.4219 14v-14h4.9844v20.406h-5.875l-7.4219-14v14h-4.9844z"/>
    </symbol>
    <symbol id="symbol-18" overflow="visible">
      <path d="m2.1875-5.9688v-9.3438h4.9219v1.5312c0 0.83594-0.007813 1.875-0.015625 3.125-0.011719 1.25-0.015625 2.0859-0.015625 2.5 0 1.2422 0.03125 2.1328 0.09375 2.6719 0.070313 0.54297 0.17969 0.93359 0.32812 1.1719 0.20703 0.32422 0.47266 0.57422 0.79688 0.75 0.32031 0.16797 0.69141 0.25 1.1094 0.25 1.0195 0 1.8203-0.39062 2.4062-1.1719 0.58203-0.78125 0.875-1.8672 0.875-3.2656v-7.5625h4.8906v15.312h-4.8906v-2.2188c-0.74219 0.89844-1.5234 1.5586-2.3438 1.9844-0.82422 0.41406-1.7344 0.625-2.7344 0.625-1.7617 0-3.1055-0.53906-4.0312-1.625-0.92969-1.082-1.3906-2.6602-1.3906-4.7344z"/>
    </symbol>
    <symbol id="symbol-19" overflow="visible">
      <path d="m2.5781-20.406h8.7344c2.5938 0 4.582 0.57812 5.9688 1.7344 1.3945 1.1484 2.0938 2.7891 2.0938 4.9219 0 2.1367-0.69922 3.7812-2.0938 4.9375-1.3867 1.1562-3.375 1.7344-5.9688 1.7344h-3.4844v7.0781h-5.25zm5.25 3.8125v5.7031h2.9219c1.0195 0 1.8047-0.25 2.3594-0.75 0.5625-0.5 0.84375-1.2031 0.84375-2.1094 0-0.91406-0.28125-1.6172-0.84375-2.1094-0.55469-0.48828-1.3398-0.73438-2.3594-0.73438z"/>
    </symbol>
    <symbol id="symbol-20" overflow="visible">
      <path d="m2.3594-15.312h4.8906v15.031c0 2.0508-0.49609 3.6172-1.4844 4.7031-0.98047 1.082-2.4062 1.625-4.2812 1.625h-2.4219v-3.2188h0.85938c0.92578 0 1.5625-0.21094 1.9062-0.625 0.35156-0.41797 0.53125-1.2461 0.53125-2.4844zm0-5.9688h4.8906v4h-4.8906z"/>
    </symbol>
    <symbol id="symbol-21" overflow="visible">
      <path d="m14.719-14.828v3.9844c-0.65625-0.45703-1.3242-0.79688-2-1.0156-0.66797-0.21875-1.3594-0.32812-2.0781-0.32812-1.3672 0-2.4336 0.40234-3.2031 1.2031-0.76172 0.79297-1.1406 1.9062-1.1406 3.3438 0 1.4297 0.37891 2.543 1.1406 3.3438 0.76953 0.79297 1.8359 1.1875 3.2031 1.1875 0.75781 0 1.4844-0.10938 2.1719-0.32812 0.6875-0.22656 1.3203-0.56641 1.9062-1.0156v4c-0.76172 0.28125-1.5391 0.48828-2.3281 0.625-0.78125 0.14453-1.5742 0.21875-2.375 0.21875-2.7617 0-4.9219-0.70703-6.4844-2.125-1.5547-1.4141-2.3281-3.3828-2.3281-5.9062 0-2.5312 0.77344-4.5039 2.3281-5.9219 1.5625-1.4141 3.7227-2.125 6.4844-2.125 0.80078 0 1.5938 0.074219 2.375 0.21875 0.78125 0.13672 1.5547 0.35156 2.3281 0.64062z"/>
    </symbol>
  </defs>
  <g transform="matrix(1.105568, 0, 0, 1.094005, -35.56897, 43.57021)" style="">
    <path d="m273.79 158.65c11.969 0 23.449 4.7539 31.914 13.219 8.4648 8.4648 13.223 19.945 13.223 31.918 0 11.969-4.7578 23.449-13.223 31.914-8.4648 8.4648-19.945 13.223-31.914 13.223-11.973 0-23.453-4.7578-31.918-13.223-8.4648-8.4648-13.219-19.945-13.219-31.914 0.015624-11.969 4.7734-23.438 13.234-31.902 8.4648-8.4609 19.934-13.219 31.902-13.234zm43.176 125.05c-25.824 13.957-56.797 14.586-83.164 1.6875-26.367-12.902-44.879-37.742-49.707-66.695-4.8242-28.957 4.6289-58.457 25.383-79.215 20.758-20.754 50.258-30.207 79.215-25.383 28.953 4.8281 53.793 23.34 66.695 49.707 12.898 26.367 12.27 57.34-1.6875 83.164 8.3477-4.3008 17.703-6.2695 27.074-5.6953 9.375 0.57031 18.418 3.6602 26.184 8.9414 2.2695-11.957 8.6406-22.746 18.016-30.504 9.375-7.7617 21.164-12.004 33.336-12h13.664v-16.801c-0.023438-5.3516-1.9258-10.527-5.375-14.621s-8.2266-6.8477-13.496-7.7773l-29.68-5.207h-0.003907c-3.4805-12.938-8.6406-25.359-15.344-36.961l17.305-24.695c2.9688-4.3672 4.3359-9.625 3.8633-14.879-0.46875-5.2578-2.7422-10.191-6.4375-13.961l-17.809-18.09c-3.8008-3.7852-8.8125-6.1094-14.16-6.5703-5.3438-0.46094-10.68 0.97266-15.07 4.0508l-24.695 17.305h-0.003906c-11.598-6.7031-24.023-11.863-36.957-15.344l-5.207-29.68h-0.003907c-0.92969-5.2734-3.6836-10.051-7.7773-13.5-4.0938-3.4453-9.2695-5.3477-14.621-5.3711h-25.199c-5.3555 0.023438-10.527 1.9258-14.621 5.3711-4.0938 3.4492-6.8477 8.2266-7.7812 13.5l-5.207 29.68c-12.938 3.4805-25.359 8.6406-36.961 15.344l-24.918-17.305c-4.375-3.0195-9.6641-4.418-14.957-3.957-5.2969 0.45703-10.266 2.75-14.051 6.4766l-18.09 18.09c-3.7969 3.8047-6.1328 8.8281-6.5938 14.184-0.46094 5.3594 0.98047 10.707 4.0742 15.105l17.305 24.695c-6.6992 11.598-11.859 24.023-15.344 36.957l-29.68 5.207v0.003906c-5.2734 0.92969-10.051 3.6836-13.5 7.7773-3.4453 4.0938-5.3477 9.2695-5.3711 14.621v25.199c0.023438 5.3555 1.9258 10.527 5.3711 14.621 3.4492 4.0977 8.2266 6.8477 13.5 7.7812l29.68 5.207c3.4844 12.934 8.6406 25.359 15.344 36.961l-17.305 24.582c-3.0938 4.3984-4.5352 9.7461-4.0742 15.105 0.46094 5.3555 2.7969 10.379 6.5938 14.184l18.09 17.809c3.7969 3.8086 8.8164 6.1523 14.176 6.625 5.3555 0.46875 10.707-0.96484 15.113-4.0508l24.695-17.305c11.598 6.7031 24.023 11.859 36.957 15.344l5.207 29.68 0.003906 0.003906c0.92969 5.2695 3.6836 10.047 7.7773 13.496s9.2695 5.3516 14.621 5.375h16.801v-13.664c-0.003906-12.172 4.2383-23.961 12-33.336 7.7578-9.375 18.547-15.746 30.504-18.016-5.3516-7.7227-8.5234-16.746-9.1719-26.121-0.65234-9.375 1.2422-18.75 5.4766-27.137zm307.44 104.61v19.824c-0.054688 4.1914-1.5742 8.2344-4.293 11.422-2.7227 3.1914-6.4688 5.332-10.602 6.0508l-23.406 4.0898v-0.003906c-2.7148 10.328-6.7812 20.25-12.098 29.512l13.664 19.488c2.4375 3.4688 3.5703 7.6836 3.2031 11.906-0.37109 4.2188-2.2188 8.1758-5.2188 11.168l-14.055 14.055c-2.9922 3-6.9492 4.8477-11.168 5.2188-4.2227 0.36719-8.4375-0.76562-11.906-3.2031l-19.32-13.832c-9.1367 5.2812-18.926 9.3477-29.121 12.098l-4.4766 23.406c-0.71875 4.1328-2.8594 7.8789-6.0508 10.602-3.1875 2.7188-7.2305 4.2383-11.422 4.293h-19.824c-4.2422 0.011718-8.3477-1.4766-11.598-4.2031-3.25-2.7266-5.4297-6.5117-6.1562-10.691l-4.0898-23.406h0.003906c-10.191-2.75-19.98-6.8164-29.121-12.098l-19.488 13.664c-3.4648 2.4375-7.6836 3.5703-11.902 3.2031-4.2227-0.37109-8.1797-2.2188-11.168-5.2188l-14.055-14.055h-0.003907c-3-2.9922-4.8477-6.9492-5.2188-11.168-0.36719-4.2227 0.76563-8.4375 3.2031-11.906l13.723-19.32c-5.2852-9.1367-9.3516-18.926-12.098-29.121l-23.406-4.4766c-4.1797-0.72656-7.9648-2.9102-10.691-6.1562-2.7266-3.25-4.2148-7.3555-4.207-11.598v-19.543c-0.007812-4.2422 1.4805-8.3477 4.207-11.598 2.7266-3.25 6.5117-5.4297 10.691-6.1562l23.406-4.0898v0.003906c2.75-10.191 6.8164-19.98 12.098-29.121l-13.664-19.434c-2.4375-3.4648-3.5742-7.6797-3.2031-11.902 0.36719-4.2227 2.2148-8.1758 5.2188-11.168l14.055-14.055c2.9922-3.0039 6.9453-4.8516 11.168-5.2188 4.2227-0.37109 8.4375 0.76562 11.902 3.2031l19.434 13.664c9.1406-5.2852 18.93-9.3516 29.121-12.098l4.0898-23.406h-0.003907c0.72656-4.1797 2.9062-7.9648 6.1562-10.691 3.25-2.7266 7.3555-4.2148 11.598-4.207h19.824c4.1914 0.054688 8.2344 1.5742 11.422 4.2969 3.1914 2.7188 5.332 6.4688 6.0508 10.602l4.0898 23.406h-0.003906c10.328 2.7148 20.25 6.7812 29.512 12.098l19.434-13.664c3.4648-2.4375 7.6836-3.5742 11.902-3.2031 4.2227 0.36719 8.1758 2.2148 11.168 5.2188l14.055 14.055h0.003907c3 2.9922 4.8477 6.9453 5.2188 11.168 0.36719 4.2227-0.76562 8.4375-3.2031 11.902l-13.777 19.434c5.2812 9.1406 9.3477 18.93 12.098 29.121l23.406 4.0898v-0.003907c4.1797 0.72656 7.9648 2.9062 10.691 6.1562 2.7266 3.25 4.2148 7.3555 4.2031 11.598zm-102.59 9.9102c0-14.211-5.6484-27.844-15.699-37.895-10.047-10.051-23.68-15.695-37.895-15.695-14.211 0-27.844 5.6445-37.895 15.695-10.051 10.051-15.695 23.684-15.695 37.895 0 14.215 5.6445 27.848 15.695 37.895 10.051 10.051 23.684 15.699 37.895 15.699 14.215 0 27.848-5.6484 37.895-15.699 10.051-10.047 15.699-23.68 15.699-37.895z"/>
    <use transform="matrix(1, 0, 0, 1, 70, 644)" xlink:href="#symbol-1"/>
    <use transform="matrix(1, 0, 0, 1, 90.55078125, 644)" xlink:href="#symbol-2"/>
    <use transform="matrix(1, 0, 0, 1, 104.359375, 644)" xlink:href="#symbol-3"/>
    <use transform="matrix(1, 0, 0, 1, 123.34765625, 644)" xlink:href="#symbol-4"/>
    <use transform="matrix(1, 0, 0, 1, 142.2421875, 644)" xlink:href="#symbol-5"/>
    <use transform="matrix(1, 0, 0, 1, 155.62890625, 644)" xlink:href="#symbol-3"/>
    <use transform="matrix(1, 0, 0, 1, 174.6171875, 644)" xlink:href="#symbol-6"/>
    <use transform="matrix(1, 0, 0, 1, 204.41015625, 644)" xlink:href="#symbol-7"/>
    <use transform="matrix(1, 0, 0, 1, 224.453125, 644)" xlink:href="#symbol-8"/>
    <use transform="matrix(1, 0, 0, 1, 252.453125, 644)" xlink:href="#symbol-9"/>
    <use transform="matrix(1, 0, 0, 1, 275.43359375, 644)" xlink:href="#symbol-2"/>
    <use transform="matrix(1, 0, 0, 1, 289.2421875, 644)" xlink:href="#symbol-3"/>
    <use transform="matrix(1, 0, 0, 1, 308.234375, 644)" xlink:href="#symbol-10"/>
    <use transform="matrix(1, 0, 0, 1, 328.2734375, 644)" xlink:href="#symbol-11"/>
    <use transform="matrix(1, 0, 0, 1, 347.51171875, 644)" xlink:href="#symbol-2"/>
    <use transform="matrix(1, 0, 0, 1, 371.0703125, 644)" xlink:href="#symbol-1"/>
    <use transform="matrix(1, 0, 0, 1, 391.6171875, 644)" xlink:href="#symbol-2"/>
    <use transform="matrix(1, 0, 0, 1, 405.42578125, 644)" xlink:href="#symbol-3"/>
    <use transform="matrix(1, 0, 0, 1, 424.4140625, 644)" xlink:href="#symbol-12"/>
    <use transform="matrix(1, 0, 0, 1, 441.08203125, 644)" xlink:href="#symbol-13"/>
    <use transform="matrix(1, 0, 0, 1, 461.015625, 644)" xlink:href="#symbol-4"/>
    <use transform="matrix(1, 0, 0, 1, 479.91015625, 644)" xlink:href="#symbol-2"/>
    <use transform="matrix(1, 0, 0, 1, 70, 672)" xlink:href="#symbol-14"/>
    <use transform="matrix(1, 0, 0, 1, 82.18359375, 672)" xlink:href="#symbol-2"/>
    <use transform="matrix(1, 0, 0, 1, 95.9921875, 672)" xlink:href="#symbol-11"/>
    <use transform="matrix(1, 0, 0, 1, 115.2265625, 672)" xlink:href="#symbol-15"/>
    <use transform="matrix(1, 0, 0, 1, 154.15234375, 672)" xlink:href="#symbol-5"/>
    <use transform="matrix(1, 0, 0, 1, 167.53515625, 672)" xlink:href="#symbol-16"/>
    <use transform="matrix(1, 0, 0, 1, 187.46875, 672)" xlink:href="#symbol-3"/>
    <use transform="matrix(1, 0, 0, 1, 216.20703125, 672)" xlink:href="#symbol-17"/>
    <use transform="matrix(1, 0, 0, 1, 239.640625, 672)" xlink:href="#symbol-11"/>
    <use transform="matrix(1, 0, 0, 1, 258.87890625, 672)" xlink:href="#symbol-18"/>
    <use transform="matrix(1, 0, 0, 1, 278.8125, 672)" xlink:href="#symbol-13"/>
    <use transform="matrix(1, 0, 0, 1, 308.4921875, 672)" xlink:href="#symbol-19"/>
    <use transform="matrix(1, 0, 0, 1, 329.015625, 672)" xlink:href="#symbol-2"/>
    <use transform="matrix(1, 0, 0, 1, 342.8203125, 672)" xlink:href="#symbol-11"/>
    <use transform="matrix(1, 0, 0, 1, 362.05859375, 672)" xlink:href="#symbol-20"/>
    <use transform="matrix(1, 0, 0, 1, 371.65625, 672)" xlink:href="#symbol-3"/>
    <use transform="matrix(1, 0, 0, 1, 390.6484375, 672)" xlink:href="#symbol-21"/>
    <use transform="matrix(1, 0, 0, 1, 407.2421875, 672)" xlink:href="#symbol-5"/>
  </g>
</svg>